<svg xmlns="http://www.w3.org/2000/svg" xmlns:xlink="http://www.w3.org/1999/xlink" version="1.1" class="marks" width="1116" height="670" viewBox="0 0 1116 670"><g fill="none" stroke-miterlimit="10" transform="translate(92,29)"><g class="mark-group role-frame root" role="graphics-object" aria-roledescription="group mark container"><g transform="translate(0,0)"><path class="background" aria-hidden="true" d="M0.5,0.5h909v600h-909Z" stroke="#ddd"/><g><g class="mark-group role-axis" aria-hidden="true"><g transform="translate(0.5,600.5)"><path class="background" aria-hidden="true" d="M0,0h0v0h0Z" pointer-events="none"/><g><g class="mark-rule role-axis-grid" pointer-events="none"><line transform="translate(0,0)" x2="0" y2="-600" stroke="#ddd" stroke-width="1" opacity="1"/><line transform="translate(28,0)" x2="0" y2="-600" stroke="#ddd" stroke-width="1" opacity="1"/><line transform="translate(57,0)" x2="0" y2="-600" stroke="#ddd" stroke-width="1" opacity="1"/><line transform="translate(85,0)" x2="0" y2="-600" stroke="#ddd" stroke-width="1" opacity="1"/><line transform="translate(114,0)" x2="0" y2="-600" stroke="#ddd" stroke-width="1" opacity="1"/><line transform="translate(142,0)" x2="0" y2="-600" stroke="#ddd" stroke-width="1" opacity="1"/><line transform="translate(170,0)" x2="0" y2="-600" stroke="#ddd" stroke-width="1" opacity="1"/><line transform="translate(199,0)" x2="0" y2="-600" stroke="#ddd" stroke-width="1" opacity="1"/><line transform="translate(227,0)" x2="0" y2="-600" stroke="#ddd" stroke-width="1" opacity="1"/><line transform="translate(256,0)" x2="0" y2="-600" stroke="#ddd" stroke-width="1" opacity="1"/><line transform="translate(284,0)" x2="0" y2="-600" stroke="#ddd" stroke-width="1" opacity="1"/><line transform="translate(312,0)" x2="0" y2="-600" stroke="#ddd" stroke-width="1" opacity="1"/><line transform="translate(341,0)" x2="0" y2="-600" stroke="#ddd" stroke-width="1" opacity="1"/><line transform="translate(369,0)" x2="0" y2="-600" stroke="#ddd" stroke-width="1" opacity="1"/><line transform="translate(398,0)" x2="0" y2="-600" stroke="#ddd" stroke-width="1" opacity="1"/><line transform="translate(426,0)" x2="0" y2="-600" stroke="#ddd" stroke-width="1" opacity="1"/><line transform="translate(455,0)" x2="0" y2="-600" stroke="#ddd" stroke-width="1" opacity="1"/><line transform="translate(483,0)" x2="0" y2="-600" stroke="#ddd" stroke-width="1" opacity="1"/><line transform="translate(511,0)" x2="0" y2="-600" stroke="#ddd" stroke-width="1" opacity="1"/><line transform="translate(540,0)" x2="0" y2="-600" stroke="#ddd" stroke-width="1" opacity="1"/><line transform="translate(568,0)" x2="0" y2="-600" stroke="#ddd" stroke-width="1" opacity="1"/><line transform="translate(597,0)" x2="0" y2="-600" stroke="#ddd" stroke-width="1" opacity="1"/><line transform="translate(625,0)" x2="0" y2="-600" stroke="#ddd" stroke-width="1" opacity="1"/><line transform="translate(653,0)" x2="0" y2="-600" stroke="#ddd" stroke-width="1" opacity="1"/><line transform="translate(682,0)" x2="0" y2="-600" stroke="#ddd" stroke-width="1" opacity="1"/><line transform="translate(710,0)" x2="0" y2="-600" stroke="#ddd" stroke-width="1" opacity="1"/><line transform="translate(739,0)" x2="0" y2="-600" stroke="#ddd" stroke-width="1" opacity="1"/><line transform="translate(767,0)" x2="0" y2="-600" stroke="#ddd" stroke-width="1" opacity="1"/><line transform="translate(795,0)" x2="0" y2="-600" stroke="#ddd" stroke-width="1" opacity="1"/><line transform="translate(824,0)" x2="0" y2="-600" stroke="#ddd" stroke-width="1" opacity="1"/><line transform="translate(852,0)" x2="0" y2="-600" stroke="#ddd" stroke-width="1" opacity="1"/><line transform="translate(881,0)" x2="0" y2="-600" stroke="#ddd" stroke-width="1" opacity="1"/><line transform="translate(909,0)" x2="0" y2="-600" stroke="#ddd" stroke-width="1" opacity="1"/></g></g><path class="foreground" aria-hidden="true" d="" pointer-events="none" display="none"/></g></g><g class="mark-group role-axis" role="graphics-symbol" aria-roledescription="axis" aria-label="X-axis titled 'Amount' for a linear scale with values from 0 to 1,600,000"><g transform="translate(0.5,600.5)"><path class="background" aria-hidden="true" d="M0,0h0v0h0Z" pointer-events="none"/><g><g class="mark-rule role-axis-tick" pointer-events="none"><line transform="translate(0,0)" x2="0" y2="5" stroke="#888" stroke-width="1" opacity="1"/><line transform="translate(28,0)" x2="0" y2="5" stroke="#888" stroke-width="1" opacity="1"/><line transform="translate(57,0)" x2="0" y2="5" stroke="#888" stroke-width="1" opacity="1"/><line transform="translate(85,0)" x2="0" y2="5" stroke="#888" stroke-width="1" opacity="1"/><line transform="translate(114,0)" x2="0" y2="5" stroke="#888" stroke-width="1" opacity="1"/><line transform="translate(142,0)" x2="0" y2="5" stroke="#888" stroke-width="1" opacity="1"/><line transform="translate(170,0)" x2="0" y2="5" stroke="#888" stroke-width="1" opacity="1"/><line transform="translate(199,0)" x2="0" y2="5" stroke="#888" stroke-width="1" opacity="1"/><line transform="translate(227,0)" x2="0" y2="5" stroke="#888" stroke-width="1" opacity="1"/><line transform="translate(256,0)" x2="0" y2="5" stroke="#888" stroke-width="1" opacity="1"/><line transform="translate(284,0)" x2="0" y2="5" stroke="#888" stroke-width="1" opacity="1"/><line transform="translate(312,0)" x2="0" y2="5" stroke="#888" stroke-width="1" opacity="1"/><line transform="translate(341,0)" x2="0" y2="5" stroke="#888" stroke-width="1" opacity="1"/><line transform="translate(369,0)" x2="0" y2="5" stroke="#888" stroke-width="1" opacity="1"/><line transform="translate(398,0)" x2="0" y2="5" stroke="#888" stroke-width="1" opacity="1"/><line transform="translate(426,0)" x2="0" y2="5" stroke="#888" stroke-width="1" opacity="1"/><line transform="translate(455,0)" x2="0" y2="5" stroke="#888" stroke-width="1" opacity="1"/><line transform="translate(483,0)" x2="0" y2="5" stroke="#888" stroke-width="1" opacity="1"/><line transform="translate(511,0)" x2="0" y2="5" stroke="#888" stroke-width="1" opacity="1"/><line transform="translate(540,0)" x2="0" y2="5" stroke="#888" stroke-width="1" opacity="1"/><line transform="translate(568,0)" x2="0" y2="5" stroke="#888" stroke-width="1" opacity="1"/><line transform="translate(597,0)" x2="0" y2="5" stroke="#888" stroke-width="1" opacity="1"/><line transform="translate(625,0)" x2="0" y2="5" stroke="#888" stroke-width="1" opacity="1"/><line transform="translate(653,0)" x2="0" y2="5" stroke="#888" stroke-width="1" opacity="1"/><line transform="translate(682,0)" x2="0" y2="5" stroke="#888" stroke-width="1" opacity="1"/><line transform="translate(710,0)" x2="0" y2="5" stroke="#888" stroke-width="1" opacity="1"/><line transform="translate(739,0)" x2="0" y2="5" stroke="#888" stroke-width="1" opacity="1"/><line transform="translate(767,0)" x2="0" y2="5" stroke="#888" stroke-width="1" opacity="1"/><line transform="translate(795,0)" x2="0" y2="5" stroke="#888" stroke-width="1" opacity="1"/><line transform="translate(824,0)" x2="0" y2="5" stroke="#888" stroke-width="1" opacity="1"/><line transform="translate(852,0)" x2="0" y2="5" stroke="#888" stroke-width="1" opacity="1"/><line transform="translate(881,0)" x2="0" y2="5" stroke="#888" stroke-width="1" opacity="1"/><line transform="translate(909,0)" x2="0" y2="5" stroke="#888" stroke-width="1" opacity="1"/></g><g class="mark-text role-axis-label" pointer-events="none"><text text-anchor="start" transform="translate(0,16)" font-family="Lato" font-size="12px" fill="#000" opacity="1">0</text><text text-anchor="middle" transform="translate(28.40625,16)" font-family="Lato" font-size="12px" fill="#000" opacity="0">50,000</text><text text-anchor="middle" transform="translate(56.8125,16)" font-family="Lato" font-size="12px" fill="#000" opacity="0">100,000</text><text text-anchor="middle" transform="translate(85.21875,16)" font-family="Lato" font-size="12px" fill="#000" opacity="0">150,000</text><text text-anchor="middle" transform="translate(113.625,16)" font-family="Lato" font-size="12px" fill="#000" opacity="1">200,000</text><text text-anchor="middle" transform="translate(142.03125,16)" font-family="Lato" font-size="12px" fill="#000" opacity="0">250,000</text><text text-anchor="middle" transform="translate(170.4375,16)" font-family="Lato" font-size="12px" fill="#000" opacity="0">300,000</text><text text-anchor="middle" transform="translate(198.84375,16)" font-family="Lato" font-size="12px" fill="#000" opacity="0">350,000</text><text text-anchor="middle" transform="translate(227.25,16)" font-family="Lato" font-size="12px" fill="#000" opacity="1">400,000</text><text text-anchor="middle" transform="translate(255.65625,16)" font-family="Lato" font-size="12px" fill="#000" opacity="0">450,000</text><text text-anchor="middle" transform="translate(284.0625,16)" font-family="Lato" font-size="12px" fill="#000" opacity="0">500,000</text><text text-anchor="middle" transform="translate(312.46875,16)" font-family="Lato" font-size="12px" fill="#000" opacity="0">550,000</text><text text-anchor="middle" transform="translate(340.875,16)" font-family="Lato" font-size="12px" fill="#000" opacity="1">600,000</text><text text-anchor="middle" transform="translate(369.28125,16)" font-family="Lato" font-size="12px" fill="#000" opacity="0">650,000</text><text text-anchor="middle" transform="translate(397.6875,16)" font-family="Lato" font-size="12px" fill="#000" opacity="0">700,000</text><text text-anchor="middle" transform="translate(426.09375,16)" font-family="Lato" font-size="12px" fill="#000" opacity="0">750,000</text><text text-anchor="middle" transform="translate(454.5,16)" font-family="Lato" font-size="12px" fill="#000" opacity="1">800,000</text><text text-anchor="middle" transform="translate(482.90625,16)" font-family="Lato" font-size="12px" fill="#000" opacity="0">850,000</text><text text-anchor="middle" transform="translate(511.3125,16)" font-family="Lato" font-size="12px" fill="#000" opacity="0">900,000</text><text text-anchor="middle" transform="translate(539.71875,16)" font-family="Lato" font-size="12px" fill="#000" opacity="0">950,000</text><text text-anchor="middle" transform="translate(568.125,16)" font-family="Lato" font-size="12px" fill="#000" opacity="1">1,000,000</text><text text-anchor="middle" transform="translate(596.53125,16)" font-family="Lato" font-size="12px" fill="#000" opacity="0">1,050,000</text><text text-anchor="middle" transform="translate(624.9375,16)" font-family="Lato" font-size="12px" fill="#000" opacity="0">1,100,000</text><text text-anchor="middle" transform="translate(653.34375,16)" font-family="Lato" font-size="12px" fill="#000" opacity="0">1,150,000</text><text text-anchor="middle" transform="translate(681.75,16)" font-family="Lato" font-size="12px" fill="#000" opacity="1">1,200,000</text><text text-anchor="middle" transform="translate(710.15625,16)" font-family="Lato" font-size="12px" fill="#000" opacity="0">1,250,000</text><text text-anchor="middle" transform="translate(738.5625,16)" font-family="Lato" font-size="12px" fill="#000" opacity="0">1,300,000</text><text text-anchor="middle" transform="translate(766.96875,16)" font-family="Lato" font-size="12px" fill="#000" opacity="0">1,350,000</text><text text-anchor="middle" transform="translate(795.375,16)" font-family="Lato" font-size="12px" fill="#000" opacity="1">1,400,000</text><text text-anchor="middle" transform="translate(823.78125,16)" font-family="Lato" font-size="12px" fill="#000" opacity="0">1,450,000</text><text text-anchor="middle" transform="translate(852.1875,16)" font-family="Lato" font-size="12px" fill="#000" opacity="0">1,500,000</text><text text-anchor="middle" transform="translate(880.59375,16)" font-family="Lato" font-size="12px" fill="#000" opacity="0">1,550,000</text><text text-anchor="end" transform="translate(909,16)" font-family="Lato" font-size="12px" fill="#000" opacity="1">1,600,000</text></g><g class="mark-rule role-axis-domain" pointer-events="none"><line transform="translate(0,0)" x2="909" y2="0" stroke="#888" stroke-width="1" opacity="1"/></g><g class="mark-text role-axis-title" pointer-events="none"><text text-anchor="middle" transform="translate(454.5,33)" font-family="Lato" font-size="14px" font-weight="bold" fill="#000" opacity="1">Amount</text></g></g><path class="foreground" aria-hidden="true" d="" pointer-events="none" display="none"/></g></g><g class="mark-group role-axis" role="graphics-symbol" aria-roledescription="axis" aria-label="Y-axis titled 'State' for a discrete scale with 24 values: Netherlands, Denmark, Czechia, Belgium, Germany, ending with Malta"><g transform="translate(0.5,0.5)"><path class="background" aria-hidden="true" d="M0,0h0v0h0Z" pointer-events="none"/><g><g class="mark-rule role-axis-tick" pointer-events="none"><line transform="translate(0,14)" x2="-5" y2="0" stroke="#888" stroke-width="1" opacity="1"/><line transform="translate(0,39)" x2="-5" y2="0" stroke="#888" stroke-width="1" opacity="1"/><line transform="translate(0,64)" x2="-5" y2="0" stroke="#888" stroke-width="1" opacity="1"/><line transform="translate(0,89)" x2="-5" y2="0" stroke="#888" stroke-width="1" opacity="1"/><line transform="translate(0,114)" x2="-5" y2="0" stroke="#888" stroke-width="1" opacity="1"/><line transform="translate(0,138)" x2="-5" y2="0" stroke="#888" stroke-width="1" opacity="1"/><line transform="translate(0,163)" x2="-5" y2="0" stroke="#888" stroke-width="1" opacity="1"/><line transform="translate(0,188)" x2="-5" y2="0" stroke="#888" stroke-width="1" opacity="1"/><line transform="translate(0,213)" x2="-5" y2="0" stroke="#888" stroke-width="1" opacity="1"/><line transform="translate(0,238)" x2="-5" y2="0" stroke="#888" stroke-width="1" opacity="1"/><line transform="translate(0,262)" x2="-5" y2="0" stroke="#888" stroke-width="1" opacity="1"/><line transform="translate(0,287)" x2="-5" y2="0" stroke="#888" stroke-width="1" opacity="1"/><line transform="translate(0,312)" x2="-5" y2="0" stroke="#888" stroke-width="1" opacity="1"/><line transform="translate(0,337)" x2="-5" y2="0" stroke="#888" stroke-width="1" opacity="1"/><line transform="translate(0,361)" x2="-5" y2="0" stroke="#888" stroke-width="1" opacity="1"/><line transform="translate(0,386)" x2="-5" y2="0" stroke="#888" stroke-width="1" opacity="1"/><line transform="translate(0,411)" x2="-5" y2="0" stroke="#888" stroke-width="1" opacity="1"/><line transform="translate(0,436)" x2="-5" y2="0" stroke="#888" stroke-width="1" opacity="1"/><line transform="translate(0,461)" x2="-5" y2="0" stroke="#888" stroke-width="1" opacity="1"/><line transform="translate(0,485)" x2="-5" y2="0" stroke="#888" stroke-width="1" opacity="1"/><line transform="translate(0,510)" x2="-5" y2="0" stroke="#888" stroke-width="1" opacity="1"/><line transform="translate(0,535)" x2="-5" y2="0" stroke="#888" stroke-width="1" opacity="1"/><line transform="translate(0,560)" x2="-5" y2="0" stroke="#888" stroke-width="1" opacity="1"/><line transform="translate(0,585)" x2="-5" y2="0" stroke="#888" stroke-width="1" opacity="1"/></g><g class="mark-text role-axis-label" pointer-events="none"><text text-anchor="end" transform="translate(-7,18.376033057851245)" font-family="Lato" font-size="12px" fill="#000" opacity="1">Netherlands</text><text text-anchor="end" transform="translate(-7,43.169421487603316)" font-family="Lato" font-size="12px" fill="#000" opacity="1">Denmark</text><text text-anchor="end" transform="translate(-7,67.96280991735539)" font-family="Lato" font-size="12px" fill="#000" opacity="1">Czechia</text><text text-anchor="end" transform="translate(-7,92.75619834710744)" font-family="Lato" font-size="12px" fill="#000" opacity="1">Belgium</text><text text-anchor="end" transform="translate(-7,117.54958677685951)" font-family="Lato" font-size="12px" fill="#000" opacity="1">Germany</text><text text-anchor="end" transform="translate(-7,142.34297520661158)" font-family="Lato" font-size="12px" fill="#000" opacity="1">Luxembourg</text><text text-anchor="end" transform="translate(-7,167.13636363636365)" font-family="Lato" font-size="12px" fill="#000" opacity="1">Slovakia</text><text text-anchor="end" transform="translate(-7,191.92975206611573)" font-family="Lato" font-size="12px" fill="#000" opacity="1">Cyprus</text><text text-anchor="end" transform="translate(-7,216.7231404958678)" font-family="Lato" font-size="12px" fill="#000" opacity="1">Sweden</text><text text-anchor="end" transform="translate(-7,241.51652892561987)" font-family="Lato" font-size="12px" fill="#000" opacity="1">France</text><text text-anchor="end" transform="translate(-7,266.3099173553719)" font-family="Lato" font-size="12px" fill="#000" opacity="1">Hungary</text><text text-anchor="end" transform="translate(-7,291.103305785124)" font-family="Lato" font-size="12px" fill="#000" opacity="1">Italy</text><text text-anchor="end" transform="translate(-7,315.89669421487605)" font-family="Lato" font-size="12px" fill="#000" opacity="1">Poland</text><text text-anchor="end" transform="translate(-7,340.69008264462815)" font-family="Lato" font-size="12px" fill="#000" opacity="1">Austria</text><text text-anchor="end" transform="translate(-7,365.4834710743802)" font-family="Lato" font-size="12px" fill="#000" opacity="1">Bulgaria</text><text text-anchor="end" transform="translate(-7,390.2768595041323)" font-family="Lato" font-size="12px" fill="#000" opacity="1">Finland</text><text text-anchor="end" transform="translate(-7,415.07024793388433)" font-family="Lato" font-size="12px" fill="#000" opacity="1">Latvia</text><text text-anchor="end" transform="translate(-7,439.8636363636364)" font-family="Lato" font-size="12px" fill="#000" opacity="1">Portugal</text><text text-anchor="end" transform="translate(-7,464.6570247933885)" font-family="Lato" font-size="12px" fill="#000" opacity="1">Ireland</text><text text-anchor="end" transform="translate(-7,489.4504132231405)" font-family="Lato" font-size="12px" fill="#000" opacity="1">Estonia</text><text text-anchor="end" transform="translate(-7,514.2438016528927)" font-family="Lato" font-size="12px" fill="#000" opacity="1">Romania</text><text text-anchor="end" transform="translate(-7,539.0371900826447)" font-family="Lato" font-size="12px" fill="#000" opacity="1">Greece</text><text text-anchor="end" transform="translate(-7,563.8305785123968)" font-family="Lato" font-size="12px" fill="#000" opacity="1">Croatia</text><text text-anchor="end" transform="translate(-7,588.6239669421489)" font-family="Lato" font-size="12px" fill="#000" opacity="1">Malta</text></g><g class="mark-rule role-axis-domain" pointer-events="none"><line transform="translate(0,0)" x2="0" y2="600" stroke="#888" stroke-width="1" opacity="1"/></g><g class="mark-text role-axis-title" pointer-events="none"><text text-anchor="middle" transform="translate(-72.76953125,300) rotate(-90) translate(0,-3)" font-family="Lato" font-size="14px" font-weight="bold" fill="#000" opacity="1">State</text></g></g><path class="foreground" aria-hidden="true" d="" pointer-events="none" display="none"/></g></g><g class="mark-rect role-mark marks" role="graphics-object" aria-roledescription="rect mark container"><path aria-label="Amount: 342715; State: Netherlands; Farm Type: Family farms" role="graphics-symbol" aria-roledescription="bar" d="M0,4.95867768595042h194.70495937500002v9.917355371900827h-194.70495937500002Z" fill="#18E169"/><path aria-label="Amount: 150726; State: Denmark; Farm Type: Family farms" role="graphics-symbol" aria-roledescription="bar" d="M0,29.752066115702487h85.63120875v9.917355371900827h-85.63120875Z" fill="#18E169"/><path aria-label="Amount: 38918; State: Czechia; Farm Type: Family farms" role="graphics-symbol" aria-roledescription="bar" d="M0,54.545454545454554h22.110288750000002v9.917355371900827h-22.110288750000002Z" fill="#18E169"/><path aria-label="Amount: 112671; State: Germany; Farm Type: Family farms" role="graphics-symbol" aria-roledescription="bar" d="M0,104.13223140495869h64.011211875v9.917355371900827h-64.011211875Z" fill="#18E169"/><path aria-label="Amount: 17269; State: Slovakia; Farm Type: Family farms" role="graphics-symbol" aria-roledescription="bar" d="M0,153.71900826446281h9.810950625v9.917355371900827h-9.810950625Z" fill="#18E169"/><path aria-label="Amount: 190142; State: Belgium; Farm Type: Family farms" role="graphics-symbol" aria-roledescription="bar" d="M0,79.33884297520662h108.02442375000001v9.917355371900827h-108.02442375000001Z" fill="#18E169"/><path aria-label="Amount: 11284; State: Cyprus; Farm Type: Family farms" role="graphics-symbol" aria-roledescription="bar" d="M0,178.51239669421489h6.410722499999999v9.917355371900827h-6.410722499999999Z" fill="#18E169"/><path aria-label="Amount: 61471; State: Sweden; Farm Type: Family farms" role="graphics-symbol" aria-roledescription="bar" d="M0,203.30578512396696h34.923211875v9.917355371900827h-34.923211875Z" fill="#18E169"/><path aria-label="Amount: 157590; State: Luxembourg; Farm Type: Family farms" role="graphics-symbol" aria-roledescription="bar" d="M0,128.92561983471074h89.53081875000001v9.917355371900827h-89.53081875000001Z" fill="#18E169"/><path aria-label="Amount: 14176; State: Hungary; Farm Type: Family farms" role="graphics-symbol" aria-roledescription="bar" d="M0,252.8925619834711h8.05374v9.917355371900827h-8.05374Z" fill="#18E169"/><path aria-label="Amount: 41685; State: Italy; Farm Type: Family farms" role="graphics-symbol" aria-roledescription="bar" d="M0,277.68595041322317h23.682290625v9.917355371900827h-23.682290625Z" fill="#18E169"/><path aria-label="Amount: 17483; State: Poland; Farm Type: Family farms" role="graphics-symbol" aria-roledescription="bar" d="M0,302.4793388429752h9.932529375000001v9.917355371900827h-9.932529375000001Z" fill="#18E169"/><path aria-label="Amount: 69573; State: France; Farm Type: Family farms" role="graphics-symbol" aria-roledescription="bar" d="M0,228.09917355371903h39.526160624999996v9.917355371900827h-39.526160624999996Z" fill="#18E169"/><path aria-label="Amount: 11093; State: Bulgaria; Farm Type: Family farms" role="graphics-symbol" aria-roledescription="bar" d="M0,352.06611570247935h6.302210625v9.917355371900827h-6.302210625Z" fill="#18E169"/><path aria-label="Amount: 51516; State: Austria; Farm Type: Family farms" role="graphics-symbol" aria-roledescription="bar" d="M0,327.2727272727273h29.267527499999996v9.917355371900827h-29.267527499999996Z" fill="#18E169"/><path aria-label="Amount: 11694; State: Latvia; Farm Type: Family farms" role="graphics-symbol" aria-roledescription="bar" d="M0,401.6528925619835h6.64365375v9.917355371900827h-6.64365375Z" fill="#18E169"/><path aria-label="Amount: 11633; State: Portugal; Farm Type: Family farms" role="graphics-symbol" aria-roledescription="bar" d="M0,426.44628099173553h6.608998125v9.917355371900827h-6.608998125Z" fill="#18E169"/><path aria-label="Amount: 18376; State: Estonia; Farm Type: Family farms" role="graphics-symbol" aria-roledescription="bar" d="M0,476.0330578512397h10.439865000000001v9.917355371900827h-10.439865000000001Z" fill="#18E169"/><path aria-label="Amount: 56044; State: Finland; Farm Type: Family farms" role="graphics-symbol" aria-roledescription="bar" d="M0,376.85950413223145h31.839997500000003v9.917355371900827h-31.839997500000003Z" fill="#18E169"/><path aria-label="Amount: 2747; State: Romania; Farm Type: Family farms" role="graphics-symbol" aria-roledescription="bar" d="M0,500.8264462809918h1.560639375v9.917355371900827h-1.560639375Z" fill="#18E169"/><path aria-label="Amount: 39206; State: Ireland; Farm Type: Family farms" role="graphics-symbol" aria-roledescription="bar" d="M0,451.23966942148763h22.27390875v9.917355371900827h-22.27390875Z" fill="#18E169"/><path aria-label="Amount: 13548; State: Greece; Farm Type: Family farms" role="graphics-symbol" aria-roledescription="bar" d="M0,525.6198347107438h7.696957499999999v9.917355371900827h-7.696957499999999Z" fill="#18E169"/><path aria-label="Amount: 9755; State: Croatia; Farm Type: Family farms" role="graphics-symbol" aria-roledescription="bar" d="M0,550.4132231404959h5.542059375v9.917355371900827h-5.542059375Z" fill="#18E169"/><path aria-label="Amount: 10199; State: Malta; Farm Type: Family farms" role="graphics-symbol" aria-roledescription="bar" d="M0,575.206611570248h5.794306875v9.917355371900827h-5.794306875Z" fill="#18E169"/><path aria-label="Amount: 1561584; State: Netherlands; Farm Type: Non-family farms" role="graphics-symbol" aria-roledescription="bar" d="M0,14.876033057851247h887.1749100000001v9.917355371900827h-887.1749100000001Z" fill="#188FE1"/><path aria-label="Amount: 1132872; State: Denmark; Farm Type: Non-family farms" role="graphics-symbol" aria-roledescription="bar" d="M0,39.669421487603316h643.6129050000001v9.917355371900827h-643.6129050000001Z" fill="#188FE1"/><path aria-label="Amount: 967711; State: Czechia; Farm Type: Non-family farms" role="graphics-symbol" aria-roledescription="bar" d="M0,64.46280991735539h549.780811875v9.917355371900827h-549.780811875Z" fill="#188FE1"/><path aria-label="Amount: 505254; State: Germany; Farm Type: Non-family farms" role="graphics-symbol" aria-roledescription="bar" d="M0,114.04958677685951h287.04742875v9.917355371900827h-287.04742875Z" fill="#188FE1"/><path aria-label="Amount: 459554; State: Slovakia; Farm Type: Non-family farms" role="graphics-symbol" aria-roledescription="bar" d="M0,163.63636363636365h261.08411624999997v9.917355371900827h-261.08411624999997Z" fill="#188FE1"/><path aria-label="Amount: 428045; State: Belgium; Farm Type: Non-family farms" role="graphics-symbol" aria-roledescription="bar" d="M0,89.25619834710744h243.183065625v9.917355371900827h-243.183065625Z" fill="#188FE1"/><path aria-label="Amount: 425576; State: Cyprus; Farm Type: Non-family farms" role="graphics-symbol" aria-roledescription="bar" d="M0,188.42975206611573h241.78036500000002v9.917355371900827h-241.78036500000002Z" fill="#188FE1"/><path aria-label="Amount: 372636; State: Sweden; Farm Type: Non-family farms" role="graphics-symbol" aria-roledescription="bar" d="M0,213.2231404958678h211.70382750000002v9.917355371900827h-211.70382750000002Z" fill="#188FE1"/><path aria-label="Amount: 362996; State: Luxembourg; Farm Type: Non-family farms" role="graphics-symbol" aria-roledescription="bar" d="M0,138.84297520661158h206.2271025v9.917355371900827h-206.2271025Z" fill="#188FE1"/><path aria-label="Amount: 333781; State: Hungary; Farm Type: Non-family farms" role="graphics-symbol" aria-roledescription="bar" d="M0,262.8099173553719h189.62933062500002v9.917355371900827h-189.62933062500002Z" fill="#188FE1"/><path aria-label="Amount: 302042; State: Italy; Farm Type: Non-family farms" role="graphics-symbol" aria-roledescription="bar" d="M0,287.603305785124h171.59761125v9.917355371900827h-171.59761125Z" fill="#188FE1"/><path aria-label="Amount: 301017; State: Poland; Farm Type: Non-family farms" role="graphics-symbol" aria-roledescription="bar" d="M0,312.39669421487605h171.015283125v9.917355371900827h-171.015283125Z" fill="#188FE1"/><path aria-label="Amount: 288669; State: France; Farm Type: Non-family farms" role="graphics-symbol" aria-roledescription="bar" d="M0,238.01652892561987h164.00007562500002v9.917355371900827h-164.00007562500002Z" fill="#188FE1"/><path aria-label="Amount: 236461; State: Bulgaria; Farm Type: Non-family farms" role="graphics-symbol" aria-roledescription="bar" d="M0,361.9834710743802h134.33940562499998v9.917355371900827h-134.33940562499998Z" fill="#188FE1"/><path aria-label="Amount: 218328; State: Austria; Farm Type: Non-family farms" role="graphics-symbol" aria-roledescription="bar" d="M0,337.19008264462815h124.037595v9.917355371900827h-124.037595Z" fill="#188FE1"/><path aria-label="Amount: 212858; State: Latvia; Farm Type: Non-family farms" role="graphics-symbol" aria-roledescription="bar" d="M0,411.57024793388433h120.92995125v9.917355371900827h-120.92995125Z" fill="#188FE1"/><path aria-label="Amount: 193493; State: Portugal; Farm Type: Non-family farms" role="graphics-symbol" aria-roledescription="bar" d="M0,436.3636363636364h109.928210625v9.917355371900827h-109.928210625Z" fill="#188FE1"/><path aria-label="Amount: 178690; State: Estonia; Farm Type: Non-family farms" role="graphics-symbol" aria-roledescription="bar" d="M0,485.9504132231405h101.51825625v9.917355371900827h-101.51825625Z" fill="#188FE1"/><path aria-label="Amount: 172654; State: Finland; Farm Type: Non-family farms" role="graphics-symbol" aria-roledescription="bar" d="M0,386.7768595041323h98.08905375v9.917355371900827h-98.08905375Z" fill="#188FE1"/><path aria-label="Amount: 165456; State: Romania; Farm Type: Non-family farms" role="graphics-symbol" aria-roledescription="bar" d="M0,510.7438016528926h93.99969v9.917355371900827h-93.99969Z" fill="#188FE1"/><path aria-label="Amount: 160280; State: Ireland; Farm Type: Non-family farms" role="graphics-symbol" aria-roledescription="bar" d="M0,461.1570247933885h91.059075v9.917355371900827h-91.059075Z" fill="#188FE1"/><path aria-label="Amount: 141157; State: Greece; Farm Type: Non-family farms" role="graphics-symbol" aria-roledescription="bar" d="M0,535.5371900826447h80.194820625v9.917355371900827h-80.194820625Z" fill="#188FE1"/><path aria-label="Amount: 139381; State: Croatia; Farm Type: Non-family farms" role="graphics-symbol" aria-roledescription="bar" d="M0,560.3305785123968h79.185830625v9.917355371900827h-79.185830625Z" fill="#188FE1"/><path aria-label="Amount: 60006; State: Malta; Farm Type: Non-family farms" role="graphics-symbol" aria-roledescription="bar" d="M0,585.1239669421489h34.090908750000004v9.917355371900827h-34.090908750000004Z" fill="#188FE1"/></g><g class="mark-group role-legend" role="graphics-symbol" aria-roledescription="legend" aria-label="Symbol legend titled 'Farm Type' for fill color with 2 values: Family farms, Non-family farms"><g transform="translate(927,0)"><path class="background" aria-hidden="true" d="M0,0h92v40h-92Z" pointer-events="none"/><g><g class="mark-group role-legend-entry"><g transform="translate(0,16)"><path class="background" aria-hidden="true" d="M0,0h0v0h0Z" pointer-events="none"/><g><g class="mark-group role-scope" role="graphics-object" aria-roledescription="group mark container"><g transform="translate(0,0)"><path class="background" aria-hidden="true" d="M0,0h91.56640625v11h-91.56640625Z" pointer-events="none" opacity="1"/><g><g class="mark-symbol role-legend-symbol" pointer-events="none"><path transform="translate(6,6)" d="M-5,-5h10v10h-10Z" fill="#18E169" stroke-width="1.5" opacity="1"/></g><g class="mark-text role-legend-label" pointer-events="none"><text text-anchor="start" transform="translate(16,9)" font-family="sans-serif" font-size="10px" fill="#000" opacity="1">Family farms</text></g></g><path class="foreground" aria-hidden="true" d="" pointer-events="none" display="none"/></g><g transform="translate(0,13)"><path class="background" aria-hidden="true" d="M0,0h91.56640625v11h-91.56640625Z" pointer-events="none" opacity="1"/><g><g class="mark-symbol role-legend-symbol" pointer-events="none"><path transform="translate(6,6)" d="M-5,-5h10v10h-10Z" fill="#188FE1" stroke-width="1.5" opacity="1"/></g><g class="mark-text role-legend-label" pointer-events="none"><text text-anchor="start" transform="translate(16,9)" font-family="sans-serif" font-size="10px" fill="#000" opacity="1">Non-family farms</text></g></g><path class="foreground" aria-hidden="true" d="" pointer-events="none" display="none"/></g></g></g><path class="foreground" aria-hidden="true" d="" pointer-events="none" display="none"/></g></g><g class="mark-text role-legend-title" pointer-events="none"><text text-anchor="start" transform="translate(0,9)" font-family="sans-serif" font-size="11px" font-weight="bold" fill="#000" opacity="1">Farm Type</text></g></g><path class="foreground" aria-hidden="true" d="" pointer-events="none" display="none"/></g></g><g class="mark-group role-title"><g transform="translate(-86.76953125,-24)"><path class="background" aria-hidden="true" d="M0,0h0v0h0Z" pointer-events="none"/><g><g class="mark-text role-title-text" role="graphics-symbol" aria-roledescription="title" aria-label="Title text 'Dimensione economica in base alla tipologia di industria agricola'" pointer-events="none"><text text-anchor="start" transform="translate(0,16)" font-family="Lato" font-size="20px" font-weight="bold" fill="black" opacity="1">Dimensione economica in base alla tipologia di industria agricola</text></g></g><path class="foreground" aria-hidden="true" d="" pointer-events="none" display="none"/></g></g></g><path class="foreground" aria-hidden="true" d="" display="none"/></g></g></g></svg>