<svg xmlns="http://www.w3.org/2000/svg" xmlns:xlink="http://www.w3.org/1999/xlink" version="1.1" class="marks" width="1116" height="670" viewBox="0 0 1116 670"><g fill="none" stroke-miterlimit="10" transform="translate(92,29)"><g class="mark-group role-frame root" role="graphics-object" aria-roledescription="group mark container"><g transform="translate(0,0)"><path class="background" aria-hidden="true" d="M0.5,0.5h918v600h-918Z" stroke="#ddd"/><g><g class="mark-group role-axis" aria-hidden="true"><g transform="translate(0.5,600.5)"><path class="background" aria-hidden="true" d="M0,0h0v0h0Z" pointer-events="none"/><g><g class="mark-rule role-axis-grid" pointer-events="none"><line transform="translate(0,0)" x2="0" y2="-600" stroke="#ddd" stroke-width="1" opacity="1"/><line transform="translate(31,0)" x2="0" y2="-600" stroke="#ddd" stroke-width="1" opacity="1"/><line transform="translate(61,0)" x2="0" y2="-600" stroke="#ddd" stroke-width="1" opacity="1"/><line transform="translate(92,0)" x2="0" y2="-600" stroke="#ddd" stroke-width="1" opacity="1"/><line transform="translate(122,0)" x2="0" y2="-600" stroke="#ddd" stroke-width="1" opacity="1"/><line transform="translate(153,0)" x2="0" y2="-600" stroke="#ddd" stroke-width="1" opacity="1"/><line transform="translate(184,0)" x2="0" y2="-600" stroke="#ddd" stroke-width="1" opacity="1"/><line transform="translate(214,0)" x2="0" y2="-600" stroke="#ddd" stroke-width="1" opacity="1"/><line transform="translate(245,0)" x2="0" y2="-600" stroke="#ddd" stroke-width="1" opacity="1"/><line transform="translate(275,0)" x2="0" y2="-600" stroke="#ddd" stroke-width="1" opacity="1"/><line transform="translate(306,0)" x2="0" y2="-600" stroke="#ddd" stroke-width="1" opacity="1"/><line transform="translate(337,0)" x2="0" y2="-600" stroke="#ddd" stroke-width="1" opacity="1"/><line transform="translate(367,0)" x2="0" y2="-600" stroke="#ddd" stroke-width="1" opacity="1"/><line transform="translate(398,0)" x2="0" y2="-600" stroke="#ddd" stroke-width="1" opacity="1"/><line transform="translate(428,0)" x2="0" y2="-600" stroke="#ddd" stroke-width="1" opacity="1"/><line transform="translate(459,0)" x2="0" y2="-600" stroke="#ddd" stroke-width="1" opacity="1"/><line transform="translate(490,0)" x2="0" y2="-600" stroke="#ddd" stroke-width="1" opacity="1"/><line transform="translate(520,0)" x2="0" y2="-600" stroke="#ddd" stroke-width="1" opacity="1"/><line transform="translate(551,0)" x2="0" y2="-600" stroke="#ddd" stroke-width="1" opacity="1"/><line transform="translate(581,0)" x2="0" y2="-600" stroke="#ddd" stroke-width="1" opacity="1"/><line transform="translate(612,0)" x2="0" y2="-600" stroke="#ddd" stroke-width="1" opacity="1"/><line transform="translate(643,0)" x2="0" y2="-600" stroke="#ddd" stroke-width="1" opacity="1"/><line transform="translate(673,0)" x2="0" y2="-600" stroke="#ddd" stroke-width="1" opacity="1"/><line transform="translate(704,0)" x2="0" y2="-600" stroke="#ddd" stroke-width="1" opacity="1"/><line transform="translate(734,0)" x2="0" y2="-600" stroke="#ddd" stroke-width="1" opacity="1"/><line transform="translate(765,0)" x2="0" y2="-600" stroke="#ddd" stroke-width="1" opacity="1"/><line transform="translate(796,0)" x2="0" y2="-600" stroke="#ddd" stroke-width="1" opacity="1"/><line transform="translate(826,0)" x2="0" y2="-600" stroke="#ddd" stroke-width="1" opacity="1"/><line transform="translate(857,0)" x2="0" y2="-600" stroke="#ddd" stroke-width="1" opacity="1"/><line transform="translate(887,0)" x2="0" y2="-600" stroke="#ddd" stroke-width="1" opacity="1"/><line transform="translate(918,0)" x2="0" y2="-600" stroke="#ddd" stroke-width="1" opacity="1"/></g></g><path class="foreground" aria-hidden="true" d="" pointer-events="none" display="none"/></g></g><g class="mark-group role-axis" role="graphics-symbol" aria-roledescription="axis" aria-label="X-axis titled 'Amount' for a linear scale with values from 0 to 3,000,000"><g transform="translate(0.5,600.5)"><path class="background" aria-hidden="true" d="M0,0h0v0h0Z" pointer-events="none"/><g><g class="mark-rule role-axis-tick" pointer-events="none"><line transform="translate(0,0)" x2="0" y2="5" stroke="#888" stroke-width="1" opacity="1"/><line transform="translate(31,0)" x2="0" y2="5" stroke="#888" stroke-width="1" opacity="1"/><line transform="translate(61,0)" x2="0" y2="5" stroke="#888" stroke-width="1" opacity="1"/><line transform="translate(92,0)" x2="0" y2="5" stroke="#888" stroke-width="1" opacity="1"/><line transform="translate(122,0)" x2="0" y2="5" stroke="#888" stroke-width="1" opacity="1"/><line transform="translate(153,0)" x2="0" y2="5" stroke="#888" stroke-width="1" opacity="1"/><line transform="translate(184,0)" x2="0" y2="5" stroke="#888" stroke-width="1" opacity="1"/><line transform="translate(214,0)" x2="0" y2="5" stroke="#888" stroke-width="1" opacity="1"/><line transform="translate(245,0)" x2="0" y2="5" stroke="#888" stroke-width="1" opacity="1"/><line transform="translate(275,0)" x2="0" y2="5" stroke="#888" stroke-width="1" opacity="1"/><line transform="translate(306,0)" x2="0" y2="5" stroke="#888" stroke-width="1" opacity="1"/><line transform="translate(337,0)" x2="0" y2="5" stroke="#888" stroke-width="1" opacity="1"/><line transform="translate(367,0)" x2="0" y2="5" stroke="#888" stroke-width="1" opacity="1"/><line transform="translate(398,0)" x2="0" y2="5" stroke="#888" stroke-width="1" opacity="1"/><line transform="translate(428,0)" x2="0" y2="5" stroke="#888" stroke-width="1" opacity="1"/><line transform="translate(459,0)" x2="0" y2="5" stroke="#888" stroke-width="1" opacity="1"/><line transform="translate(490,0)" x2="0" y2="5" stroke="#888" stroke-width="1" opacity="1"/><line transform="translate(520,0)" x2="0" y2="5" stroke="#888" stroke-width="1" opacity="1"/><line transform="translate(551,0)" x2="0" y2="5" stroke="#888" stroke-width="1" opacity="1"/><line transform="translate(581,0)" x2="0" y2="5" stroke="#888" stroke-width="1" opacity="1"/><line transform="translate(612,0)" x2="0" y2="5" stroke="#888" stroke-width="1" opacity="1"/><line transform="translate(643,0)" x2="0" y2="5" stroke="#888" stroke-width="1" opacity="1"/><line transform="translate(673,0)" x2="0" y2="5" stroke="#888" stroke-width="1" opacity="1"/><line transform="translate(704,0)" x2="0" y2="5" stroke="#888" stroke-width="1" opacity="1"/><line transform="translate(734,0)" x2="0" y2="5" stroke="#888" stroke-width="1" opacity="1"/><line transform="translate(765,0)" x2="0" y2="5" stroke="#888" stroke-width="1" opacity="1"/><line transform="translate(796,0)" x2="0" y2="5" stroke="#888" stroke-width="1" opacity="1"/><line transform="translate(826,0)" x2="0" y2="5" stroke="#888" stroke-width="1" opacity="1"/><line transform="translate(857,0)" x2="0" y2="5" stroke="#888" stroke-width="1" opacity="1"/><line transform="translate(887,0)" x2="0" y2="5" stroke="#888" stroke-width="1" opacity="1"/><line transform="translate(918,0)" x2="0" y2="5" stroke="#888" stroke-width="1" opacity="1"/></g><g class="mark-text role-axis-label" pointer-events="none"><text text-anchor="start" transform="translate(0,16)" font-family="Lato" font-size="12px" fill="#000" opacity="1">0</text><text text-anchor="middle" transform="translate(30.599999999999998,16)" font-family="Lato" font-size="12px" fill="#000" opacity="0">100,000</text><text text-anchor="middle" transform="translate(61.199999999999996,16)" font-family="Lato" font-size="12px" fill="#000" opacity="0">200,000</text><text text-anchor="middle" transform="translate(91.80000000000001,16)" font-family="Lato" font-size="12px" fill="#000" opacity="0">300,000</text><text text-anchor="middle" transform="translate(122.39999999999999,16)" font-family="Lato" font-size="12px" fill="#000" opacity="1">400,000</text><text text-anchor="middle" transform="translate(153,16)" font-family="Lato" font-size="12px" fill="#000" opacity="0">500,000</text><text text-anchor="middle" transform="translate(183.60000000000002,16)" font-family="Lato" font-size="12px" fill="#000" opacity="0">600,000</text><text text-anchor="middle" transform="translate(214.20000000000002,16)" font-family="Lato" font-size="12px" fill="#000" opacity="0">700,000</text><text text-anchor="middle" transform="translate(244.79999999999998,16)" font-family="Lato" font-size="12px" fill="#000" opacity="1">800,000</text><text text-anchor="middle" transform="translate(275.4,16)" font-family="Lato" font-size="12px" fill="#000" opacity="0">900,000</text><text text-anchor="middle" transform="translate(306,16)" font-family="Lato" font-size="12px" fill="#000" opacity="0">1,000,000</text><text text-anchor="middle" transform="translate(336.59999999999997,16)" font-family="Lato" font-size="12px" fill="#000" opacity="0">1,100,000</text><text text-anchor="middle" transform="translate(367.20000000000005,16)" font-family="Lato" font-size="12px" fill="#000" opacity="1">1,200,000</text><text text-anchor="middle" transform="translate(397.8,16)" font-family="Lato" font-size="12px" fill="#000" opacity="0">1,300,000</text><text text-anchor="middle" transform="translate(428.40000000000003,16)" font-family="Lato" font-size="12px" fill="#000" opacity="0">1,400,000</text><text text-anchor="middle" transform="translate(459,16)" font-family="Lato" font-size="12px" fill="#000" opacity="0">1,500,000</text><text text-anchor="middle" transform="translate(489.59999999999997,16)" font-family="Lato" font-size="12px" fill="#000" opacity="1">1,600,000</text><text text-anchor="middle" transform="translate(520.1999999999999,16)" font-family="Lato" font-size="12px" fill="#000" opacity="0">1,700,000</text><text text-anchor="middle" transform="translate(550.8,16)" font-family="Lato" font-size="12px" fill="#000" opacity="0">1,800,000</text><text text-anchor="middle" transform="translate(581.4,16)" font-family="Lato" font-size="12px" fill="#000" opacity="0">1,900,000</text><text text-anchor="middle" transform="translate(612,16)" font-family="Lato" font-size="12px" fill="#000" opacity="1">2,000,000</text><text text-anchor="middle" transform="translate(642.5999999999999,16)" font-family="Lato" font-size="12px" fill="#000" opacity="0">2,100,000</text><text text-anchor="middle" transform="translate(673.1999999999999,16)" font-family="Lato" font-size="12px" fill="#000" opacity="0">2,200,000</text><text text-anchor="middle" transform="translate(703.8000000000001,16)" font-family="Lato" font-size="12px" fill="#000" opacity="0">2,300,000</text><text text-anchor="middle" transform="translate(734.4000000000001,16)" font-family="Lato" font-size="12px" fill="#000" opacity="1">2,400,000</text><text text-anchor="middle" transform="translate(765,16)" font-family="Lato" font-size="12px" fill="#000" opacity="0">2,500,000</text><text text-anchor="middle" transform="translate(795.6,16)" font-family="Lato" font-size="12px" fill="#000" opacity="0">2,600,000</text><text text-anchor="middle" transform="translate(826.2,16)" font-family="Lato" font-size="12px" fill="#000" opacity="0">2,700,000</text><text text-anchor="middle" transform="translate(856.8000000000001,16)" font-family="Lato" font-size="12px" fill="#000" opacity="1">2,800,000</text><text text-anchor="middle" transform="translate(887.4,16)" font-family="Lato" font-size="12px" fill="#000" opacity="0">2,900,000</text><text text-anchor="end" transform="translate(918,16)" font-family="Lato" font-size="12px" fill="#000" opacity="0">3,000,000</text></g><g class="mark-rule role-axis-domain" pointer-events="none"><line transform="translate(0,0)" x2="918" y2="0" stroke="#888" stroke-width="1" opacity="1"/></g><g class="mark-text role-axis-title" pointer-events="none"><text text-anchor="middle" transform="translate(459,33)" font-family="Lato" font-size="14px" font-weight="bold" fill="#000" opacity="1">Amount</text></g></g><path class="foreground" aria-hidden="true" d="" pointer-events="none" display="none"/></g></g><g class="mark-group role-axis" role="graphics-symbol" aria-roledescription="axis" aria-label="Y-axis titled 'Country' for a discrete scale with 24 values: Romania, Poland, Italy, Greece, France, ending with Luxembourg"><g transform="translate(0.5,0.5)"><path class="background" aria-hidden="true" d="M0,0h0v0h0Z" pointer-events="none"/><g><g class="mark-rule role-axis-tick" pointer-events="none"><line transform="translate(0,12)" x2="-5" y2="0" stroke="#888" stroke-width="1" opacity="1"/><line transform="translate(0,37)" x2="-5" y2="0" stroke="#888" stroke-width="1" opacity="1"/><line transform="translate(0,62)" x2="-5" y2="0" stroke="#888" stroke-width="1" opacity="1"/><line transform="translate(0,87)" x2="-5" y2="0" stroke="#888" stroke-width="1" opacity="1"/><line transform="translate(0,112)" x2="-5" y2="0" stroke="#888" stroke-width="1" opacity="1"/><line transform="translate(0,137)" x2="-5" y2="0" stroke="#888" stroke-width="1" opacity="1"/><line transform="translate(0,162)" x2="-5" y2="0" stroke="#888" stroke-width="1" opacity="1"/><line transform="translate(0,187)" x2="-5" y2="0" stroke="#888" stroke-width="1" opacity="1"/><line transform="translate(0,212)" x2="-5" y2="0" stroke="#888" stroke-width="1" opacity="1"/><line transform="translate(0,237)" x2="-5" y2="0" stroke="#888" stroke-width="1" opacity="1"/><line transform="translate(0,262)" x2="-5" y2="0" stroke="#888" stroke-width="1" opacity="1"/><line transform="translate(0,287)" x2="-5" y2="0" stroke="#888" stroke-width="1" opacity="1"/><line transform="translate(0,312)" x2="-5" y2="0" stroke="#888" stroke-width="1" opacity="1"/><line transform="translate(0,337)" x2="-5" y2="0" stroke="#888" stroke-width="1" opacity="1"/><line transform="translate(0,362)" x2="-5" y2="0" stroke="#888" stroke-width="1" opacity="1"/><line transform="translate(0,387)" x2="-5" y2="0" stroke="#888" stroke-width="1" opacity="1"/><line transform="translate(0,412)" x2="-5" y2="0" stroke="#888" stroke-width="1" opacity="1"/><line transform="translate(0,437)" x2="-5" y2="0" stroke="#888" stroke-width="1" opacity="1"/><line transform="translate(0,462)" x2="-5" y2="0" stroke="#888" stroke-width="1" opacity="1"/><line transform="translate(0,487)" x2="-5" y2="0" stroke="#888" stroke-width="1" opacity="1"/><line transform="translate(0,512)" x2="-5" y2="0" stroke="#888" stroke-width="1" opacity="1"/><line transform="translate(0,537)" x2="-5" y2="0" stroke="#888" stroke-width="1" opacity="1"/><line transform="translate(0,562)" x2="-5" y2="0" stroke="#888" stroke-width="1" opacity="1"/><line transform="translate(0,587)" x2="-5" y2="0" stroke="#888" stroke-width="1" opacity="1"/></g><g class="mark-text role-axis-label" pointer-events="none"><text text-anchor="end" transform="translate(-7,16)" font-family="Lato" font-size="12px" fill="#000" opacity="1">Romania</text><text text-anchor="end" transform="translate(-7,41)" font-family="Lato" font-size="12px" fill="#000" opacity="1">Poland</text><text text-anchor="end" transform="translate(-7,66)" font-family="Lato" font-size="12px" fill="#000" opacity="1">Italy</text><text text-anchor="end" transform="translate(-7,91)" font-family="Lato" font-size="12px" fill="#000" opacity="1">Greece</text><text text-anchor="end" transform="translate(-7,116)" font-family="Lato" font-size="12px" fill="#000" opacity="1">France</text><text text-anchor="end" transform="translate(-7,141)" font-family="Lato" font-size="12px" fill="#000" opacity="1">Portugal</text><text text-anchor="end" transform="translate(-7,166)" font-family="Lato" font-size="12px" fill="#000" opacity="1">Germany</text><text text-anchor="end" transform="translate(-7,191)" font-family="Lato" font-size="12px" fill="#000" opacity="1">Hungary</text><text text-anchor="end" transform="translate(-7,216)" font-family="Lato" font-size="12px" fill="#000" opacity="1">Croatia</text><text text-anchor="end" transform="translate(-7,241)" font-family="Lato" font-size="12px" fill="#000" opacity="1">Bulgaria</text><text text-anchor="end" transform="translate(-7,266)" font-family="Lato" font-size="12px" fill="#000" opacity="1">Ireland</text><text text-anchor="end" transform="translate(-7,291)" font-family="Lato" font-size="12px" fill="#000" opacity="1">Austria</text><text text-anchor="end" transform="translate(-7,316)" font-family="Lato" font-size="12px" fill="#000" opacity="1">Latvia</text><text text-anchor="end" transform="translate(-7,341)" font-family="Lato" font-size="12px" fill="#000" opacity="1">Sweden</text><text text-anchor="end" transform="translate(-7,366)" font-family="Lato" font-size="12px" fill="#000" opacity="1">Netherlands</text><text text-anchor="end" transform="translate(-7,391)" font-family="Lato" font-size="12px" fill="#000" opacity="1">Finland</text><text text-anchor="end" transform="translate(-7,416)" font-family="Lato" font-size="12px" fill="#000" opacity="1">Denmark</text><text text-anchor="end" transform="translate(-7,441)" font-family="Lato" font-size="12px" fill="#000" opacity="1">Belgium</text><text text-anchor="end" transform="translate(-7,466)" font-family="Lato" font-size="12px" fill="#000" opacity="1">Cyprus</text><text text-anchor="end" transform="translate(-7,491)" font-family="Lato" font-size="12px" fill="#000" opacity="1">Czechia</text><text text-anchor="end" transform="translate(-7,516)" font-family="Lato" font-size="12px" fill="#000" opacity="1">Slovakia</text><text text-anchor="end" transform="translate(-7,541)" font-family="Lato" font-size="12px" fill="#000" opacity="1">Estonia</text><text text-anchor="end" transform="translate(-7,566)" font-family="Lato" font-size="12px" fill="#000" opacity="1">Malta</text><text text-anchor="end" transform="translate(-7,591)" font-family="Lato" font-size="12px" fill="#000" opacity="1">Luxembourg</text></g><g class="mark-rule role-axis-domain" pointer-events="none"><line transform="translate(0,0)" x2="0" y2="600" stroke="#888" stroke-width="1" opacity="1"/></g><g class="mark-text role-axis-title" pointer-events="none"><text text-anchor="middle" transform="translate(-72.76953125,300) rotate(-90) translate(0,-3)" font-family="Lato" font-size="14px" font-weight="bold" fill="#000" opacity="1">Country</text></g></g><path class="foreground" aria-hidden="true" d="" pointer-events="none" display="none"/></g></g><g class="mark-rect role-mark marks" role="graphics-object" aria-roledescription="rect mark container"><path aria-label="Amount: 1967777; Country: Romania; Farm Type: Family only" role="graphics-symbol" aria-roledescription="bar" d="M273.473424,1.25h602.1397619999999v22.5h-602.1397619999999Z" fill="#188FE1"/><path aria-label="Amount: 815995; Country: Poland; Farm Type: Family only" role="graphics-symbol" aria-roledescription="bar" d="M144.14894999999999,26.25h249.69447v22.5h-249.69447Z" fill="#188FE1"/><path aria-label="Amount: 713735; Country: Italy; Farm Type: Family only" role="graphics-symbol" aria-roledescription="bar" d="M116.38526399999999,51.25h218.40290999999996v22.5h-218.40290999999996Z" fill="#188FE1"/><path aria-label="Amount: 178213; Country: Greece; Farm Type: Family only" role="graphics-symbol" aria-roledescription="bar" d="M106.525638,76.25h54.53317800000001v22.5h-54.53317800000001Z" fill="#188FE1"/><path aria-label="Amount: 71084; Country: France; Farm Type: Family only" role="graphics-symbol" aria-roledescription="bar" d="M47.474064,101.25h21.751704000000004v22.5h-21.751704000000004Z" fill="#188FE1"/><path aria-label="Amount: 104508; Country: Portugal; Farm Type: Family only" role="graphics-symbol" aria-roledescription="bar" d="M50.731434,126.25h31.979447999999998v22.5h-31.979447999999998Z" fill="#188FE1"/><path aria-label="Amount: 74500; Country: Germany; Farm Type: Family only" role="graphics-symbol" aria-roledescription="bar" d="M44.314308,151.25h22.79700000000001v22.5h-22.79700000000001Z" fill="#188FE1"/><path aria-label="Amount: 207261; Country: Hungary; Farm Type: Family only" role="graphics-symbol" aria-roledescription="bar" d="M3.9241440000000005,176.25h63.42186600000001v22.5h-63.42186600000001Z" fill="#188FE1"/><path aria-label="Amount: 89600; Country: Croatia; Farm Type: Family only" role="graphics-symbol" aria-roledescription="bar" d="M15.177294,201.25h27.417599999999997v22.5h-27.417599999999997Z" fill="#188FE1"/><path aria-label="Amount: 75199; Country: Bulgaria; Farm Type: Family only" role="graphics-symbol" aria-roledescription="bar" d="M14.052131999999999,226.25h23.010894v22.5h-23.010894Z" fill="#188FE1"/><path aria-label="Amount: 9930; Country: Ireland; Farm Type: Family only" role="graphics-symbol" aria-roledescription="bar" d="M32.577065999999995,251.25h3.038580000000003v22.5h-3.038580000000003Z" fill="#188FE1"/><path aria-label="Amount: 56055; Country: Austria; Farm Type: Family only" role="graphics-symbol" aria-roledescription="bar" d="M15.060096000000001,276.25h17.15283v22.5h-17.15283Z" fill="#188FE1"/><path aria-label="Amount: 37645; Country: Latvia; Farm Type: Family only" role="graphics-symbol" aria-roledescription="bar" d="M8.753436,301.25h11.519370000000002v22.5h-11.519370000000002Z" fill="#188FE1"/><path aria-label="Amount: 44750; Country: Sweden; Farm Type: Family only" role="graphics-symbol" aria-roledescription="bar" d="M2.12517,326.25h13.6935v22.5h-13.6935Z" fill="#188FE1"/><path aria-label="Amount: 10407; Country: Netherlands; Farm Type: Family only" role="graphics-symbol" aria-roledescription="bar" d="M11.208168,351.25h3.1845419999999987v22.5h-3.1845419999999987Z" fill="#188FE1"/><path aria-label="Amount: 16949; Country: Finland; Farm Type: Family only" role="graphics-symbol" aria-roledescription="bar" d="M6.683346,376.25h5.186394v22.5h-5.186394Z" fill="#188FE1"/><path aria-label="Amount: 9317; Country: Denmark; Farm Type: Family only" role="graphics-symbol" aria-roledescription="bar" d="M7.092774,401.25h2.8510019999999994v22.5h-2.8510019999999994Z" fill="#188FE1"/><path aria-label="Amount: 9334; Country: Belgium; Farm Type: Family only" role="graphics-symbol" aria-roledescription="bar" d="M6.14907,426.25h2.856204v22.5h-2.856204Z" fill="#188FE1"/><path aria-label="Amount: 16890; Country: Cyprus; Farm Type: Family only" role="graphics-symbol" aria-roledescription="bar" d="M4.885902,451.25h5.168340000000001v22.5h-5.168340000000001Z" fill="#188FE1"/><path aria-label="Amount: 21859; Country: Czechia; Farm Type: Family only" role="graphics-symbol" aria-roledescription="bar" d="M0.704106,476.25h6.688853999999999v22.5h-6.688853999999999Z" fill="#188FE1"/><path aria-label="Amount: 11054; Country: Slovakia; Farm Type: Family only" role="graphics-symbol" aria-roledescription="bar" d="M1.4810400000000001,501.25h3.382524v22.5h-3.382524Z" fill="#188FE1"/><path aria-label="Amount: 6755; Country: Estonia; Farm Type: Family only" role="graphics-symbol" aria-roledescription="bar" d="M0.201042,526.25h2.06703v22.5h-2.06703Z" fill="#188FE1"/><path aria-label="Amount: 3468; Country: Malta; Farm Type: Family only" role="graphics-symbol" aria-roledescription="bar" d="M1.230732,551.25h1.061208v22.5h-1.061208Z" fill="#188FE1"/><path aria-label="Amount: 927; Country: Luxembourg; Farm Type: Family only" role="graphics-symbol" aria-roledescription="bar" d="M0.25092,576.25h0.283662v22.5h-0.283662Z" fill="#188FE1"/><path aria-label="Amount: 893704; Country: Romania; Farm Type: Family &gt;= 50%" role="graphics-symbol" aria-roledescription="bar" d="M0,1.25h273.473424v22.5h-273.473424Z" fill="#18E169"/><path aria-label="Amount: 471075; Country: Poland; Farm Type: Family &gt;= 50%" role="graphics-symbol" aria-roledescription="bar" d="M0,26.25h144.14894999999999v22.5h-144.14894999999999Z" fill="#18E169"/><path aria-label="Amount: 380344; Country: Italy; Farm Type: Family &gt;= 50%" role="graphics-symbol" aria-roledescription="bar" d="M0,51.25h116.38526399999999v22.5h-116.38526399999999Z" fill="#18E169"/><path aria-label="Amount: 348123; Country: Greece; Farm Type: Family &gt;= 50%" role="graphics-symbol" aria-roledescription="bar" d="M0,76.25h106.525638v22.5h-106.525638Z" fill="#18E169"/><path aria-label="Amount: 155144; Country: France; Farm Type: Family &gt;= 50%" role="graphics-symbol" aria-roledescription="bar" d="M0,101.25h47.474064v22.5h-47.474064Z" fill="#18E169"/><path aria-label="Amount: 165789; Country: Portugal; Farm Type: Family &gt;= 50%" role="graphics-symbol" aria-roledescription="bar" d="M0,126.25h50.731434v22.5h-50.731434Z" fill="#18E169"/><path aria-label="Amount: 144818; Country: Germany; Farm Type: Family &gt;= 50%" role="graphics-symbol" aria-roledescription="bar" d="M0,151.25h44.314308v22.5h-44.314308Z" fill="#18E169"/><path aria-label="Amount: 12824; Country: Hungary; Farm Type: Family &gt;= 50%" role="graphics-symbol" aria-roledescription="bar" d="M0,176.25h3.9241440000000005v22.5h-3.9241440000000005Z" fill="#18E169"/><path aria-label="Amount: 49599; Country: Croatia; Farm Type: Family &gt;= 50%" role="graphics-symbol" aria-roledescription="bar" d="M0,201.25h15.177294v22.5h-15.177294Z" fill="#18E169"/><path aria-label="Amount: 45922; Country: Bulgaria; Farm Type: Family &gt;= 50%" role="graphics-symbol" aria-roledescription="bar" d="M0,226.25h14.052131999999999v22.5h-14.052131999999999Z" fill="#18E169"/><path aria-label="Amount: 106461; Country: Ireland; Farm Type: Family &gt;= 50%" role="graphics-symbol" aria-roledescription="bar" d="M0,251.25h32.577065999999995v22.5h-32.577065999999995Z" fill="#18E169"/><path aria-label="Amount: 49216; Country: Austria; Farm Type: Family &gt;= 50%" role="graphics-symbol" aria-roledescription="bar" d="M0,276.25h15.060096000000001v22.5h-15.060096000000001Z" fill="#18E169"/><path aria-label="Amount: 28606; Country: Latvia; Farm Type: Family &gt;= 50%" role="graphics-symbol" aria-roledescription="bar" d="M0,301.25h8.753436v22.5h-8.753436Z" fill="#18E169"/><path aria-label="Amount: 6945; Country: Sweden; Farm Type: Family &gt;= 50%" role="graphics-symbol" aria-roledescription="bar" d="M0,326.25h2.12517v22.5h-2.12517Z" fill="#18E169"/><path aria-label="Amount: 36628; Country: Netherlands; Farm Type: Family &gt;= 50%" role="graphics-symbol" aria-roledescription="bar" d="M0,351.25h11.208168v22.5h-11.208168Z" fill="#18E169"/><path aria-label="Amount: 21841; Country: Finland; Farm Type: Family &gt;= 50%" role="graphics-symbol" aria-roledescription="bar" d="M0,376.25h6.683346v22.5h-6.683346Z" fill="#18E169"/><path aria-label="Amount: 23179; Country: Denmark; Farm Type: Family &gt;= 50%" role="graphics-symbol" aria-roledescription="bar" d="M0,401.25h7.092774v22.5h-7.092774Z" fill="#18E169"/><path aria-label="Amount: 20095; Country: Belgium; Farm Type: Family &gt;= 50%" role="graphics-symbol" aria-roledescription="bar" d="M0,426.25h6.14907v22.5h-6.14907Z" fill="#18E169"/><path aria-label="Amount: 15967; Country: Cyprus; Farm Type: Family &gt;= 50%" role="graphics-symbol" aria-roledescription="bar" d="M0,451.25h4.885902v22.5h-4.885902Z" fill="#18E169"/><path aria-label="Amount: 2301; Country: Czechia; Farm Type: Family &gt;= 50%" role="graphics-symbol" aria-roledescription="bar" d="M0,476.25h0.704106v22.5h-0.704106Z" fill="#18E169"/><path aria-label="Amount: 4840; Country: Slovakia; Farm Type: Family &gt;= 50%" role="graphics-symbol" aria-roledescription="bar" d="M0,501.25h1.4810400000000001v22.5h-1.4810400000000001Z" fill="#18E169"/><path aria-label="Amount: 657; Country: Estonia; Farm Type: Family &gt;= 50%" role="graphics-symbol" aria-roledescription="bar" d="M0,526.25h0.201042v22.5h-0.201042Z" fill="#18E169"/><path aria-label="Amount: 4022; Country: Malta; Farm Type: Family &gt;= 50%" role="graphics-symbol" aria-roledescription="bar" d="M0,551.25h1.230732v22.5h-1.230732Z" fill="#18E169"/><path aria-label="Amount: 820; Country: Luxembourg; Farm Type: Family &gt;= 50%" role="graphics-symbol" aria-roledescription="bar" d="M0,576.25h0.25092v22.5h-0.25092Z" fill="#18E169"/><path aria-label="Amount: 25586; Country: Romania; Farm Type: Non-family" role="graphics-symbol" aria-roledescription="bar" d="M875.6131859999999,1.25h7.829316000000176v22.5h-7.829316000000176Z" fill="#18E1CE"/><path aria-label="Amount: 14419; Country: Poland; Farm Type: Non-family" role="graphics-symbol" aria-roledescription="bar" d="M393.84342,26.25h4.412214000000006v22.5h-4.412214000000006Z" fill="#18E1CE"/><path aria-label="Amount: 36449; Country: Italy; Farm Type: Non-family" role="graphics-symbol" aria-roledescription="bar" d="M334.78817399999997,51.25h11.153394000000048v22.5h-11.153394000000048Z" fill="#18E1CE"/><path aria-label="Amount: 4343; Country: Greece; Farm Type: Non-family" role="graphics-symbol" aria-roledescription="bar" d="M161.058816,76.25h1.328958v22.5h-1.328958Z" fill="#18E1CE"/><path aria-label="Amount: 166797; Country: France; Farm Type: Non-family" role="graphics-symbol" aria-roledescription="bar" d="M69.225768,101.25h51.039882000000006v22.5h-51.039882000000006Z" fill="#18E1CE"/><path aria-label="Amount: 19932; Country: Portugal; Farm Type: Non-family" role="graphics-symbol" aria-roledescription="bar" d="M82.710882,126.25h6.099192000000002v22.5h-6.099192000000002Z" fill="#18E1CE"/><path aria-label="Amount: 43917; Country: Germany; Farm Type: Non-family" role="graphics-symbol" aria-roledescription="bar" d="M67.11130800000001,151.25h13.438601999999989v22.5h-13.438601999999989Z" fill="#18E1CE"/><path aria-label="Amount: 12003; Country: Hungary; Farm Type: Non-family" role="graphics-symbol" aria-roledescription="bar" d="M67.34601,176.25h3.6729179999999957v22.5h-3.6729179999999957Z" fill="#18E1CE"/><path aria-label="Amount: 4720; Country: Croatia; Farm Type: Non-family" role="graphics-symbol" aria-roledescription="bar" d="M42.594894,201.25h1.4443200000000047v22.5h-1.4443200000000047Z" fill="#18E1CE"/><path aria-label="Amount: 11621; Country: Bulgaria; Farm Type: Non-family" role="graphics-symbol" aria-roledescription="bar" d="M37.063026,226.25h3.5560259999999957v22.5h-3.5560259999999957Z" fill="#18E1CE"/><path aria-label="Amount: 13824; Country: Ireland; Farm Type: Non-family" role="graphics-symbol" aria-roledescription="bar" d="M35.615646,251.25h4.230144000000003v22.5h-4.230144000000003Z" fill="#18E1CE"/><path aria-label="Amount: 5510; Country: Austria; Farm Type: Non-family" role="graphics-symbol" aria-roledescription="bar" d="M32.212926,276.25h1.6860599999999977v22.5h-1.6860599999999977Z" fill="#18E1CE"/><path aria-label="Amount: 2732; Country: Latvia; Farm Type: Non-family" role="graphics-symbol" aria-roledescription="bar" d="M20.272806000000003,301.25h0.8359919999999974v22.5h-0.8359919999999974Z" fill="#18E1CE"/><path aria-label="Amount: 7095; Country: Sweden; Farm Type: Non-family" role="graphics-symbol" aria-roledescription="bar" d="M15.81867,326.25h2.1710699999999985v22.5h-2.1710699999999985Z" fill="#18E1CE"/><path aria-label="Amount: 5606; Country: Netherlands; Farm Type: Non-family" role="graphics-symbol" aria-roledescription="bar" d="M14.39271,351.25h1.7154360000000022v22.5h-1.7154360000000022Z" fill="#18E1CE"/><path aria-label="Amount: 6840; Country: Finland; Farm Type: Non-family" role="graphics-symbol" aria-roledescription="bar" d="M11.86974,376.25h2.0930400000000002v22.5h-2.0930400000000002Z" fill="#18E1CE"/><path aria-label="Amount: 4592; Country: Denmark; Farm Type: Non-family" role="graphics-symbol" aria-roledescription="bar" d="M9.943776,401.25h1.4051519999999993v22.5h-1.4051519999999993Z" fill="#18E1CE"/><path aria-label="Amount: 6567; Country: Belgium; Farm Type: Non-family" role="graphics-symbol" aria-roledescription="bar" d="M9.005274,426.25h2.0095019999999995v22.5h-2.0095019999999995Z" fill="#18E1CE"/><path aria-label="Amount: 1189; Country: Cyprus; Farm Type: Non-family" role="graphics-symbol" aria-roledescription="bar" d="M10.054242,451.25h0.3638339999999989v22.5h-0.3638339999999989Z" fill="#18E1CE"/><path aria-label="Amount: 4749; Country: Czechia; Farm Type: Non-family" role="graphics-symbol" aria-roledescription="bar" d="M7.3929599999999995,476.25h1.4531940000000008v22.5h-1.4531940000000008Z" fill="#18E1CE"/><path aria-label="Amount: 3738; Country: Slovakia; Farm Type: Non-family" role="graphics-symbol" aria-roledescription="bar" d="M4.863564,501.25h1.143828v22.5h-1.143828Z" fill="#18E1CE"/><path aria-label="Amount: 3957; Country: Estonia; Farm Type: Non-family" role="graphics-symbol" aria-roledescription="bar" d="M2.268072,526.25h1.210842v22.5h-1.210842Z" fill="#18E1CE"/><path aria-label="Amount: 160; Country: Malta; Farm Type: Non-family" role="graphics-symbol" aria-roledescription="bar" d="M2.29194,551.25h0.048960000000000115v22.5h-0.048960000000000115Z" fill="#18E1CE"/><path aria-label="Amount: 134; Country: Luxembourg; Farm Type: Non-family" role="graphics-symbol" aria-roledescription="bar" d="M0.534582,576.25h0.04100399999999993v22.5h-0.04100399999999993Z" fill="#18E1CE"/></g><g class="mark-group role-legend" role="graphics-symbol" aria-roledescription="legend" aria-label="Symbol legend titled 'Farm Type' for fill color with 3 values: Family &gt;= 50%, Family only, Non-family"><g transform="translate(936,0)"><path class="background" aria-hidden="true" d="M0,0h83v53h-83Z" pointer-events="none"/><g><g class="mark-group role-legend-entry"><g transform="translate(0,16)"><path class="background" aria-hidden="true" d="M0,0h0v0h0Z" pointer-events="none"/><g><g class="mark-group role-scope" role="graphics-object" aria-roledescription="group mark container"><g transform="translate(0,0)"><path class="background" aria-hidden="true" d="M0,0h82.6943359375v11h-82.6943359375Z" pointer-events="none" opacity="1"/><g><g class="mark-symbol role-legend-symbol" pointer-events="none"><path transform="translate(6,6)" d="M-5,-5h10v10h-10Z" fill="#18E169" stroke-width="1.5" opacity="1"/></g><g class="mark-text role-legend-label" pointer-events="none"><text text-anchor="start" transform="translate(16,9)" font-family="sans-serif" font-size="10px" fill="#000" opacity="1">Family &gt;= 50%</text></g></g><path class="foreground" aria-hidden="true" d="" pointer-events="none" display="none"/></g><g transform="translate(0,13)"><path class="background" aria-hidden="true" d="M0,0h82.6943359375v11h-82.6943359375Z" pointer-events="none" opacity="1"/><g><g class="mark-symbol role-legend-symbol" pointer-events="none"><path transform="translate(6,6)" d="M-5,-5h10v10h-10Z" fill="#188FE1" stroke-width="1.5" opacity="1"/></g><g class="mark-text role-legend-label" pointer-events="none"><text text-anchor="start" transform="translate(16,9)" font-family="sans-serif" font-size="10px" fill="#000" opacity="1">Family only</text></g></g><path class="foreground" aria-hidden="true" d="" pointer-events="none" display="none"/></g><g transform="translate(0,26)"><path class="background" aria-hidden="true" d="M0,0h82.6943359375v11h-82.6943359375Z" pointer-events="none" opacity="1"/><g><g class="mark-symbol role-legend-symbol" pointer-events="none"><path transform="translate(6,6)" d="M-5,-5h10v10h-10Z" fill="#18E1CE" stroke-width="1.5" opacity="1"/></g><g class="mark-text role-legend-label" pointer-events="none"><text text-anchor="start" transform="translate(16,9)" font-family="sans-serif" font-size="10px" fill="#000" opacity="1">Non-family</text></g></g><path class="foreground" aria-hidden="true" d="" pointer-events="none" display="none"/></g></g></g><path class="foreground" aria-hidden="true" d="" pointer-events="none" display="none"/></g></g><g class="mark-text role-legend-title" pointer-events="none"><text text-anchor="start" transform="translate(0,9)" font-family="sans-serif" font-size="11px" font-weight="bold" fill="#000" opacity="1">Farm Type</text></g></g><path class="foreground" aria-hidden="true" d="" pointer-events="none" display="none"/></g></g><g class="mark-group role-title"><g transform="translate(-86.76953125,-24)"><path class="background" aria-hidden="true" d="M0,0h0v0h0Z" pointer-events="none"/><g><g class="mark-text role-title-text" role="graphics-symbol" aria-roledescription="title" aria-label="Title text 'Tipologie di realtà agricole in Europa'" pointer-events="none"><text text-anchor="start" transform="translate(0,16)" font-family="Lato" font-size="20px" font-weight="bold" fill="black" opacity="1">Tipologie di realtà agricole in Europa</text></g></g><path class="foreground" aria-hidden="true" d="" pointer-events="none" display="none"/></g></g></g><path class="foreground" aria-hidden="true" d="" display="none"/></g></g></g></svg>