<svg xmlns="http://www.w3.org/2000/svg" width="1100" height="1100"><rect width="1100" height="1100" x="0" y="0" fill="#121212" id="background"/><g transform="translate(20,20)" id="viz"><g id="nodes"><g transform="translate(531,531)"><path id="p_1591" d="M-9.735942053221457e-14,530A530,530,0,1,1,9.735942053221457e-14,-530A530,530,0,1,1,-9.735942053221457e-14,530Z" fill="none" stroke="#ccc"/></g><g transform="translate(375.59932442634874,539.2931401476258)" id="Italia"><path id="p_1072.307455908303" d="M-2.9100361811181146e-14,158.41499133432842A158.41499133432842,158.41499133432842,0,1,1,2.9100361811181146e-14,-158.41499133432842A158.41499133432842,158.41499133432842,0,1,1,-2.9100361811181146e-14,158.41499133432842Z" fill="rgb(24, 225, 105)" stroke="none"/></g><g transform="translate(688.8217796107538,539.2931401476258)" id="Agricoltura"><path id="p_1379.9595780307584" d="M-2.807710822800596e-14,152.8446582723788A152.8446582723788,152.8446582723788,0,1,1,2.807710822800596e-14,-152.8446582723788A152.8446582723788,152.8446582723788,0,1,1,-2.807710822800596e-14,152.8446582723788Z" fill="rgb(37, 225, 112)" stroke="none"/></g><g transform="translate(537.1021419234431,765.3744974450063)" id="Dio"><path id="p_1418.940416337881" d="M-2.1577745772205966e-14,117.46377696943169A117.46377696943169,117.46377696943169,0,1,1,2.1577745772205966e-14,-117.46377696943169A117.46377696943169,117.46377696943169,0,1,1,-2.1577745772205966e-14,117.46377696943169Z" fill="rgb(107, 223, 153)" stroke="none"/></g><g transform="translate(536.8462864942978,330.94775993066764)" id="Europa"><path id="p_969.8709519456182" d="M-1.8934920361782234e-14,103.07690552065279A103.07690552065279,103.07690552065279,0,1,1,1.8934920361782234e-14,-103.07690552065279A103.07690552065279,103.07690552065279,0,1,1,-1.8934920361782234e-14,103.07690552065279Z" fill="rgb(131, 222, 167)" stroke="none"/></g><g transform="translate(341.4495556018728,285.6696729323329)" id="Roma"><path id="p_721.6536623441048" d="M-1.7549390786047134e-14,95.53443380989906A95.53443380989906,95.53443380989906,0,1,1,1.7549390786047134e-14,-95.53443380989906A95.53443380989906,95.53443380989906,0,1,1,-1.7549390786047134e-14,95.53443380989906Z" fill="rgb(142, 222, 173)" stroke="none"/></g><g transform="translate(728.0621199247018,298.8076921784115)" id="Agricoltore"><path id="p_1114.7282157702336" d="M-1.632302394424232e-14,88.85840366712016A88.85840366712016,88.85840366712016,0,1,1,1.632302394424232e-14,-88.85840366712016A88.85840366712016,88.85840366712016,0,1,1,-1.632302394424232e-14,88.85840366712016Z" fill="rgb(151, 221, 179)" stroke="none"/></g><g transform="translate(338.384042264716,776.3627672518958)" id="Politica"><path id="p_1193.3418971597528" d="M-1.4621380396503843e-14,79.59508764314097A79.59508764314097,79.59508764314097,0,1,1,1.4621380396503843e-14,-79.59508764314097A79.59508764314097,79.59508764314097,0,1,1,-1.4621380396503843e-14,79.59508764314097Z" fill="rgb(162, 221, 185)" stroke="none"/></g><g transform="translate(733.7516500585824,766.9382446819445)" id="Unione europea"><path id="p_1576.9190376508916" d="M-1.4186763399910708e-14,77.2291429103645A77.2291429103645,77.2291429103645,0,1,1,1.4186763399910708e-14,-77.2291429103645A77.2291429103645,77.2291429103645,0,1,1,-1.4186763399910708e-14,77.2291429103645Z" fill="rgb(165, 221, 187)" stroke="none"/></g><g transform="translate(197.83550475894134,383.2721850004021)" id="Italiani"><path id="p_656.2515916992376" d="M-1.3987407867792193e-14,76.14390193989414A76.14390193989414,76.14390193989414,0,1,1,1.3987407867792193e-14,-76.14390193989414A76.14390193989414,76.14390193989414,0,1,1,-1.3987407867792193e-14,76.14390193989414Z" fill="rgb(166, 221, 188)" stroke="none"/></g><g transform="translate(210.9379006619281,697.7828749147208)" id="Sindacato"><path id="p_975.8870236596088" d="M-1.2521936628702188e-14,68.16624808295991A68.16624808295991,68.16624808295991,0,1,1,1.2521936628702188e-14,-68.16624808295991A68.16624808295991,68.16624808295991,0,1,1,-1.2521936628702188e-14,68.16624808295991Z" fill="rgb(175, 221, 193)" stroke="none"/></g><g transform="translate(850.6717245257045,392.66229461056594)" id="Suolo"><path id="p_1305.92071622436" d="M-1.1680686758592192e-14,63.58669708808963A63.58669708808963,63.58669708808963,0,1,1,1.1680686758592192e-14,-63.58669708808963A63.58669708808963,63.58669708808963,0,1,1,-1.1680686758592192e-14,63.58669708808963Z" fill="rgb(179, 221, 195)" stroke="none"/></g><g transform="translate(847.799769976151,685.3157451097281)" id="Lavoro"><path id="p_1593.1705134207282" d="M-1.1215621242408009e-14,61.05499833484921A61.05499833484921,61.05499833484921,0,1,1,1.1215621242408009e-14,-61.05499833484921A61.05499833484921,61.05499833484921,0,1,1,-1.1215621242408009e-14,61.05499833484921Z" fill="rgb(181, 221, 197)" stroke="none"/></g><g transform="translate(461.9942947113724,182.67560533706927)" id="Facebook"><path id="p_704.7248983832908" d="M-1.1215621242408009e-14,61.05499833484921A61.05499833484921,61.05499833484921,0,1,1,1.1215621242408009e-14,-61.05499833484921A61.05499833484921,61.05499833484921,0,1,1,-1.1215621242408009e-14,61.05499833484921Z" fill="rgb(181, 221, 197)" stroke="none"/></g><g transform="translate(623.3098618280562,190.7499384118908)" id="Bruxelles"><path id="p_872.7361448802745" d="M-1.0962366667288718e-14,59.676344640327564A59.676344640327564,59.676344640327564,0,1,1,1.0962366667288718e-14,-59.676344640327564A59.676344640327564,59.676344640327564,0,1,1,-1.0962366667288718e-14,59.676344640327564Z" fill="rgb(182, 221, 197)" stroke="none"/></g><g transform="translate(414.16917787847245,895.0234611490552)" id="Francia"><path id="p_1367.4315748056076" d="M-1.0882015962828213e-14,59.238935778080105A59.238935778080105,59.238935778080105,0,1,1,1.0882015962828213e-14,-59.238935778080105A59.238935778080105,59.238935778080105,0,1,1,-1.0882015962828213e-14,59.238935778080105Z" fill="rgb(183, 221, 197)" stroke="none"/></g><g transform="translate(666.3414128673672,884.5745883719644)" id="Governo"><path id="p_1606.3059447388516" d="M-1.0358664571618047e-14,56.38994349951977A56.38994349951977,56.38994349951977,0,1,1,1.0358664571618047e-14,-56.38994349951977A56.38994349951977,56.38994349951977,0,1,1,-1.0358664571618047e-14,56.38994349951977Z" fill="rgb(185, 220, 199)" stroke="none"/></g><g transform="translate(165.0148579205378,581.9424033413118)" id="Euro"><path id="p_800.4393656448331" d="M-1.000820021151491e-14,54.48210438298351A54.48210438298351,54.48210438298351,0,1,1,1.000820021151491e-14,-54.48210438298351A54.48210438298351,54.48210438298351,0,1,1,-1.000820021151491e-14,54.48210438298351Z" fill="rgb(187, 220, 200)" stroke="none"/></g><g transform="translate(894.0828814680674,577.8021608997782)" id="Germania"><path id="p_1524.919778791009" d="M-9.926020050509739e-15,54.03473642316365A54.03473642316365,54.03473642316365,0,1,1,9.926020050509739e-15,-54.03473642316365A54.03473642316365,54.03473642316365,0,1,1,-9.926020050509739e-15,54.03473642316365Z" fill="rgb(187, 220, 200)" stroke="none"/></g><g transform="translate(935.2434136443235,476.3848985872421)" id="Alimento"><path id="p_1464.0823600044591" d="M-9.819349275981568e-15,53.454047772893546A53.454047772893546,53.454047772893546,0,1,1,9.819349275981568e-15,-53.454047772893546A53.454047772893546,53.454047772893546,0,1,1,-9.819349275981568e-15,53.454047772893546Z" fill="rgb(188, 220, 200)" stroke="none"/></g><g transform="translate(117.71062106116432,485.02164023494055)" id="Coldiretti"><path id="p_653.1359727729229" d="M-9.44270860865689e-15,51.40371147681804A51.40371147681804,51.40371147681804,0,1,1,9.44270860865689e-15,-51.40371147681804A51.40371147681804,51.40371147681804,0,1,1,-9.44270860865689e-15,51.40371147681804Z" fill="rgb(189, 220, 201)" stroke="none"/></g><g transform="translate(547.611358887029,107.02262950064886)" id="Letame"><path id="p_704.8687749532663" d="M-9.411677605881858e-15,51.23478656558846A51.23478656558846,51.23478656558846,0,1,1,9.411677605881858e-15,-51.23478656558846A51.23478656558846,51.23478656558846,0,1,1,-9.411677605881858e-15,51.23478656558846Z" fill="rgb(189, 220, 201)" stroke="none"/></g><g transform="translate(517.8448415414597,932.8600581523583)" id="Frutta"><path id="p_1498.8673341776266" d="M-9.030992704333186e-15,49.1624344838088A49.1624344838088,49.1624344838088,0,1,1,9.030992704333186e-15,-49.1624344838088A49.1624344838088,49.1624344838088,0,1,1,-9.030992704333186e-15,49.1624344838088Z" fill="rgb(191, 220, 202)" stroke="none"/></g><g transform="translate(608.6360218684993,975.1242698046501)" id="Triticum"><path id="p_1631.7814545014458" d="M-9.005041522223167e-15,49.02116282829644A49.02116282829644,49.02116282829644,0,1,1,9.005041522223167e-15,-49.02116282829644A49.02116282829644,49.02116282829644,0,1,1,-9.005041522223167e-15,49.02116282829644Z" fill="rgb(191, 220, 202)" stroke="none"/></g><g transform="translate(858.2267845242075,796.6191622051404)" id="Verdura"><path id="p_1702.6188995433777" d="M-8.959446082299978e-15,48.772952814029836A48.772952814029836,48.772952814029836,0,1,1,8.959446082299978e-15,-48.772952814029836A48.772952814029836,48.772952814029836,0,1,1,-8.959446082299978e-15,48.772952814029836Z" fill="rgb(191, 220, 202)" stroke="none"/></g><g transform="translate(214.81709553345945,816.0851188222728)" id="Roma (città antica)"><path id="p_1078.1389879697285" d="M-8.860951561136408e-15,48.236773613996284A48.236773613996284,48.236773613996284,0,1,1,8.860951561136408e-15,-48.236773613996284A48.236773613996284,48.236773613996284,0,1,1,-8.860951561136408e-15,48.236773613996284Z" fill="rgb(192, 220, 203)" stroke="none"/></g><g transform="translate(864.6603062303907,281.06111651456524)" id="Produzione"><path id="p_1191.6463766038564" d="M-8.619974181516e-15,46.92495385890072A46.92495385890072,46.92495385890072,0,1,1,8.619974181516e-15,-46.92495385890072A46.92495385890072,46.92495385890072,0,1,1,-8.619974181516e-15,46.92495385890072Z" fill="rgb(193, 220, 203)" stroke="none"/></g><g transform="translate(200.20550394140804,258.93296780400664)" id="Popolo"><path id="p_504.39356635828926" d="M-8.496923034287224e-15,46.25509461287458A46.25509461287458,46.25509461287458,0,1,1,8.496923034287224e-15,-46.25509461287458A46.25509461287458,46.25509461287458,0,1,1,-8.496923034287224e-15,46.25509461287458Z" fill="rgb(193, 220, 203)" stroke="none"/></g><g transform="translate(727.1439060327741,161.8470548714805)" id="Terra"><path id="p_934.1334668845723" d="M-8.476240838015037e-15,46.14250598031763A46.14250598031763,46.14250598031763,0,1,1,8.476240838015037e-15,-46.14250598031763A46.14250598031763,46.14250598031763,0,1,1,-8.476240838015037e-15,46.14250598031763Z" fill="rgb(193, 220, 203)" stroke="none"/></g><g transform="translate(360.9169696657503,144.46846121029114)" id="Vita"><path id="p_549.4250723372526" d="M-8.273647912532502e-15,45.039641461211176A45.039641461211176,45.039641461211176,0,1,1,8.273647912532502e-15,-45.039641461211176A45.039641461211176,45.039641461211176,0,1,1,-8.273647912532502e-15,45.039641461211176Z" fill="rgb(194, 220, 204)" stroke="none"/></g><g transform="translate(769.6878058131704,885.8184926149819)" id="Multinazionale"><path id="p_1699.507428004201" d="M-8.266573393998536e-15,45.0011295760489A45.0011295760489,45.0011295760489,0,1,1,8.266573393998536e-15,-45.0011295760489A45.0011295760489,45.0011295760489,0,1,1,-8.266573393998536e-15,45.0011295760489Z" fill="rgb(194, 220, 204)" stroke="none"/></g><g transform="translate(309.18865280402144,898.3044057849609)" id="Insecta"><path id="p_1250.3230992927856" d="M-8.051447858161603e-15,43.830040703803114A43.830040703803114,43.830040703803114,0,1,1,8.051447858161603e-15,-43.830040703803114A43.830040703803114,43.830040703803114,0,1,1,-8.051447858161603e-15,43.830040703803114Z" fill="rgb(195, 220, 204)" stroke="none"/></g><g transform="translate(949.7329512223423,658.8299631922955)" id="Trattore agricolo"><path id="p_1649.8630580834347" d="M-7.77041033211978e-15,42.300143668796814A42.300143668796814,42.300143668796814,0,1,1,7.77041033211978e-15,-42.300143668796814A42.300143668796814,42.300143668796814,0,1,1,-7.77041033211978e-15,42.300143668796814Z" fill="rgb(196, 220, 205)" stroke="none"/></g><g transform="translate(104.9377398908469,660.3090129753588)" id="Supermercato"><path id="p_806.5468965350026" d="M-7.77041033211978e-15,42.300143668796814A42.300143668796814,42.300143668796814,0,1,1,7.77041033211978e-15,-42.300143668796814A42.300143668796814,42.300143668796814,0,1,1,-7.77041033211978e-15,42.300143668796814Z" fill="rgb(196, 220, 205)" stroke="none"/></g><g transform="translate(858.7908335399254,889.5712962977486)" id="Olio di oliva"><path id="p_1789.5802168944394" d="M-7.755336777028826e-15,42.218087056765505A42.218087056765505,42.218087056765505,0,1,1,7.755336777028826e-15,-42.218087056765505A42.218087056765505,42.218087056765505,0,1,1,-7.755336777028826e-15,42.218087056765505Z" fill="rgb(196, 220, 205)" stroke="none"/></g><g transform="translate(222.47801037998943,907.3523102641827)" id="Famiglia"><path id="p_1170.218894889372" d="M-7.602957745598501e-15,41.38857424519993A41.38857424519993,41.38857424519993,0,1,1,7.602957745598501e-15,-41.38857424519993A41.38857424519993,41.38857424519993,0,1,1,-7.602957745598501e-15,41.38857424519993Z" fill="rgb(196, 220, 205)" stroke="none"/></g><g transform="translate(956.6557660841966,382.45248775827025)" id="Tradizione"><path id="p_1379.0334299554077" d="M-7.517832889688188e-15,40.92517611294074A40.92517611294074,40.92517611294074,0,1,1,7.517832889688188e-15,-40.92517611294074A40.92517611294074,40.92517611294074,0,1,1,-7.517832889688188e-15,40.92517611294074Z" fill="rgb(196, 220, 205)" stroke="none"/></g><g transform="translate(447.4456392692347,990.3488558648411)" id="Verità"><path id="p_1476.5593510291276" d="M-7.304685523564653e-15,39.76485589505186A39.76485589505186,39.76485589505186,0,1,1,7.304685523564653e-15,-39.76485589505186A39.76485589505186,39.76485589505186,0,1,1,-7.304685523564653e-15,39.76485589505186Z" fill="rgb(197, 220, 206)" stroke="none"/></g><g transform="translate(818.8806841119608,206.01846244889003)" id="Prezzo"><path id="p_1062.9157313316168" d="M-7.167230347976988e-15,39.01658477076598A39.01658477076598,39.01658477076598,0,1,1,7.167230347976988e-15,-39.01658477076598A39.01658477076598,39.01658477076598,0,1,1,-7.167230347976988e-15,39.01658477076598Z" fill="rgb(198, 220, 206)" stroke="none"/></g><g transform="translate(931.0502142671287,744.2335556005435)" id="Provincia di Siena"><path id="p_1713.2558912795257" d="M-7.15906256145128e-15,38.97212141185359A38.97212141185359,38.97212141185359,0,1,1,7.15906256145128e-15,-38.97212141185359A38.97212141185359,38.97212141185359,0,1,1,-7.15906256145128e-15,38.97212141185359Z" fill="rgb(198, 220, 206)" stroke="none"/></g><g transform="translate(806.8752175994211,127.06355823072494)" id="Allevamento"><path id="p_971.8218179908624" d="M-7.142698968484909e-15,38.88304216071624A38.88304216071624,38.88304216071624,0,1,1,7.142698968484909e-15,-38.88304216071624A38.88304216071624,38.88304216071624,0,1,1,-7.142698968484909e-15,38.88304216071624Z" fill="rgb(198, 220, 206)" stroke="none"/></g><g transform="translate(985.1530601076736,555.1664473502157)" id="Libertà"><path id="p_1577.1630703383516" d="M-6.951749722483459e-15,37.84356288046229A37.84356288046229,37.84356288046229,0,1,1,6.951749722483459e-15,-37.84356288046229A37.84356288046229,37.84356288046229,0,1,1,-6.951749722483459e-15,37.84356288046229Z" fill="rgb(198, 220, 206)" stroke="none"/></g><g transform="translate(73.50419931481235,563.686882800278)" id="Sicilia"><path id="p_673.0599689300077" d="M-6.772704633902195e-15,36.86888681491739A36.86888681491739,36.86888681491739,0,1,1,6.772704633902195e-15,-36.86888681491739A36.86888681491739,36.86888681491739,0,1,1,-6.772704633902195e-15,36.86888681491739Z" fill="rgb(199, 220, 207)" stroke="none"/></g><g transform="translate(138.42103147653836,775.6180495255985)" id="Corruzione"><path id="p_949.2914670908864" d="M-6.659455287756163e-15,36.25238608874948A36.25238608874948,36.25238608874948,0,1,1,6.659455287756163e-15,-36.25238608874948A36.25238608874948,36.25238608874948,0,1,1,-6.659455287756163e-15,36.25238608874948Z" fill="rgb(199, 220, 207)" stroke="none"/></g><g transform="translate(281.3259278115788,166.84337388322768)" id="Carne"><path id="p_482.84315513284196" d="M-6.55318056392129e-15,35.673853438035465A35.673853438035465,35.673853438035465,0,1,1,6.55318056392129e-15,-35.673853438035465A35.673853438035465,35.673853438035465,0,1,1,-6.55318056392129e-15,35.673853438035465Z" fill="rgb(199, 220, 207)" stroke="none"/></g><g transform="translate(944.8343918651701,305.53033969236094)" id="Economia"><path id="p_1284.3019498441488" d="M-6.4178628818728315e-15,34.937218286617814A34.937218286617814,34.937218286617814,0,1,1,6.4178628818728315e-15,-34.937218286617814A34.937218286617814,34.937218286617814,0,1,1,-6.4178628818728315e-15,34.937218286617814Z" fill="rgb(200, 220, 207)" stroke="none"/></g><g transform="translate(87.27808362241615,402.92974901905484)" id="Mondo"><path id="p_523.3925459515915" d="M-6.279629960251348e-15,34.1847133101205A34.1847133101205,34.1847133101205,0,1,1,6.279629960251348e-15,-34.1847133101205A34.1847133101205,34.1847133101205,0,1,1,-6.279629960251348e-15,34.1847133101205Z" fill="rgb(200, 220, 207)" stroke="none"/></g><g transform="translate(210.4872797809981,177.37941322228204)" id="Strada"><path id="p_420.8479240692478" d="M-6.242250878403592e-15,33.981231065967705A33.981231065967705,33.981231065967705,0,1,1,6.242250878403592e-15,-33.981231065967705A33.981231065967705,33.981231065967705,0,1,1,-6.242250878403592e-15,33.981231065967705Z" fill="rgb(200, 220, 208)" stroke="none"/></g><g transform="translate(667.2578513626593,106.2319278360373)" id="Denaro"><path id="p_806.1119532200165" d="M-6.176293169337703e-15,33.622174021319886A33.622174021319886,33.622174021319886,0,1,1,6.176293169337703e-15,-33.622174021319886A33.622174021319886,33.622174021319886,0,1,1,-6.176293169337703e-15,33.622174021319886Z" fill="rgb(200, 220, 208)" stroke="none"/></g><g transform="translate(726.6052627536257,952.8048671538354)" id="Pesticida"><path id="p_1711.0909051263252" d="M-6.003361014815444e-15,32.68077521886429A32.68077521886429,32.68077521886429,0,1,1,6.003361014815444e-15,-32.68077521886429A32.68077521886429,32.68077521886429,0,1,1,-6.003361014815444e-15,32.68077521886429Z" fill="rgb(201, 220, 208)" stroke="none"/></g><g transform="translate(618.4181568327153,58.9950196685117)" id="Pasqua"><path id="p_708.7740669386251" d="M-5.944599133757635e-15,32.360890437397934A32.360890437397934,32.360890437397934,0,1,1,5.944599133757635e-15,-32.360890437397934A32.360890437397934,32.360890437397934,0,1,1,-5.944599133757635e-15,32.360890437397934Z" fill="rgb(201, 220, 208)" stroke="none"/></g></g><g id="labels"><g transform="translate(375.59932442634874,539.2931401476258)"><text text-anchor="middle" dominant-baseline="text-before-edge" transform="translate(0,-11.600000381469727)"><tspan x="0" y="0" dy="0" style="font-family: Arial, sans-serif; font-size: 10px; fill: black; font-weight: bold;">Italia</tspan><tspan x="0" y="0" dy="12" style="font-family: Arial, sans-serif; font-size: 10px; fill: black; font-weight: normal;">7237</tspan></text></g><g transform="translate(688.8217796107538,539.2931401476258)"><text text-anchor="middle" dominant-baseline="text-before-edge" transform="translate(0,-11.600000381469727)"><tspan x="0" y="0" dy="0" style="font-family: Arial, sans-serif; font-size: 10px; fill: black; font-weight: bold;">Agricoltura</tspan><tspan x="0" y="0" dy="12" style="font-family: Arial, sans-serif; font-size: 10px; fill: black; font-weight: normal;">6737</tspan></text></g><g transform="translate(537.1021419234431,765.3744974450063)"><text text-anchor="middle" dominant-baseline="text-before-edge" transform="translate(0,-11.600000381469727)"><tspan x="0" y="0" dy="0" style="font-family: Arial, sans-serif; font-size: 10px; fill: black; font-weight: bold;">Dio</tspan><tspan x="0" y="0" dy="12" style="font-family: Arial, sans-serif; font-size: 10px; fill: black; font-weight: normal;">3979</tspan></text></g><g transform="translate(536.8462864942978,330.94775993066764)"><text text-anchor="middle" dominant-baseline="text-before-edge" transform="translate(0,-11.600000381469727)"><tspan x="0" y="0" dy="0" style="font-family: Arial, sans-serif; font-size: 10px; fill: black; font-weight: bold;">Europa</tspan><tspan x="0" y="0" dy="12" style="font-family: Arial, sans-serif; font-size: 10px; fill: black; font-weight: normal;">3064</tspan></text></g><g transform="translate(341.4495556018728,285.6696729323329)"><text text-anchor="middle" dominant-baseline="text-before-edge" transform="translate(0,-11.600000381469727)"><tspan x="0" y="0" dy="0" style="font-family: Arial, sans-serif; font-size: 10px; fill: black; font-weight: bold;">Roma</tspan><tspan x="0" y="0" dy="12" style="font-family: Arial, sans-serif; font-size: 10px; fill: black; font-weight: normal;">2632</tspan></text></g><g transform="translate(728.0621199247018,298.8076921784115)"><text text-anchor="middle" dominant-baseline="text-before-edge" transform="translate(0,-11.600000381469727)"><tspan x="0" y="0" dy="0" style="font-family: Arial, sans-serif; font-size: 10px; fill: black; font-weight: bold;">Agricoltore</tspan><tspan x="0" y="0" dy="12" style="font-family: Arial, sans-serif; font-size: 10px; fill: black; font-weight: normal;">2277</tspan></text></g><g transform="translate(338.384042264716,776.3627672518958)"><text text-anchor="middle" dominant-baseline="text-before-edge" transform="translate(0,-11.600000381469727)"><tspan x="0" y="0" dy="0" style="font-family: Arial, sans-serif; font-size: 10px; fill: black; font-weight: bold;">Politica</tspan><tspan x="0" y="0" dy="12" style="font-family: Arial, sans-serif; font-size: 10px; fill: black; font-weight: normal;">1827</tspan></text></g><g transform="translate(733.7516500585824,766.9382446819445)"><text text-anchor="middle" dominant-baseline="text-before-edge" transform="translate(0,-11.600000381469727)"><tspan x="0" y="0" dy="0" style="font-family: Arial, sans-serif; font-size: 10px; fill: black; font-weight: bold;">Unione europea</tspan><tspan x="0" y="0" dy="12" style="font-family: Arial, sans-serif; font-size: 10px; fill: black; font-weight: normal;">1720</tspan></text></g><g transform="translate(197.83550475894134,383.2721850004021)"><text text-anchor="middle" dominant-baseline="text-before-edge" transform="translate(0,-11.600000381469727)"><tspan x="0" y="0" dy="0" style="font-family: Arial, sans-serif; font-size: 10px; fill: black; font-weight: bold;">Italiani</tspan><tspan x="0" y="0" dy="12" style="font-family: Arial, sans-serif; font-size: 10px; fill: black; font-weight: normal;">1672</tspan></text></g><g transform="translate(210.9379006619281,697.7828749147208)"><text text-anchor="middle" dominant-baseline="text-before-edge" transform="translate(0,-11.600000381469727)"><tspan x="0" y="0" dy="0" style="font-family: Arial, sans-serif; font-size: 10px; fill: black; font-weight: bold;">Sindacato</tspan><tspan x="0" y="0" dy="12" style="font-family: Arial, sans-serif; font-size: 10px; fill: black; font-weight: normal;">1340</tspan></text></g><g transform="translate(850.6717245257045,392.66229461056594)"><text text-anchor="middle" dominant-baseline="text-before-edge" transform="translate(0,-11.600000381469727)"><tspan x="0" y="0" dy="0" style="font-family: Arial, sans-serif; font-size: 10px; fill: black; font-weight: bold;">Suolo</tspan><tspan x="0" y="0" dy="12" style="font-family: Arial, sans-serif; font-size: 10px; fill: black; font-weight: normal;">1166</tspan></text></g><g transform="translate(847.799769976151,685.3157451097281)"><text text-anchor="middle" dominant-baseline="text-before-edge" transform="translate(0,-11.600000381469727)"><tspan x="0" y="0" dy="0" style="font-family: Arial, sans-serif; font-size: 10px; fill: black; font-weight: bold;">Lavoro</tspan><tspan x="0" y="0" dy="12" style="font-family: Arial, sans-serif; font-size: 10px; fill: black; font-weight: normal;">1075</tspan></text></g><g transform="translate(461.9942947113724,182.67560533706927)"><text text-anchor="middle" dominant-baseline="text-before-edge" transform="translate(0,-11.600000381469727)"><tspan x="0" y="0" dy="0" style="font-family: Arial, sans-serif; font-size: 10px; fill: black; font-weight: bold;">Facebook</tspan><tspan x="0" y="0" dy="12" style="font-family: Arial, sans-serif; font-size: 10px; fill: black; font-weight: normal;">1075</tspan></text></g><g transform="translate(623.3098618280562,190.7499384118908)"><text text-anchor="middle" dominant-baseline="text-before-edge" transform="translate(0,-11.600000381469727)"><tspan x="0" y="0" dy="0" style="font-family: Arial, sans-serif; font-size: 10px; fill: black; font-weight: bold;">Bruxelles</tspan><tspan x="0" y="0" dy="12" style="font-family: Arial, sans-serif; font-size: 10px; fill: black; font-weight: normal;">1027</tspan></text></g><g transform="translate(414.16917787847245,895.0234611490552)"><text text-anchor="middle" dominant-baseline="text-before-edge" transform="translate(0,-11.600000381469727)"><tspan x="0" y="0" dy="0" style="font-family: Arial, sans-serif; font-size: 10px; fill: black; font-weight: bold;">Francia</tspan><tspan x="0" y="0" dy="12" style="font-family: Arial, sans-serif; font-size: 10px; fill: black; font-weight: normal;">1012</tspan></text></g><g transform="translate(666.3414128673672,884.5745883719644)"><text text-anchor="middle" dominant-baseline="text-before-edge" transform="translate(0,-11.600000381469727)"><tspan x="0" y="0" dy="0" style="font-family: Arial, sans-serif; font-size: 10px; fill: black; font-weight: bold;">Governo</tspan><tspan x="0" y="0" dy="12" style="font-family: Arial, sans-serif; font-size: 10px; fill: black; font-weight: normal;">917</tspan></text></g><g transform="translate(165.0148579205378,581.9424033413118)"><text text-anchor="middle" dominant-baseline="text-before-edge" transform="translate(0,-11.600000381469727)"><tspan x="0" y="0" dy="0" style="font-family: Arial, sans-serif; font-size: 10px; fill: black; font-weight: bold;">Euro</tspan><tspan x="0" y="0" dy="12" style="font-family: Arial, sans-serif; font-size: 10px; fill: black; font-weight: normal;">856</tspan></text></g><g transform="translate(894.0828814680674,577.8021608997782)"><text text-anchor="middle" dominant-baseline="text-before-edge" transform="translate(0,-11.600000381469727)"><tspan x="0" y="0" dy="0" style="font-family: Arial, sans-serif; font-size: 10px; fill: black; font-weight: bold;">Germania</tspan><tspan x="0" y="0" dy="12" style="font-family: Arial, sans-serif; font-size: 10px; fill: black; font-weight: normal;">842</tspan></text></g><g transform="translate(935.2434136443235,476.3848985872421)"><text text-anchor="middle" dominant-baseline="text-before-edge" transform="translate(0,-11.600000381469727)"><tspan x="0" y="0" dy="0" style="font-family: Arial, sans-serif; font-size: 10px; fill: black; font-weight: bold;">Alimento</tspan><tspan x="0" y="0" dy="12" style="font-family: Arial, sans-serif; font-size: 10px; fill: black; font-weight: normal;">824</tspan></text></g><g transform="translate(117.71062106116432,485.02164023494055)"><text text-anchor="middle" dominant-baseline="text-before-edge" transform="translate(0,-11.600000381469727)"><tspan x="0" y="0" dy="0" style="font-family: Arial, sans-serif; font-size: 10px; fill: black; font-weight: bold;">Coldiretti</tspan><tspan x="0" y="0" dy="12" style="font-family: Arial, sans-serif; font-size: 10px; fill: black; font-weight: normal;">762</tspan></text></g><g transform="translate(547.611358887029,107.02262950064886)"><text text-anchor="middle" dominant-baseline="text-before-edge" transform="translate(0,-11.600000381469727)"><tspan x="0" y="0" dy="0" style="font-family: Arial, sans-serif; font-size: 10px; fill: black; font-weight: bold;">Letame</tspan><tspan x="0" y="0" dy="12" style="font-family: Arial, sans-serif; font-size: 10px; fill: black; font-weight: normal;">757</tspan></text></g><g transform="translate(517.8448415414597,932.8600581523583)"><text text-anchor="middle" dominant-baseline="text-before-edge" transform="translate(0,-11.600000381469727)"><tspan x="0" y="0" dy="0" style="font-family: Arial, sans-serif; font-size: 10px; fill: black; font-weight: bold;">Frutta</tspan><tspan x="0" y="0" dy="12" style="font-family: Arial, sans-serif; font-size: 10px; fill: black; font-weight: normal;">697</tspan></text></g><g transform="translate(608.6360218684993,975.1242698046501)"><text text-anchor="middle" dominant-baseline="text-before-edge" transform="translate(0,-11.600000381469727)"><tspan x="0" y="0" dy="0" style="font-family: Arial, sans-serif; font-size: 10px; fill: black; font-weight: bold;">Triticum</tspan><tspan x="0" y="0" dy="12" style="font-family: Arial, sans-serif; font-size: 10px; fill: black; font-weight: normal;">693</tspan></text></g><g transform="translate(858.2267845242075,796.6191622051404)"><text text-anchor="middle" dominant-baseline="text-before-edge" transform="translate(0,-11.600000381469727)"><tspan x="0" y="0" dy="0" style="font-family: Arial, sans-serif; font-size: 10px; fill: black; font-weight: bold;">Verdura</tspan><tspan x="0" y="0" dy="12" style="font-family: Arial, sans-serif; font-size: 10px; fill: black; font-weight: normal;">686</tspan></text></g><g transform="translate(214.81709553345945,816.0851188222728)"><text text-anchor="middle" dominant-baseline="text-before-edge" transform="translate(0,-11.600000381469727)"><tspan x="0" y="0" dy="0" style="font-family: Arial, sans-serif; font-size: 10px; fill: black; font-weight: bold;">Roma (città antica)</tspan><tspan x="0" y="0" dy="12" style="font-family: Arial, sans-serif; font-size: 10px; fill: black; font-weight: normal;">671</tspan></text></g><g transform="translate(864.6603062303907,281.06111651456524)"><text text-anchor="middle" dominant-baseline="text-before-edge" transform="translate(0,-11.600000381469727)"><tspan x="0" y="0" dy="0" style="font-family: Arial, sans-serif; font-size: 10px; fill: black; font-weight: bold;">Produzione</tspan><tspan x="0" y="0" dy="12" style="font-family: Arial, sans-serif; font-size: 10px; fill: black; font-weight: normal;">635</tspan></text></g><g transform="translate(200.20550394140804,258.93296780400664)"><text text-anchor="middle" dominant-baseline="text-before-edge" transform="translate(0,-11.600000381469727)"><tspan x="0" y="0" dy="0" style="font-family: Arial, sans-serif; font-size: 10px; fill: black; font-weight: bold;">Popolo</tspan><tspan x="0" y="0" dy="12" style="font-family: Arial, sans-serif; font-size: 10px; fill: black; font-weight: normal;">617</tspan></text></g><g transform="translate(727.1439060327741,161.8470548714805)"><text text-anchor="middle" dominant-baseline="text-before-edge" transform="translate(0,-11.600000381469727)"><tspan x="0" y="0" dy="0" style="font-family: Arial, sans-serif; font-size: 10px; fill: black; font-weight: bold;">Terra</tspan><tspan x="0" y="0" dy="12" style="font-family: Arial, sans-serif; font-size: 10px; fill: black; font-weight: normal;">614</tspan></text></g><g transform="translate(360.9169696657503,144.46846121029114)"><text text-anchor="middle" dominant-baseline="text-before-edge" transform="translate(0,-11.600000381469727)"><tspan x="0" y="0" dy="0" style="font-family: Arial, sans-serif; font-size: 10px; fill: black; font-weight: bold;">Vita</tspan><tspan x="0" y="0" dy="12" style="font-family: Arial, sans-serif; font-size: 10px; fill: black; font-weight: normal;">585</tspan></text></g><g transform="translate(769.6878058131704,885.8184926149819)"><text text-anchor="middle" dominant-baseline="text-before-edge" transform="translate(0,-11.600000381469727)"><tspan x="0" y="0" dy="0" style="font-family: Arial, sans-serif; font-size: 10px; fill: black; font-weight: bold;">Multinazionale</tspan><tspan x="0" y="0" dy="12" style="font-family: Arial, sans-serif; font-size: 10px; fill: black; font-weight: normal;">584</tspan></text></g><g transform="translate(309.18865280402144,898.3044057849609)"><text text-anchor="middle" dominant-baseline="text-before-edge" transform="translate(0,-11.600000381469727)"><tspan x="0" y="0" dy="0" style="font-family: Arial, sans-serif; font-size: 10px; fill: black; font-weight: bold;">Insecta</tspan><tspan x="0" y="0" dy="12" style="font-family: Arial, sans-serif; font-size: 10px; fill: black; font-weight: normal;">554</tspan></text></g><g transform="translate(949.7329512223423,658.8299631922955)"><text text-anchor="middle" dominant-baseline="text-before-edge" transform="translate(0,-11.600000381469727)"><tspan x="0" y="0" dy="0" style="font-family: Arial, sans-serif; font-size: 10px; fill: black; font-weight: bold;">Trattore agricolo</tspan><tspan x="0" y="0" dy="12" style="font-family: Arial, sans-serif; font-size: 10px; fill: black; font-weight: normal;">516</tspan></text></g><g transform="translate(104.9377398908469,660.3090129753588)"><text text-anchor="middle" dominant-baseline="text-before-edge" transform="translate(0,-11.600000381469727)"><tspan x="0" y="0" dy="0" style="font-family: Arial, sans-serif; font-size: 10px; fill: black; font-weight: bold;">Supermercato</tspan><tspan x="0" y="0" dy="12" style="font-family: Arial, sans-serif; font-size: 10px; fill: black; font-weight: normal;">516</tspan></text></g><g transform="translate(858.7908335399254,889.5712962977486)"><text text-anchor="middle" dominant-baseline="text-before-edge" transform="translate(0,-11.600000381469727)"><tspan x="0" y="0" dy="0" style="font-family: Arial, sans-serif; font-size: 10px; fill: black; font-weight: bold;">Olio di oliva</tspan><tspan x="0" y="0" dy="12" style="font-family: Arial, sans-serif; font-size: 10px; fill: black; font-weight: normal;">514</tspan></text></g><g transform="translate(222.47801037998943,907.3523102641827)"><text text-anchor="middle" dominant-baseline="text-before-edge" transform="translate(0,-11.600000381469727)"><tspan x="0" y="0" dy="0" style="font-family: Arial, sans-serif; font-size: 10px; fill: black; font-weight: bold;">Famiglia</tspan><tspan x="0" y="0" dy="12" style="font-family: Arial, sans-serif; font-size: 10px; fill: black; font-weight: normal;">494</tspan></text></g><g transform="translate(956.6557660841966,382.45248775827025)"><text text-anchor="middle" dominant-baseline="text-before-edge" transform="translate(0,-11.600000381469727)"><tspan x="0" y="0" dy="0" style="font-family: Arial, sans-serif; font-size: 10px; fill: black; font-weight: bold;">Tradizione</tspan><tspan x="0" y="0" dy="12" style="font-family: Arial, sans-serif; font-size: 10px; fill: black; font-weight: normal;">483</tspan></text></g><g transform="translate(447.4456392692347,990.3488558648411)"><text text-anchor="middle" dominant-baseline="text-before-edge" transform="translate(0,-11.600000381469727)"><tspan x="0" y="0" dy="0" style="font-family: Arial, sans-serif; font-size: 10px; fill: black; font-weight: bold;">Verità</tspan><tspan x="0" y="0" dy="12" style="font-family: Arial, sans-serif; font-size: 10px; fill: black; font-weight: normal;">456</tspan></text></g><g transform="translate(818.8806841119608,206.01846244889003)"><text text-anchor="middle" dominant-baseline="text-before-edge" transform="translate(0,-11.600000381469727)"><tspan x="0" y="0" dy="0" style="font-family: Arial, sans-serif; font-size: 10px; fill: black; font-weight: bold;">Prezzo</tspan><tspan x="0" y="0" dy="12" style="font-family: Arial, sans-serif; font-size: 10px; fill: black; font-weight: normal;">439</tspan></text></g><g transform="translate(931.0502142671287,744.2335556005435)"><text text-anchor="middle" dominant-baseline="text-before-edge" transform="translate(0,-11.600000381469727)"><tspan x="0" y="0" dy="0" style="font-family: Arial, sans-serif; font-size: 10px; fill: black; font-weight: bold;">Provincia di Siena</tspan><tspan x="0" y="0" dy="12" style="font-family: Arial, sans-serif; font-size: 10px; fill: black; font-weight: normal;">438</tspan></text></g><g transform="translate(806.8752175994211,127.06355823072494)"><text text-anchor="middle" dominant-baseline="text-before-edge" transform="translate(0,-11.600000381469727)"><tspan x="0" y="0" dy="0" style="font-family: Arial, sans-serif; font-size: 10px; fill: black; font-weight: bold;">Allevamento</tspan><tspan x="0" y="0" dy="12" style="font-family: Arial, sans-serif; font-size: 10px; fill: black; font-weight: normal;">436</tspan></text></g><g transform="translate(985.1530601076736,555.1664473502157)"><text text-anchor="middle" dominant-baseline="text-before-edge" transform="translate(0,-11.600000381469727)"><tspan x="0" y="0" dy="0" style="font-family: Arial, sans-serif; font-size: 10px; fill: black; font-weight: bold;">Libertà</tspan><tspan x="0" y="0" dy="12" style="font-family: Arial, sans-serif; font-size: 10px; fill: black; font-weight: normal;">413</tspan></text></g><g transform="translate(73.50419931481235,563.686882800278)"><text text-anchor="middle" dominant-baseline="text-before-edge" transform="translate(0,-11.600000381469727)"><tspan x="0" y="0" dy="0" style="font-family: Arial, sans-serif; font-size: 10px; fill: black; font-weight: bold;">Sicilia</tspan><tspan x="0" y="0" dy="12" style="font-family: Arial, sans-serif; font-size: 10px; fill: black; font-weight: normal;">392</tspan></text></g><g transform="translate(138.42103147653836,775.6180495255985)"><text text-anchor="middle" dominant-baseline="text-before-edge" transform="translate(0,-11.600000381469727)"><tspan x="0" y="0" dy="0" style="font-family: Arial, sans-serif; font-size: 10px; fill: black; font-weight: bold;">Corruzione</tspan><tspan x="0" y="0" dy="12" style="font-family: Arial, sans-serif; font-size: 10px; fill: black; font-weight: normal;">379</tspan></text></g><g transform="translate(281.3259278115788,166.84337388322768)"><text text-anchor="middle" dominant-baseline="text-before-edge" transform="translate(0,-11.600000381469727)"><tspan x="0" y="0" dy="0" style="font-family: Arial, sans-serif; font-size: 10px; fill: black; font-weight: bold;">Carne</tspan><tspan x="0" y="0" dy="12" style="font-family: Arial, sans-serif; font-size: 10px; fill: black; font-weight: normal;">367</tspan></text></g><g transform="translate(944.8343918651701,305.53033969236094)"><text text-anchor="middle" dominant-baseline="text-before-edge" transform="translate(0,-11.600000381469727)"><tspan x="0" y="0" dy="0" style="font-family: Arial, sans-serif; font-size: 10px; fill: black; font-weight: bold;">Economia</tspan><tspan x="0" y="0" dy="12" style="font-family: Arial, sans-serif; font-size: 10px; fill: black; font-weight: normal;">352</tspan></text></g><g transform="translate(87.27808362241615,402.92974901905484)"><text text-anchor="middle" dominant-baseline="text-before-edge" transform="translate(0,-11.600000381469727)"><tspan x="0" y="0" dy="0" style="font-family: Arial, sans-serif; font-size: 10px; fill: black; font-weight: bold;">Mondo</tspan><tspan x="0" y="0" dy="12" style="font-family: Arial, sans-serif; font-size: 10px; fill: black; font-weight: normal;">337</tspan></text></g><g transform="translate(210.4872797809981,177.37941322228204)"><text text-anchor="middle" dominant-baseline="text-before-edge" transform="translate(0,-11.600000381469727)"><tspan x="0" y="0" dy="0" style="font-family: Arial, sans-serif; font-size: 10px; fill: black; font-weight: bold;">Strada</tspan><tspan x="0" y="0" dy="12" style="font-family: Arial, sans-serif; font-size: 10px; fill: black; font-weight: normal;">333</tspan></text></g><g transform="translate(667.2578513626593,106.2319278360373)"><text text-anchor="middle" dominant-baseline="text-before-edge" transform="translate(0,-11.600000381469727)"><tspan x="0" y="0" dy="0" style="font-family: Arial, sans-serif; font-size: 10px; fill: black; font-weight: bold;">Denaro</tspan><tspan x="0" y="0" dy="12" style="font-family: Arial, sans-serif; font-size: 10px; fill: black; font-weight: normal;">326</tspan></text></g><g transform="translate(726.6052627536257,952.8048671538354)"><text text-anchor="middle" dominant-baseline="text-before-edge" transform="translate(0,-11.600000381469727)"><tspan x="0" y="0" dy="0" style="font-family: Arial, sans-serif; font-size: 10px; fill: black; font-weight: bold;">Pesticida</tspan><tspan x="0" y="0" dy="12" style="font-family: Arial, sans-serif; font-size: 10px; fill: black; font-weight: normal;">308</tspan></text></g><g transform="translate(618.4181568327153,58.9950196685117)"><text text-anchor="middle" dominant-baseline="text-before-edge" transform="translate(0,-11.600000381469727)"><tspan x="0" y="0" dy="0" style="font-family: Arial, sans-serif; font-size: 10px; fill: black; font-weight: bold;">Pasqua</tspan><tspan x="0" y="0" dy="12" style="font-family: Arial, sans-serif; font-size: 10px; fill: black; font-weight: normal;">302</tspan></text></g></g></g></svg>