<svg xmlns="http://www.w3.org/2000/svg" width="1000" height="1000"><rect width="1000" height="1000" x="0" y="0" fill="#FFFFFF" id="background"/><g transform="translate(20,20)" id="viz"><g id="nodes"><g transform="translate(481,481)"><path id="p_1441" d="M-8.817456953860942e-14,480A480,480,0,1,1,8.817456953860942e-14,-480A480,480,0,1,1,-8.817456953860942e-14,480Z" fill="none" stroke="#ccc"/></g><g transform="translate(340.4120498046407,488.545654724062)" id="Italia"><path id="p_971.180826610343" d="M-2.6309660703175722e-14,143.22312208164038A143.22312208164038,143.22312208164038,0,1,1,2.6309660703175722e-14,-143.22312208164038A143.22312208164038,143.22312208164038,0,1,1,-2.6309660703175722e-14,143.22312208164038Z" fill="rgb(0, 105, 43)" stroke="none"/></g><g transform="translate(623.7815769152309,488.545654724062)" id="Agricoltura"><path id="p_1249.5142110841339" d="M-2.5384536309144856e-14,138.18697944484109A138.18697944484109,138.18697944484109,0,1,1,2.5384536309144856e-14,-138.18697944484109A138.18697944484109,138.18697944484109,0,1,1,-2.5384536309144856e-14,138.18697944484109Z" fill="rgb(16, 116, 55)" stroke="none"/></g><g transform="translate(486.519704064216,693.1068537031981)" id="Dio"><path id="p_1284.8256537453833" d="M-1.9508457444264368e-14,106.19909597796914A106.19909597796914,106.19909597796914,0,1,1,1.9508457444264368e-14,-106.19909597796914A106.19909597796914,106.19909597796914,0,1,1,-1.9508457444264368e-14,106.19909597796914Z" fill="rgb(107, 175, 121)" stroke="none"/></g><g transform="translate(486.2885358605483,300.018641504466)" id="Europa"><path id="p_878.4990912036828" d="M-1.7119076848341213e-14,93.1919138386686A93.1919138386686,93.1919138386686,0,1,1,1.7119076848341213e-14,-93.1919138386686A93.1919138386686,93.1919138386686,0,1,1,-1.7119076848341213e-14,93.1919138386686Z" fill="rgb(137, 195, 143)" stroke="none"/></g><g transform="translate(309.44324304446593,259.07061669933665)" id="Roma"><path id="p_653.8866187946093" d="M-1.5866418435764382e-14,86.37275905080661A86.37275905080661,86.37275905080661,0,1,1,1.5866418435764382e-14,-86.37275905080661A86.37275905080661,86.37275905080661,0,1,1,-1.5866418435764382e-14,86.37275905080661Z" fill="rgb(151, 205, 153)" stroke="none"/></g><g transform="translate(659.352657072553,270.95059455004537)" id="Agricoltore"><path id="p_1009.6402064095143" d="M-1.4757659179956345e-14,80.336954786916A80.336954786916,80.336954786916,0,1,1,1.4757659179956345e-14,-80.336954786916A80.336954786916,80.336954786916,0,1,1,-1.4757659179956345e-14,80.336954786916Z" fill="rgb(163, 212, 162)" stroke="none"/></g><g transform="translate(306.6740309008039,703.0532149442627)" id="Politica"><path id="p_1080.689229105562" d="M-1.3219201869039142e-14,71.96198326049527A71.96198326049527,71.96198326049527,0,1,1,1.3219201869039142e-14,-71.96198326049527A71.96198326049527,71.96198326049527,0,1,1,-1.3219201869039142e-14,71.96198326049527Z" fill="rgb(178, 222, 172)" stroke="none"/></g><g transform="translate(664.4954674391174,694.5298800155415)" id="Unione europea"><path id="p_1427.8482781643402" d="M-1.2826264290104804e-14,69.82293070968136A69.82293070968136,69.82293070968136,0,1,1,1.2826264290104804e-14,-69.82293070968136A69.82293070968136,69.82293070968136,0,1,1,-1.2826264290104804e-14,69.82293070968136Z" fill="rgb(181, 224, 175)" stroke="none"/></g><g transform="translate(179.4759921261018,347.4570616507722)" id="Italiani"><path id="p_594.7748172454219" d="M-1.2646026791912468e-14,68.84176346854797A68.84176346854797,68.84176346854797,0,1,1,1.2646026791912468e-14,-68.84176346854797A68.84176346854797,68.84176346854797,0,1,1,-1.2646026791912468e-14,68.84176346854797Z" fill="rgb(183, 225, 176)" stroke="none"/></g><g transform="translate(191.31804849914505,631.8706743968258)" id="Sindacato"><path id="p_883.8178830455224" d="M-1.1321093056693193e-14,61.62916014955158A61.62916014955158,61.62916014955158,0,1,1,1.1321093056693193e-14,-61.62916014955158A61.62916014955158,61.62916014955158,0,1,1,-1.1321093056693193e-14,61.62916014955158Z" fill="rgb(194, 233, 184)" stroke="none"/></g><g transform="translate(770.3301494014478,355.9440559552169)" id="Suolo"><path id="p_1182.7629897394231" d="M-1.0560518367182614e-14,57.48878438275841A57.48878438275841,57.48878438275841,0,1,1,1.0560518367182614e-14,-57.48878438275841A57.48878438275841,57.48878438275841,0,1,1,-1.0560518367182614e-14,57.48878438275841Z" fill="rgb(200, 236, 188)" stroke="none"/></g><g transform="translate(767.7350749901291,620.5970042904182)" id="Lavoro"><path id="p_1442.5319527682248" d="M-1.0140052257003466e-14,55.199873487677515A55.199873487677515,55.199873487677515,0,1,1,1.0140052257003466e-14,-55.199873487677515A55.199873487677515,55.199873487677515,0,1,1,-1.0140052257003466e-14,55.199873487677515Z" fill="rgb(203, 238, 190)" stroke="none"/></g><g transform="translate(418.53763343609774,165.79754612703482)" id="Facebook"><path id="p_638.5350530508101" d="M-1.0140052257003466e-14,55.199873487677515A55.199873487677515,55.199873487677515,0,1,1,1.0140052257003466e-14,-55.199873487677515A55.199873487677515,55.199873487677515,0,1,1,-1.0140052257003466e-14,55.199873487677515Z" fill="rgb(203, 238, 190)" stroke="none"/></g><g transform="translate(564.5420296333647,173.09888952066575)" id="Bruxelles"><path id="p_790.5943507189099" d="M-9.911084590341832e-15,53.95343156487958A53.95343156487958,53.95343156487958,0,1,1,9.911084590341832e-15,-53.95343156487958A53.95343156487958,53.95343156487958,0,1,1,-9.911084590341832e-15,53.95343156487958Z" fill="rgb(204, 239, 192)" stroke="none"/></g><g transform="translate(375.2868339527902,810.4928503296129)" id="Francia"><path id="p_1238.3376541403472" d="M-9.838439453304231e-15,53.557969857944A53.557969857944,53.557969857944,0,1,1,9.838439453304231e-15,-53.557969857944A53.557969857944,53.557969857944,0,1,1,-9.838439453304231e-15,53.557969857944Z" fill="rgb(205, 240, 192)" stroke="none"/></g><g transform="translate(603.45930326801,801.0461763326979)" id="Governo"><path id="p_1454.4876732301211" d="M-9.365277036265692e-15,50.98219362941306A50.98219362941306,50.98219362941306,0,1,1,9.365277036265692e-15,-50.98219362941306A50.98219362941306,50.98219362941306,0,1,1,-9.365277036265692e-15,50.98219362941306Z" fill="rgb(208, 242, 194)" stroke="none"/></g><g transform="translate(149.80053032160492,526.9397783864204)" id="Euro"><path id="p_724.9976234456224" d="M-9.048421924198793e-15,49.257314737597035A49.257314737597035,49.257314737597035,0,1,1,9.048421924198793e-15,-49.257314737597035A49.257314737597035,49.257314737597035,0,1,1,-9.048421924198793e-15,49.257314737597035Z" fill="rgb(210, 243, 196)" stroke="none"/></g><g transform="translate(809.5781036921387,523.1919916454754)" id="Germania"><path id="p_1380.622944340087" d="M-8.974122774016142e-15,48.85284900247308A48.85284900247308,48.85284900247308,0,1,1,8.974122774016142e-15,-48.85284900247308A48.85284900247308,48.85284900247308,0,1,1,-8.974122774016142e-15,48.85284900247308Z" fill="rgb(210, 243, 196)" stroke="none"/></g><g transform="translate(847.2134111341945,431.47314121131126)" id="Alimento"><path id="p_1326.0144002685447" d="M-8.87768164029447e-15,48.32784792303903A48.32784792303903,48.32784792303903,0,1,1,8.87768164029447e-15,-48.32784792303903A48.32784792303903,48.32784792303903,0,1,1,-8.87768164029447e-15,48.32784792303903Z" fill="rgb(211, 244, 197)" stroke="none"/></g><g transform="translate(106.5839728567139,439.3279257926646)" id="Coldiretti"><path id="p_591.3860358650672" d="M-8.537160507649222e-15,46.474137215688785A46.474137215688785,46.474137215688785,0,1,1,8.537160507649222e-15,-46.474137215688785A46.474137215688785,46.474137215688785,0,1,1,-8.537160507649222e-15,46.474137215688785Z" fill="rgb(213, 245, 198)" stroke="none"/></g><g transform="translate(496.03000727291527,97.2177417031196)" id="Letame"><path id="p_638.5691610425451" d="M-8.509105352885588e-15,46.32141206651017A46.32141206651017,46.32141206651017,0,1,1,8.509105352885588e-15,-46.32141206651017A46.32141206651017,46.32141206651017,0,1,1,-8.509105352885588e-15,46.32141206651017Z" fill="rgb(213, 245, 198)" stroke="none"/></g><g transform="translate(469.20699802669213,844.7279559115834)" id="Frutta"><path id="p_1357.3827508077338" d="M-8.164927824800041e-15,44.4477968694581A44.4477968694581,44.4477968694581,0,1,1,8.164927824800041e-15,-44.4477968694581A44.4477968694581,44.4477968694581,0,1,1,-8.164927824800041e-15,44.4477968694581Z" fill="rgb(215, 246, 200)" stroke="none"/></g><g transform="translate(551.3786987262151,883.1890239382969)" id="Triticum"><path id="p_1477.8877957157022" d="M-8.141465340017511e-15,44.320073051190036A44.320073051190036,44.320073051190036,0,1,1,8.141465340017511e-15,-44.320073051190036A44.320073051190036,44.320073051190036,0,1,1,-8.141465340017511e-15,44.320073051190036Z" fill="rgb(215, 247, 200)" stroke="none"/></g><g transform="translate(777.2133293683512,721.4073741999133)" id="Verdura"><path id="p_1541.7163697443493" d="M-8.100242465821833e-15,44.095666176084606A44.095666176084606,44.095666176084606,0,1,1,8.100242465821833e-15,-44.095666176084606A44.095666176084606,44.095666176084606,0,1,1,-8.100242465821833e-15,44.095666176084606Z" fill="rgb(215, 247, 200)" stroke="none"/></g><g transform="translate(194.77834234542962,739.0143042663367)" id="Roma (città antica)"><path id="p_976.4035527384565" d="M-8.011193489395029e-15,43.61090612669021A43.61090612669021,43.61090612669021,0,1,1,8.011193489395029e-15,-43.61090612669021A43.61090612669021,43.61090612669021,0,1,1,-8.011193489395029e-15,43.61090612669021Z" fill="rgb(216, 247, 200)" stroke="none"/></g><g transform="translate(783.0324031768334,254.86596235420143)" id="Produzione"><path id="p_1079.32325435374" d="M-7.793325645136224e-15,42.424888822705135A42.424888822705135,42.424888822705135,0,1,1,7.793325645136224e-15,-42.424888822705135A42.424888822705135,42.424888822705135,0,1,1,-7.793325645136224e-15,42.424888822705135Z" fill="rgb(217, 248, 201)" stroke="none"/></g><g transform="translate(181.56419306668863,234.85596536762407)" id="Popolo"><path id="p_457.23942696967623" d="M-7.68207500317748e-15,41.819268535363506A41.819268535363506,41.819268535363506,0,1,1,7.68207500317748e-15,-41.819268535363506A41.819268535363506,41.819268535363506,0,1,1,-7.68207500317748e-15,41.819268535363506Z" fill="rgb(218, 248, 201)" stroke="none"/></g><g transform="translate(658.6023437973022,146.93900692510226)" id="Terra"><path id="p_846.2588277838053" d="M-7.663376212762143e-15,41.71747706140081A41.71747706140081,41.71747706140081,0,1,1,7.663376212762143e-15,-41.71747706140081A41.71747706140081,41.71747706140081,0,1,1,-7.663376212762143e-15,41.71747706140081Z" fill="rgb(218, 248, 202)" stroke="none"/></g><g transform="translate(326.9712409413661,131.21392822371473)" id="Vita"><path id="p_497.90554552074013" d="M-7.480211784605059e-15,40.720376355659305A40.720376355659305,40.720376355659305,0,1,1,7.480211784605059e-15,-40.720376355659305A40.720376355659305,40.720376355659305,0,1,1,-7.480211784605059e-15,40.720376355659305Z" fill="rgb(219, 249, 202)" stroke="none"/></g><g transform="translate(697.079684681324,802.1742039316914)" id="Multinazionale"><path id="p_1538.9394463420806" d="M-7.473815706663667e-15,40.68555772906512A40.68555772906512,40.68555772906512,0,1,1,7.473815706663667e-15,-40.68555772906512A40.68555772906512,40.68555772906512,0,1,1,-7.473815706663667e-15,40.68555772906512Z" fill="rgb(219, 249, 202)" stroke="none"/></g><g transform="translate(280.1892363798943,813.4694537346392)" id="Insecta"><path id="p_1132.2854654448788" d="M-7.279320535325836e-15,39.626775330345495A39.626775330345495,39.626775330345495,0,1,1,7.279320535325836e-15,-39.626775330345495A39.626775330345495,39.626775330345495,0,1,1,-7.279320535325836e-15,39.626775330345495Z" fill="rgb(220, 250, 203)" stroke="none"/></g><g transform="translate(860.0596863145481,596.5579072865429)" id="Trattore agricolo"><path id="p_1493.8611877819035" d="M-7.0252342802133884e-15,38.24359418081268A38.24359418081268,38.24359418081268,0,1,1,7.0252342802133884e-15,-38.24359418081268A38.24359418081268,38.24359418081268,0,1,1,-7.0252342802133884e-15,38.24359418081268Z" fill="rgb(221, 250, 204)" stroke="none"/></g><g transform="translate(95.31998793651212,597.897666959352)" id="Supermercato"><path id="p_730.4612490766768" d="M-7.0252342802133884e-15,38.24359418081268A38.24359418081268,38.24359418081268,0,1,1,7.0252342802133884e-15,-38.24359418081268A38.24359418081268,38.24359418081268,0,1,1,-7.0252342802133884e-15,38.24359418081268Z" fill="rgb(221, 250, 204)" stroke="none"/></g><g transform="translate(777.8201657191405,805.6296865393201)" id="Olio di oliva"><path id="p_1620.619258989818" d="M-7.01160626683655e-15,38.16940673135745A38.16940673135745,38.16940673135745,0,1,1,7.01160626683655e-15,-38.16940673135745A38.16940673135745,38.16940673135745,0,1,1,-7.01160626683655e-15,38.16940673135745Z" fill="rgb(221, 250, 204)" stroke="none"/></g><g transform="translate(201.6157777724937,821.7219355383884)" id="Famiglia"><path id="p_1059.7571568368733" d="M-6.873840260997064e-15,37.419443525991326A37.419443525991326,37.419443525991326,0,1,1,6.873840260997064e-15,-37.419443525991326A37.419443525991326,37.419443525991326,0,1,1,-6.873840260997064e-15,37.419443525991326Z" fill="rgb(222, 251, 204)" stroke="none"/></g><g transform="translate(405.0928878908172,898.0779936556319)" id="Tradizione"><path id="p_1339.1713664454194" d="M-6.7968788097636095e-15,37.00048489897039A37.00048489897039,37.00048489897039,0,1,1,6.7968788097636095e-15,-37.00048489897039A37.00048489897039,37.00048489897039,0,1,1,-6.7968788097636095e-15,37.00048489897039Z" fill="rgb(222, 251, 205)" stroke="none"/></g><g transform="translate(865.3243128536741,347.157598878779)" id="Verità"><path id="p_1247.4333501818376" d="M-6.604172103267227e-15,35.95143844938426A35.95143844938426,35.95143844938426,0,1,1,6.604172103267227e-15,-35.95143844938426A35.95143844938426,35.95143844938426,0,1,1,-6.604172103267227e-15,35.95143844938426Z" fill="rgb(223, 252, 205)" stroke="none"/></g><g transform="translate(741.5327271263966,186.8705841506095)" id="Prezzo"><path id="p_962.6782371963509" d="M-6.479898767592846e-15,35.274925919344824A35.274925919344824,35.274925919344824,0,1,1,6.479898767592846e-15,-35.274925919344824A35.274925919344824,35.274925919344824,0,1,1,-6.479898767592846e-15,35.274925919344824Z" fill="rgb(223, 252, 206)" stroke="none"/></g><g transform="translate(843.1897956830046,673.9190550546314)" id="Provincia di Siena"><path id="p_1551.3435772981447" d="M-6.4725142651738815e-15,35.234726560508705A35.234726560508705,35.234726560508705,0,1,1,6.4725142651738815e-15,-35.234726560508705A35.234726560508705,35.234726560508705,0,1,1,-6.4725142651738815e-15,35.234726560508705Z" fill="rgb(224, 252, 206)" stroke="none"/></g><g transform="translate(730.7979239969396,115.28242218441568)" id="Allevamento"><path id="p_880.2345361187001" d="M-6.457719927508134e-15,35.15418993734493A35.15418993734493,35.15418993734493,0,1,1,6.457719927508134e-15,-35.15418993734493A35.15418993734493,35.15418993734493,0,1,1,-6.457719927508134e-15,35.15418993734493Z" fill="rgb(224, 252, 206)" stroke="none"/></g><g transform="translate(892.177035861528,503.0189627535953)" id="Libertà"><path id="p_1428.4103944925553" d="M-6.285082559408638e-15,34.214395877432075A34.214395877432075,34.214395877432075,0,1,1,6.285082559408638e-15,-34.214395877432075A34.214395877432075,34.214395877432075,0,1,1,-6.285082559408638e-15,34.214395877432075Z" fill="rgb(224, 253, 206)" stroke="none"/></g><g transform="translate(66.81125041956477,510.7697376958401)" id="Sicilia"><path id="p_609.914178571874" d="M-6.123207749682624e-15,33.33319045646925A33.33319045646925,33.33319045646925,0,1,1,6.123207749682624e-15,-33.33319045646925A33.33319045646925,33.33319045646925,0,1,1,-6.123207749682624e-15,33.33319045646925Z" fill="rgb(225, 253, 207)" stroke="none"/></g><g transform="translate(125.56058982851812,702.3125207122977)" id="Corruzione"><path id="p_859.6489221910014" d="M-6.020818924028444e-15,32.775811650185574A32.775811650185574,32.775811650185574,0,1,1,6.020818924028444e-15,-32.775811650185574A32.775811650185574,32.775811650185574,0,1,1,-6.020818924028444e-15,32.775811650185574Z" fill="rgb(225, 253, 207)" stroke="none"/></g><g transform="translate(254.85128318532645,151.55109872268793)" id="Carne"><path id="p_437.6551417197123" d="M-5.924735860059634e-15,32.252759811697906A32.252759811697906,32.252759811697906,0,1,1,5.924735860059634e-15,-32.252759811697906A32.252759811697906,32.252759811697906,0,1,1,-5.924735860059634e-15,32.252759811697906Z" fill="rgb(226, 254, 207)" stroke="none"/></g><g transform="translate(855.2692938558616,278.39120182158416)" id="Economia"><path id="p_1164.247263051607" d="M-5.8023950340267696e-15,31.586767374161123A31.586767374161123,31.586767374161123,0,1,1,5.8023950340267696e-15,-31.586767374161123A31.586767374161123,31.586767374161123,0,1,1,-5.8023950340267696e-15,31.586767374161123Z" fill="rgb(226, 254, 208)" stroke="none"/></g><g transform="translate(79.26479880204164,364.83969375049804)" id="Mondo"><path id="p_474.0109195674449" d="M-5.677418537532745e-15,30.906427014905226A30.906427014905226,30.906427014905226,0,1,1,5.677418537532745e-15,-30.906427014905226A30.906427014905226,30.906427014905226,0,1,1,-5.677418537532745e-15,30.906427014905226Z" fill="rgb(227, 254, 208)" stroke="none"/></g><g transform="translate(190.59374917858145,160.90402917963922)" id="Strada"><path id="p_381.22023691123815" d="M-5.643624079333507e-15,30.722458553017454A30.722458553017454,30.722458553017454,0,1,1,5.643624079333507e-15,-30.722458553017454A30.722458553017454,30.722458553017454,0,1,1,-5.643624079333507e-15,30.722458553017454Z" fill="rgb(227, 254, 208)" stroke="none"/></g><g transform="translate(604.341787632564,96.51224051558415)" id="Denaro"><path id="p_730.2518629360363" d="M-5.583991661099601e-15,30.397834787888197A30.397834787888197,30.397834787888197,0,1,1,5.583991661099601e-15,-30.397834787888197A30.397834787888197,30.397834787888197,0,1,1,-5.583991661099601e-15,30.397834787888197Z" fill="rgb(227, 254, 208)" stroke="none"/></g><g transform="translate(658.0371210178265,862.8975073742511)" id="Pesticida"><path id="p_1549.4813437595378" d="M-5.4276435600116745e-15,29.546715367460028A29.546715367460028,29.546715367460028,0,1,1,5.4276435600116745e-15,-29.546715367460028A29.546715367460028,29.546715367460028,0,1,1,-5.4276435600116745e-15,29.546715367460028Z" fill="rgb(228, 255, 209)" stroke="none"/></g><g transform="translate(560.132923450303,53.5942265799149)" id="Pasqua"><path id="p_641.9846573074453" d="M-5.3745168957130445e-15,29.25750727722743A29.25750727722743,29.25750727722743,0,1,1,5.3745168957130445e-15,-29.25750727722743A29.25750727722743,29.25750727722743,0,1,1,-5.3745168957130445e-15,29.25750727722743Z" fill="rgb(228, 255, 209)" stroke="none"/></g></g><g id="labels"><g transform="translate(340.4120498046407,488.545654724062)"><text text-anchor="middle" dominant-baseline="text-before-edge" transform="translate(0,-11.600000381469727)"><tspan x="0" y="0" dy="0" style="font-family: Arial, sans-serif; font-size: 10px; fill: black; font-weight: bold;">Italia</tspan><tspan x="0" y="0" dy="12" style="font-family: Arial, sans-serif; font-size: 10px; fill: black; font-weight: normal;">7237</tspan></text></g><g transform="translate(623.7815769152309,488.545654724062)"><text text-anchor="middle" dominant-baseline="text-before-edge" transform="translate(0,-11.600000381469727)"><tspan x="0" y="0" dy="0" style="font-family: Arial, sans-serif; font-size: 10px; fill: black; font-weight: bold;">Agricoltura</tspan><tspan x="0" y="0" dy="12" style="font-family: Arial, sans-serif; font-size: 10px; fill: black; font-weight: normal;">6737</tspan></text></g><g transform="translate(486.519704064216,693.1068537031981)"><text text-anchor="middle" dominant-baseline="text-before-edge" transform="translate(0,-11.600000381469727)"><tspan x="0" y="0" dy="0" style="font-family: Arial, sans-serif; font-size: 10px; fill: black; font-weight: bold;">Dio</tspan><tspan x="0" y="0" dy="12" style="font-family: Arial, sans-serif; font-size: 10px; fill: black; font-weight: normal;">3979</tspan></text></g><g transform="translate(486.2885358605483,300.018641504466)"><text text-anchor="middle" dominant-baseline="text-before-edge" transform="translate(0,-11.600000381469727)"><tspan x="0" y="0" dy="0" style="font-family: Arial, sans-serif; font-size: 10px; fill: black; font-weight: bold;">Europa</tspan><tspan x="0" y="0" dy="12" style="font-family: Arial, sans-serif; font-size: 10px; fill: black; font-weight: normal;">3064</tspan></text></g><g transform="translate(309.44324304446593,259.07061669933665)"><text text-anchor="middle" dominant-baseline="text-before-edge" transform="translate(0,-11.600000381469727)"><tspan x="0" y="0" dy="0" style="font-family: Arial, sans-serif; font-size: 10px; fill: black; font-weight: bold;">Roma</tspan><tspan x="0" y="0" dy="12" style="font-family: Arial, sans-serif; font-size: 10px; fill: black; font-weight: normal;">2632</tspan></text></g><g transform="translate(659.352657072553,270.95059455004537)"><text text-anchor="middle" dominant-baseline="text-before-edge" transform="translate(0,-11.600000381469727)"><tspan x="0" y="0" dy="0" style="font-family: Arial, sans-serif; font-size: 10px; fill: black; font-weight: bold;">Agricoltore</tspan><tspan x="0" y="0" dy="12" style="font-family: Arial, sans-serif; font-size: 10px; fill: black; font-weight: normal;">2277</tspan></text></g><g transform="translate(306.6740309008039,703.0532149442627)"><text text-anchor="middle" dominant-baseline="text-before-edge" transform="translate(0,-11.600000381469727)"><tspan x="0" y="0" dy="0" style="font-family: Arial, sans-serif; font-size: 10px; fill: black; font-weight: bold;">Politica</tspan><tspan x="0" y="0" dy="12" style="font-family: Arial, sans-serif; font-size: 10px; fill: black; font-weight: normal;">1827</tspan></text></g><g transform="translate(664.4954674391174,694.5298800155415)"><text text-anchor="middle" dominant-baseline="text-before-edge" transform="translate(0,-11.600000381469727)"><tspan x="0" y="0" dy="0" style="font-family: Arial, sans-serif; font-size: 10px; fill: black; font-weight: bold;">Unione europea</tspan><tspan x="0" y="0" dy="12" style="font-family: Arial, sans-serif; font-size: 10px; fill: black; font-weight: normal;">1720</tspan></text></g><g transform="translate(179.4759921261018,347.4570616507722)"><text text-anchor="middle" dominant-baseline="text-before-edge" transform="translate(0,-11.600000381469727)"><tspan x="0" y="0" dy="0" style="font-family: Arial, sans-serif; font-size: 10px; fill: black; font-weight: bold;">Italiani</tspan><tspan x="0" y="0" dy="12" style="font-family: Arial, sans-serif; font-size: 10px; fill: black; font-weight: normal;">1672</tspan></text></g><g transform="translate(191.31804849914505,631.8706743968258)"><text text-anchor="middle" dominant-baseline="text-before-edge" transform="translate(0,-11.600000381469727)"><tspan x="0" y="0" dy="0" style="font-family: Arial, sans-serif; font-size: 10px; fill: black; font-weight: bold;">Sindacato</tspan><tspan x="0" y="0" dy="12" style="font-family: Arial, sans-serif; font-size: 10px; fill: black; font-weight: normal;">1340</tspan></text></g><g transform="translate(770.3301494014478,355.9440559552169)"><text text-anchor="middle" dominant-baseline="text-before-edge" transform="translate(0,-11.600000381469727)"><tspan x="0" y="0" dy="0" style="font-family: Arial, sans-serif; font-size: 10px; fill: black; font-weight: bold;">Suolo</tspan><tspan x="0" y="0" dy="12" style="font-family: Arial, sans-serif; font-size: 10px; fill: black; font-weight: normal;">1166</tspan></text></g><g transform="translate(767.7350749901291,620.5970042904182)"><text text-anchor="middle" dominant-baseline="text-before-edge" transform="translate(0,-11.600000381469727)"><tspan x="0" y="0" dy="0" style="font-family: Arial, sans-serif; font-size: 10px; fill: black; font-weight: bold;">Lavoro</tspan><tspan x="0" y="0" dy="12" style="font-family: Arial, sans-serif; font-size: 10px; fill: black; font-weight: normal;">1075</tspan></text></g><g transform="translate(418.53763343609774,165.79754612703482)"><text text-anchor="middle" dominant-baseline="text-before-edge" transform="translate(0,-11.600000381469727)"><tspan x="0" y="0" dy="0" style="font-family: Arial, sans-serif; font-size: 10px; fill: black; font-weight: bold;">Facebook</tspan><tspan x="0" y="0" dy="12" style="font-family: Arial, sans-serif; font-size: 10px; fill: black; font-weight: normal;">1075</tspan></text></g><g transform="translate(564.5420296333647,173.09888952066575)"><text text-anchor="middle" dominant-baseline="text-before-edge" transform="translate(0,-11.600000381469727)"><tspan x="0" y="0" dy="0" style="font-family: Arial, sans-serif; font-size: 10px; fill: black; font-weight: bold;">Bruxelles</tspan><tspan x="0" y="0" dy="12" style="font-family: Arial, sans-serif; font-size: 10px; fill: black; font-weight: normal;">1027</tspan></text></g><g transform="translate(375.2868339527902,810.4928503296129)"><text text-anchor="middle" dominant-baseline="text-before-edge" transform="translate(0,-11.600000381469727)"><tspan x="0" y="0" dy="0" style="font-family: Arial, sans-serif; font-size: 10px; fill: black; font-weight: bold;">Francia</tspan><tspan x="0" y="0" dy="12" style="font-family: Arial, sans-serif; font-size: 10px; fill: black; font-weight: normal;">1012</tspan></text></g><g transform="translate(603.45930326801,801.0461763326979)"><text text-anchor="middle" dominant-baseline="text-before-edge" transform="translate(0,-11.600000381469727)"><tspan x="0" y="0" dy="0" style="font-family: Arial, sans-serif; font-size: 10px; fill: black; font-weight: bold;">Governo</tspan><tspan x="0" y="0" dy="12" style="font-family: Arial, sans-serif; font-size: 10px; fill: black; font-weight: normal;">917</tspan></text></g><g transform="translate(149.80053032160492,526.9397783864204)"><text text-anchor="middle" dominant-baseline="text-before-edge" transform="translate(0,-11.600000381469727)"><tspan x="0" y="0" dy="0" style="font-family: Arial, sans-serif; font-size: 10px; fill: black; font-weight: bold;">Euro</tspan><tspan x="0" y="0" dy="12" style="font-family: Arial, sans-serif; font-size: 10px; fill: black; font-weight: normal;">856</tspan></text></g><g transform="translate(809.5781036921387,523.1919916454754)"><text text-anchor="middle" dominant-baseline="text-before-edge" transform="translate(0,-11.600000381469727)"><tspan x="0" y="0" dy="0" style="font-family: Arial, sans-serif; font-size: 10px; fill: black; font-weight: bold;">Germania</tspan><tspan x="0" y="0" dy="12" style="font-family: Arial, sans-serif; font-size: 10px; fill: black; font-weight: normal;">842</tspan></text></g><g transform="translate(847.2134111341945,431.47314121131126)"><text text-anchor="middle" dominant-baseline="text-before-edge" transform="translate(0,-11.600000381469727)"><tspan x="0" y="0" dy="0" style="font-family: Arial, sans-serif; font-size: 10px; fill: black; font-weight: bold;">Alimento</tspan><tspan x="0" y="0" dy="12" style="font-family: Arial, sans-serif; font-size: 10px; fill: black; font-weight: normal;">824</tspan></text></g><g transform="translate(106.5839728567139,439.3279257926646)"><text text-anchor="middle" dominant-baseline="text-before-edge" transform="translate(0,-11.600000381469727)"><tspan x="0" y="0" dy="0" style="font-family: Arial, sans-serif; font-size: 10px; fill: black; font-weight: bold;">Coldiretti</tspan><tspan x="0" y="0" dy="12" style="font-family: Arial, sans-serif; font-size: 10px; fill: black; font-weight: normal;">762</tspan></text></g><g transform="translate(496.03000727291527,97.2177417031196)"><text text-anchor="middle" dominant-baseline="text-before-edge" transform="translate(0,-11.600000381469727)"><tspan x="0" y="0" dy="0" style="font-family: Arial, sans-serif; font-size: 10px; fill: black; font-weight: bold;">Letame</tspan><tspan x="0" y="0" dy="12" style="font-family: Arial, sans-serif; font-size: 10px; fill: black; font-weight: normal;">757</tspan></text></g><g transform="translate(469.20699802669213,844.7279559115834)"><text text-anchor="middle" dominant-baseline="text-before-edge" transform="translate(0,-11.600000381469727)"><tspan x="0" y="0" dy="0" style="font-family: Arial, sans-serif; font-size: 10px; fill: black; font-weight: bold;">Frutta</tspan><tspan x="0" y="0" dy="12" style="font-family: Arial, sans-serif; font-size: 10px; fill: black; font-weight: normal;">697</tspan></text></g><g transform="translate(551.3786987262151,883.1890239382969)"><text text-anchor="middle" dominant-baseline="text-before-edge" transform="translate(0,-11.600000381469727)"><tspan x="0" y="0" dy="0" style="font-family: Arial, sans-serif; font-size: 10px; fill: black; font-weight: bold;">Triticum</tspan><tspan x="0" y="0" dy="12" style="font-family: Arial, sans-serif; font-size: 10px; fill: black; font-weight: normal;">693</tspan></text></g><g transform="translate(777.2133293683512,721.4073741999133)"><text text-anchor="middle" dominant-baseline="text-before-edge" transform="translate(0,-11.600000381469727)"><tspan x="0" y="0" dy="0" style="font-family: Arial, sans-serif; font-size: 10px; fill: black; font-weight: bold;">Verdura</tspan><tspan x="0" y="0" dy="12" style="font-family: Arial, sans-serif; font-size: 10px; fill: black; font-weight: normal;">686</tspan></text></g><g transform="translate(194.77834234542962,739.0143042663367)"><text text-anchor="middle" dominant-baseline="text-before-edge" transform="translate(0,-11.600000381469727)"><tspan x="0" y="0" dy="0" style="font-family: Arial, sans-serif; font-size: 10px; fill: black; font-weight: bold;">Roma (città antica)</tspan><tspan x="0" y="0" dy="12" style="font-family: Arial, sans-serif; font-size: 10px; fill: black; font-weight: normal;">671</tspan></text></g><g transform="translate(783.0324031768334,254.86596235420143)"><text text-anchor="middle" dominant-baseline="text-before-edge" transform="translate(0,-11.600000381469727)"><tspan x="0" y="0" dy="0" style="font-family: Arial, sans-serif; font-size: 10px; fill: black; font-weight: bold;">Produzione</tspan><tspan x="0" y="0" dy="12" style="font-family: Arial, sans-serif; font-size: 10px; fill: black; font-weight: normal;">635</tspan></text></g><g transform="translate(181.56419306668863,234.85596536762407)"><text text-anchor="middle" dominant-baseline="text-before-edge" transform="translate(0,-11.600000381469727)"><tspan x="0" y="0" dy="0" style="font-family: Arial, sans-serif; font-size: 10px; fill: black; font-weight: bold;">Popolo</tspan><tspan x="0" y="0" dy="12" style="font-family: Arial, sans-serif; font-size: 10px; fill: black; font-weight: normal;">617</tspan></text></g><g transform="translate(658.6023437973022,146.93900692510226)"><text text-anchor="middle" dominant-baseline="text-before-edge" transform="translate(0,-11.600000381469727)"><tspan x="0" y="0" dy="0" style="font-family: Arial, sans-serif; font-size: 10px; fill: black; font-weight: bold;">Terra</tspan><tspan x="0" y="0" dy="12" style="font-family: Arial, sans-serif; font-size: 10px; fill: black; font-weight: normal;">614</tspan></text></g><g transform="translate(326.9712409413661,131.21392822371473)"><text text-anchor="middle" dominant-baseline="text-before-edge" transform="translate(0,-11.600000381469727)"><tspan x="0" y="0" dy="0" style="font-family: Arial, sans-serif; font-size: 10px; fill: black; font-weight: bold;">Vita</tspan><tspan x="0" y="0" dy="12" style="font-family: Arial, sans-serif; font-size: 10px; fill: black; font-weight: normal;">585</tspan></text></g><g transform="translate(697.079684681324,802.1742039316914)"><text text-anchor="middle" dominant-baseline="text-before-edge" transform="translate(0,-11.600000381469727)"><tspan x="0" y="0" dy="0" style="font-family: Arial, sans-serif; font-size: 10px; fill: black; font-weight: bold;">Multinazionale</tspan><tspan x="0" y="0" dy="12" style="font-family: Arial, sans-serif; font-size: 10px; fill: black; font-weight: normal;">584</tspan></text></g><g transform="translate(280.1892363798943,813.4694537346392)"><text text-anchor="middle" dominant-baseline="text-before-edge" transform="translate(0,-11.600000381469727)"><tspan x="0" y="0" dy="0" style="font-family: Arial, sans-serif; font-size: 10px; fill: black; font-weight: bold;">Insecta</tspan><tspan x="0" y="0" dy="12" style="font-family: Arial, sans-serif; font-size: 10px; fill: black; font-weight: normal;">554</tspan></text></g><g transform="translate(860.0596863145481,596.5579072865429)"><text text-anchor="middle" dominant-baseline="text-before-edge" transform="translate(0,-11.600000381469727)"><tspan x="0" y="0" dy="0" style="font-family: Arial, sans-serif; font-size: 10px; fill: black; font-weight: bold;">Trattore agricolo</tspan><tspan x="0" y="0" dy="12" style="font-family: Arial, sans-serif; font-size: 10px; fill: black; font-weight: normal;">516</tspan></text></g><g transform="translate(95.31998793651212,597.897666959352)"><text text-anchor="middle" dominant-baseline="text-before-edge" transform="translate(0,-11.600000381469727)"><tspan x="0" y="0" dy="0" style="font-family: Arial, sans-serif; font-size: 10px; fill: black; font-weight: bold;">Supermercato</tspan><tspan x="0" y="0" dy="12" style="font-family: Arial, sans-serif; font-size: 10px; fill: black; font-weight: normal;">516</tspan></text></g><g transform="translate(777.8201657191405,805.6296865393201)"><text text-anchor="middle" dominant-baseline="text-before-edge" transform="translate(0,-11.600000381469727)"><tspan x="0" y="0" dy="0" style="font-family: Arial, sans-serif; font-size: 10px; fill: black; font-weight: bold;">Olio di oliva</tspan><tspan x="0" y="0" dy="12" style="font-family: Arial, sans-serif; font-size: 10px; fill: black; font-weight: normal;">514</tspan></text></g><g transform="translate(201.6157777724937,821.7219355383884)"><text text-anchor="middle" dominant-baseline="text-before-edge" transform="translate(0,-11.600000381469727)"><tspan x="0" y="0" dy="0" style="font-family: Arial, sans-serif; font-size: 10px; fill: black; font-weight: bold;">Famiglia</tspan><tspan x="0" y="0" dy="12" style="font-family: Arial, sans-serif; font-size: 10px; fill: black; font-weight: normal;">494</tspan></text></g><g transform="translate(405.0928878908172,898.0779936556319)"><text text-anchor="middle" dominant-baseline="text-before-edge" transform="translate(0,-11.600000381469727)"><tspan x="0" y="0" dy="0" style="font-family: Arial, sans-serif; font-size: 10px; fill: black; font-weight: bold;">Tradizione</tspan><tspan x="0" y="0" dy="12" style="font-family: Arial, sans-serif; font-size: 10px; fill: black; font-weight: normal;">483</tspan></text></g><g transform="translate(865.3243128536741,347.157598878779)"><text text-anchor="middle" dominant-baseline="text-before-edge" transform="translate(0,-11.600000381469727)"><tspan x="0" y="0" dy="0" style="font-family: Arial, sans-serif; font-size: 10px; fill: black; font-weight: bold;">Verità</tspan><tspan x="0" y="0" dy="12" style="font-family: Arial, sans-serif; font-size: 10px; fill: black; font-weight: normal;">456</tspan></text></g><g transform="translate(741.5327271263966,186.8705841506095)"><text text-anchor="middle" dominant-baseline="text-before-edge" transform="translate(0,-11.600000381469727)"><tspan x="0" y="0" dy="0" style="font-family: Arial, sans-serif; font-size: 10px; fill: black; font-weight: bold;">Prezzo</tspan><tspan x="0" y="0" dy="12" style="font-family: Arial, sans-serif; font-size: 10px; fill: black; font-weight: normal;">439</tspan></text></g><g transform="translate(843.1897956830046,673.9190550546314)"><text text-anchor="middle" dominant-baseline="text-before-edge" transform="translate(0,-11.600000381469727)"><tspan x="0" y="0" dy="0" style="font-family: Arial, sans-serif; font-size: 10px; fill: black; font-weight: bold;">Provincia di Siena</tspan><tspan x="0" y="0" dy="12" style="font-family: Arial, sans-serif; font-size: 10px; fill: black; font-weight: normal;">438</tspan></text></g><g transform="translate(730.7979239969396,115.28242218441568)"><text text-anchor="middle" dominant-baseline="text-before-edge" transform="translate(0,-11.600000381469727)"><tspan x="0" y="0" dy="0" style="font-family: Arial, sans-serif; font-size: 10px; fill: black; font-weight: bold;">Allevamento</tspan><tspan x="0" y="0" dy="12" style="font-family: Arial, sans-serif; font-size: 10px; fill: black; font-weight: normal;">436</tspan></text></g><g transform="translate(892.177035861528,503.0189627535953)"><text text-anchor="middle" dominant-baseline="text-before-edge" transform="translate(0,-11.600000381469727)"><tspan x="0" y="0" dy="0" style="font-family: Arial, sans-serif; font-size: 10px; fill: black; font-weight: bold;">Libertà</tspan><tspan x="0" y="0" dy="12" style="font-family: Arial, sans-serif; font-size: 10px; fill: black; font-weight: normal;">413</tspan></text></g><g transform="translate(66.81125041956477,510.7697376958401)"><text text-anchor="middle" dominant-baseline="text-before-edge" transform="translate(0,-11.600000381469727)"><tspan x="0" y="0" dy="0" style="font-family: Arial, sans-serif; font-size: 10px; fill: black; font-weight: bold;">Sicilia</tspan><tspan x="0" y="0" dy="12" style="font-family: Arial, sans-serif; font-size: 10px; fill: black; font-weight: normal;">392</tspan></text></g><g transform="translate(125.56058982851812,702.3125207122977)"><text text-anchor="middle" dominant-baseline="text-before-edge" transform="translate(0,-11.600000381469727)"><tspan x="0" y="0" dy="0" style="font-family: Arial, sans-serif; font-size: 10px; fill: black; font-weight: bold;">Corruzione</tspan><tspan x="0" y="0" dy="12" style="font-family: Arial, sans-serif; font-size: 10px; fill: black; font-weight: normal;">379</tspan></text></g><g transform="translate(254.85128318532645,151.55109872268793)"><text text-anchor="middle" dominant-baseline="text-before-edge" transform="translate(0,-11.600000381469727)"><tspan x="0" y="0" dy="0" style="font-family: Arial, sans-serif; font-size: 10px; fill: black; font-weight: bold;">Carne</tspan><tspan x="0" y="0" dy="12" style="font-family: Arial, sans-serif; font-size: 10px; fill: black; font-weight: normal;">367</tspan></text></g><g transform="translate(855.2692938558616,278.39120182158416)"><text text-anchor="middle" dominant-baseline="text-before-edge" transform="translate(0,-11.600000381469727)"><tspan x="0" y="0" dy="0" style="font-family: Arial, sans-serif; font-size: 10px; fill: black; font-weight: bold;">Economia</tspan><tspan x="0" y="0" dy="12" style="font-family: Arial, sans-serif; font-size: 10px; fill: black; font-weight: normal;">352</tspan></text></g><g transform="translate(79.26479880204164,364.83969375049804)"><text text-anchor="middle" dominant-baseline="text-before-edge" transform="translate(0,-11.600000381469727)"><tspan x="0" y="0" dy="0" style="font-family: Arial, sans-serif; font-size: 10px; fill: black; font-weight: bold;">Mondo</tspan><tspan x="0" y="0" dy="12" style="font-family: Arial, sans-serif; font-size: 10px; fill: black; font-weight: normal;">337</tspan></text></g><g transform="translate(190.59374917858145,160.90402917963922)"><text text-anchor="middle" dominant-baseline="text-before-edge" transform="translate(0,-11.600000381469727)"><tspan x="0" y="0" dy="0" style="font-family: Arial, sans-serif; font-size: 10px; fill: black; font-weight: bold;">Strada</tspan><tspan x="0" y="0" dy="12" style="font-family: Arial, sans-serif; font-size: 10px; fill: black; font-weight: normal;">333</tspan></text></g><g transform="translate(604.341787632564,96.51224051558415)"><text text-anchor="middle" dominant-baseline="text-before-edge" transform="translate(0,-11.600000381469727)"><tspan x="0" y="0" dy="0" style="font-family: Arial, sans-serif; font-size: 10px; fill: black; font-weight: bold;">Denaro</tspan><tspan x="0" y="0" dy="12" style="font-family: Arial, sans-serif; font-size: 10px; fill: black; font-weight: normal;">326</tspan></text></g><g transform="translate(658.0371210178265,862.8975073742511)"><text text-anchor="middle" dominant-baseline="text-before-edge" transform="translate(0,-11.600000381469727)"><tspan x="0" y="0" dy="0" style="font-family: Arial, sans-serif; font-size: 10px; fill: black; font-weight: bold;">Pesticida</tspan><tspan x="0" y="0" dy="12" style="font-family: Arial, sans-serif; font-size: 10px; fill: black; font-weight: normal;">308</tspan></text></g><g transform="translate(560.132923450303,53.5942265799149)"><text text-anchor="middle" dominant-baseline="text-before-edge" transform="translate(0,-11.600000381469727)"><tspan x="0" y="0" dy="0" style="font-family: Arial, sans-serif; font-size: 10px; fill: black; font-weight: bold;">Pasqua</tspan><tspan x="0" y="0" dy="12" style="font-family: Arial, sans-serif; font-size: 10px; fill: black; font-weight: normal;">302</tspan></text></g></g></g></svg>