<svg xmlns="http://www.w3.org/2000/svg" xmlns:xlink="http://www.w3.org/1999/xlink" version="1.1" class="marks" width="912" height="476" viewBox="0 0 912 476"><g fill="none" stroke-miterlimit="10" transform="translate(54,35)"><g class="mark-group role-frame root" role="graphics-object" aria-roledescription="group mark container"><g transform="translate(0,0)"><path class="background" aria-hidden="true" d="M0.5,0.5h800v400h-800Z" stroke="#ddd"/><g><g class="mark-group role-axis" aria-hidden="true"><g transform="translate(0.5,0.5)"><path class="background" aria-hidden="true" d="M0,0h0v0h0Z" pointer-events="none"/><g><g class="mark-rule role-axis-grid" pointer-events="none"><line transform="translate(0,400)" x2="800" y2="0" stroke="#ddd" stroke-width="1" opacity="1"/><line transform="translate(0,367)" x2="800" y2="0" stroke="#ddd" stroke-width="1" opacity="1"/><line transform="translate(0,333)" x2="800" y2="0" stroke="#ddd" stroke-width="1" opacity="1"/><line transform="translate(0,300)" x2="800" y2="0" stroke="#ddd" stroke-width="1" opacity="1"/><line transform="translate(0,267)" x2="800" y2="0" stroke="#ddd" stroke-width="1" opacity="1"/><line transform="translate(0,233)" x2="800" y2="0" stroke="#ddd" stroke-width="1" opacity="1"/><line transform="translate(0,200)" x2="800" y2="0" stroke="#ddd" stroke-width="1" opacity="1"/><line transform="translate(0,167)" x2="800" y2="0" stroke="#ddd" stroke-width="1" opacity="1"/><line transform="translate(0,133)" x2="800" y2="0" stroke="#ddd" stroke-width="1" opacity="1"/><line transform="translate(0,100)" x2="800" y2="0" stroke="#ddd" stroke-width="1" opacity="1"/><line transform="translate(0,67)" x2="800" y2="0" stroke="#ddd" stroke-width="1" opacity="1"/><line transform="translate(0,33)" x2="800" y2="0" stroke="#ddd" stroke-width="1" opacity="1"/><line transform="translate(0,0)" x2="800" y2="0" stroke="#ddd" stroke-width="1" opacity="1"/></g></g><path class="foreground" aria-hidden="true" d="" pointer-events="none" display="none"/></g></g><g class="mark-group role-axis" role="graphics-symbol" aria-roledescription="axis" aria-label="X-axis titled 'Year' for a discrete scale with 18 values: 2005, 2006, 2007, 2008, 2009, ending with 2022"><g transform="translate(0.5,400.5)"><path class="background" aria-hidden="true" d="M0,0h0v0h0Z" pointer-events="none"/><g><g class="mark-rule role-axis-tick" pointer-events="none"><line transform="translate(22,0)" x2="0" y2="5" stroke="#888" stroke-width="1" opacity="1"/><line transform="translate(67,0)" x2="0" y2="5" stroke="#888" stroke-width="1" opacity="1"/><line transform="translate(111,0)" x2="0" y2="5" stroke="#888" stroke-width="1" opacity="1"/><line transform="translate(156,0)" x2="0" y2="5" stroke="#888" stroke-width="1" opacity="1"/><line transform="translate(200,0)" x2="0" y2="5" stroke="#888" stroke-width="1" opacity="1"/><line transform="translate(244,0)" x2="0" y2="5" stroke="#888" stroke-width="1" opacity="1"/><line transform="translate(289,0)" x2="0" y2="5" stroke="#888" stroke-width="1" opacity="1"/><line transform="translate(333,0)" x2="0" y2="5" stroke="#888" stroke-width="1" opacity="1"/><line transform="translate(378,0)" x2="0" y2="5" stroke="#888" stroke-width="1" opacity="1"/><line transform="translate(422,0)" x2="0" y2="5" stroke="#888" stroke-width="1" opacity="1"/><line transform="translate(467,0)" x2="0" y2="5" stroke="#888" stroke-width="1" opacity="1"/><line transform="translate(511,0)" x2="0" y2="5" stroke="#888" stroke-width="1" opacity="1"/><line transform="translate(556,0)" x2="0" y2="5" stroke="#888" stroke-width="1" opacity="1"/><line transform="translate(600,0)" x2="0" y2="5" stroke="#888" stroke-width="1" opacity="1"/><line transform="translate(644,0)" x2="0" y2="5" stroke="#888" stroke-width="1" opacity="1"/><line transform="translate(689,0)" x2="0" y2="5" stroke="#888" stroke-width="1" opacity="1"/><line transform="translate(733,0)" x2="0" y2="5" stroke="#888" stroke-width="1" opacity="1"/><line transform="translate(778,0)" x2="0" y2="5" stroke="#888" stroke-width="1" opacity="1"/></g><g class="mark-text role-axis-label" pointer-events="none"><text text-anchor="middle" transform="translate(22.22222222222223,16)" font-family="Lato" font-size="12px" fill="#000" opacity="1">2005</text><text text-anchor="middle" transform="translate(66.66666666666667,16)" font-family="Lato" font-size="12px" fill="#000" opacity="1">2006</text><text text-anchor="middle" transform="translate(111.11111111111111,16)" font-family="Lato" font-size="12px" fill="#000" opacity="1">2007</text><text text-anchor="middle" transform="translate(155.55555555555554,16)" font-family="Lato" font-size="12px" fill="#000" opacity="1">2008</text><text text-anchor="middle" transform="translate(200,16)" font-family="Lato" font-size="12px" fill="#000" opacity="1">2009</text><text text-anchor="middle" transform="translate(244.44444444444446,16)" font-family="Lato" font-size="12px" fill="#000" opacity="1">2010</text><text text-anchor="middle" transform="translate(288.88888888888886,16)" font-family="Lato" font-size="12px" fill="#000" opacity="1">2011</text><text text-anchor="middle" transform="translate(333.3333333333333,16)" font-family="Lato" font-size="12px" fill="#000" opacity="1">2012</text><text text-anchor="middle" transform="translate(377.77777777777777,16)" font-family="Lato" font-size="12px" fill="#000" opacity="1">2013</text><text text-anchor="middle" transform="translate(422.22222222222223,16)" font-family="Lato" font-size="12px" fill="#000" opacity="1">2014</text><text text-anchor="middle" transform="translate(466.6666666666667,16)" font-family="Lato" font-size="12px" fill="#000" opacity="1">2015</text><text text-anchor="middle" transform="translate(511.1111111111111,16)" font-family="Lato" font-size="12px" fill="#000" opacity="1">2016</text><text text-anchor="middle" transform="translate(555.5555555555554,16)" font-family="Lato" font-size="12px" fill="#000" opacity="1">2017</text><text text-anchor="middle" transform="translate(600,16)" font-family="Lato" font-size="12px" fill="#000" opacity="1">2018</text><text text-anchor="middle" transform="translate(644.4444444444443,16)" font-family="Lato" font-size="12px" fill="#000" opacity="1">2019</text><text text-anchor="middle" transform="translate(688.8888888888889,16)" font-family="Lato" font-size="12px" fill="#000" opacity="1">2020</text><text text-anchor="middle" transform="translate(733.3333333333333,16)" font-family="Lato" font-size="12px" fill="#000" opacity="1">2021</text><text text-anchor="middle" transform="translate(777.7777777777778,16)" font-family="Lato" font-size="12px" fill="#000" opacity="1">2022</text></g><g class="mark-rule role-axis-domain" pointer-events="none"><line transform="translate(0,0)" x2="800" y2="0" stroke="#888" stroke-width="1" opacity="1"/></g><g class="mark-text role-axis-title" pointer-events="none"><text text-anchor="middle" transform="translate(400,33)" font-family="Lato" font-size="14px" font-weight="bold" fill="#000" opacity="1">Year</text></g></g><path class="foreground" aria-hidden="true" d="" pointer-events="none" display="none"/></g></g><g class="mark-group role-axis" role="graphics-symbol" aria-roledescription="axis" aria-label="Y-axis titled 'Value' for a linear scale with values from 0.3 to 0.8"><g transform="translate(0.5,0.5)"><path class="background" aria-hidden="true" d="M0,0h0v0h0Z" pointer-events="none"/><g><g class="mark-rule role-axis-tick" pointer-events="none"><line transform="translate(0,400)" x2="-5" y2="0" stroke="#888" stroke-width="1" opacity="1"/><line transform="translate(0,367)" x2="-5" y2="0" stroke="#888" stroke-width="1" opacity="1"/><line transform="translate(0,333)" x2="-5" y2="0" stroke="#888" stroke-width="1" opacity="1"/><line transform="translate(0,300)" x2="-5" y2="0" stroke="#888" stroke-width="1" opacity="1"/><line transform="translate(0,267)" x2="-5" y2="0" stroke="#888" stroke-width="1" opacity="1"/><line transform="translate(0,233)" x2="-5" y2="0" stroke="#888" stroke-width="1" opacity="1"/><line transform="translate(0,200)" x2="-5" y2="0" stroke="#888" stroke-width="1" opacity="1"/><line transform="translate(0,167)" x2="-5" y2="0" stroke="#888" stroke-width="1" opacity="1"/><line transform="translate(0,133)" x2="-5" y2="0" stroke="#888" stroke-width="1" opacity="1"/><line transform="translate(0,100)" x2="-5" y2="0" stroke="#888" stroke-width="1" opacity="1"/><line transform="translate(0,67)" x2="-5" y2="0" stroke="#888" stroke-width="1" opacity="1"/><line transform="translate(0,33)" x2="-5" y2="0" stroke="#888" stroke-width="1" opacity="1"/><line transform="translate(0,0)" x2="-5" y2="0" stroke="#888" stroke-width="1" opacity="1"/></g><g class="mark-text role-axis-label" pointer-events="none"><text text-anchor="end" transform="translate(-7,404)" font-family="Lato" font-size="12px" fill="#000" opacity="1">0.25</text><text text-anchor="end" transform="translate(-7,370.6666666666667)" font-family="Lato" font-size="12px" fill="#000" opacity="1">0.30</text><text text-anchor="end" transform="translate(-7,337.33333333333337)" font-family="Lato" font-size="12px" fill="#000" opacity="1">0.35</text><text text-anchor="end" transform="translate(-7,304)" font-family="Lato" font-size="12px" fill="#000" opacity="1">0.40</text><text text-anchor="end" transform="translate(-7,270.66666666666663)" font-family="Lato" font-size="12px" fill="#000" opacity="1">0.45</text><text text-anchor="end" transform="translate(-7,237.33333333333331)" font-family="Lato" font-size="12px" fill="#000" opacity="1">0.50</text><text text-anchor="end" transform="translate(-7,203.99999999999994)" font-family="Lato" font-size="12px" fill="#000" opacity="1">0.55</text><text text-anchor="end" transform="translate(-7,170.66666666666666)" font-family="Lato" font-size="12px" fill="#000" opacity="1">0.60</text><text text-anchor="end" transform="translate(-7,137.33333333333331)" font-family="Lato" font-size="12px" fill="#000" opacity="1">0.65</text><text text-anchor="end" transform="translate(-7,104)" font-family="Lato" font-size="12px" fill="#000" opacity="1">0.70</text><text text-anchor="end" transform="translate(-7,70.66666666666666)" font-family="Lato" font-size="12px" fill="#000" opacity="1">0.75</text><text text-anchor="end" transform="translate(-7,37.3333333333333)" font-family="Lato" font-size="12px" fill="#000" opacity="1">0.80</text><text text-anchor="end" transform="translate(-7,4)" font-family="Lato" font-size="12px" fill="#000" opacity="1">0.85</text></g><g class="mark-rule role-axis-domain" pointer-events="none"><line transform="translate(0,400)" x2="0" y2="-400" stroke="#888" stroke-width="1" opacity="1"/></g><g class="mark-text role-axis-title" pointer-events="none"><text text-anchor="middle" transform="translate(-34.42396545410156,200) rotate(-90) translate(0,-3)" font-family="Lato" font-size="14px" font-weight="bold" fill="#000" opacity="1">Value</text></g></g><path class="foreground" aria-hidden="true" d="" pointer-events="none" display="none"/></g></g><g class="mark-group role-scope layer_0_pathgroup" role="graphics-object" aria-roledescription="group mark container"><g transform="translate(0,0)"><path class="background" aria-hidden="true" d="M0,0h800v400h-800Z"/><g><g class="mark-line role-mark layer_0_marks" role="graphics-object" aria-roledescription="line mark container"><path aria-label="Year: 2005; Value: 0.55743; region: Italy; Percentage: 0.55743" role="graphics-symbol" aria-roledescription="line mark" d="M22.222,195.047L66.667,220.447L111.111,230.04L155.556,212.387L200,228.587L244.444,294.313L288.889,206.513L333.333,168.513L377.778,42.073L422.222,109.913L466.667,136.14L511.111,139.807L555.556,128.267L600,83.42L644.444,109.893L688.889,153.767L733.333,84.387L777.778,11.173" stroke="#18E169" stroke-width="2"/></g></g><path class="foreground" aria-hidden="true" d="" display="none"/></g><g transform="translate(0,0)"><path class="background" aria-hidden="true" d="M0,0h800v400h-800Z"/><g><g class="mark-line role-mark layer_0_marks" role="graphics-object" aria-roledescription="line mark container"><path aria-label="Year: 2005; Value: 0.30575; region: EU; Percentage: 0.30575" role="graphics-symbol" aria-roledescription="line mark" d="M22.222,362.833L66.667,353.087L111.111,321.58L155.556,344.633L200,390.247L244.444,318.153L288.889,284.62L333.333,294.827L377.778,283.047L422.222,280.667L466.667,293.593L511.111,302.413L555.556,243.64L600,259.847L644.444,248.94L688.889,251.533L733.333,201.953L777.778,133.267" stroke="#188FE1" stroke-width="2"/></g></g><path class="foreground" aria-hidden="true" d="" display="none"/></g></g><g class="mark-symbol role-mark layer_1_marks" role="graphics-object" aria-roledescription="symbol mark container"><path aria-label="Year: 2005; Value: 0.55743; region: Italy; Percentage: 0.55743" role="graphics-symbol" aria-roledescription="point" transform="translate(22.22222222222223,195.04666666666668)" d="M2.739,0A2.739,2.739,0,1,1,-2.739,0A2.739,2.739,0,1,1,2.739,0" fill="#18E169" stroke-width="2" opacity="1"/><path aria-label="Year: 2006; Value: 0.51933; region: Italy; Percentage: 0.51933" role="graphics-symbol" aria-roledescription="point" transform="translate(66.66666666666667,220.4466666666667)" d="M2.739,0A2.739,2.739,0,1,1,-2.739,0A2.739,2.739,0,1,1,2.739,0" fill="#18E169" stroke-width="2" opacity="1"/><path aria-label="Year: 2007; Value: 0.50494; region: Italy; Percentage: 0.50494" role="graphics-symbol" aria-roledescription="point" transform="translate(111.11111111111111,230.03999999999996)" d="M2.739,0A2.739,2.739,0,1,1,-2.739,0A2.739,2.739,0,1,1,2.739,0" fill="#18E169" stroke-width="2" opacity="1"/><path aria-label="Year: 2008; Value: 0.53142; region: Italy; Percentage: 0.53142" role="graphics-symbol" aria-roledescription="point" transform="translate(155.55555555555554,212.38666666666663)" d="M2.739,0A2.739,2.739,0,1,1,-2.739,0A2.739,2.739,0,1,1,2.739,0" fill="#18E169" stroke-width="2" opacity="1"/><path aria-label="Year: 2009; Value: 0.50712; region: Italy; Percentage: 0.50712" role="graphics-symbol" aria-roledescription="point" transform="translate(200,228.58666666666662)" d="M2.739,0A2.739,2.739,0,1,1,-2.739,0A2.739,2.739,0,1,1,2.739,0" fill="#18E169" stroke-width="2" opacity="1"/><path aria-label="Year: 2010; Value: 0.40853; region: Italy; Percentage: 0.40853" role="graphics-symbol" aria-roledescription="point" transform="translate(244.44444444444446,294.3133333333333)" d="M2.739,0A2.739,2.739,0,1,1,-2.739,0A2.739,2.739,0,1,1,2.739,0" fill="#18E169" stroke-width="2" opacity="1"/><path aria-label="Year: 2011; Value: 0.54023; region: Italy; Percentage: 0.54023" role="graphics-symbol" aria-roledescription="point" transform="translate(288.88888888888886,206.5133333333333)" d="M2.739,0A2.739,2.739,0,1,1,-2.739,0A2.739,2.739,0,1,1,2.739,0" fill="#18E169" stroke-width="2" opacity="1"/><path aria-label="Year: 2012; Value: 0.59723; region: Italy; Percentage: 0.59723" role="graphics-symbol" aria-roledescription="point" transform="translate(333.3333333333333,168.5133333333333)" d="M2.739,0A2.739,2.739,0,1,1,-2.739,0A2.739,2.739,0,1,1,2.739,0" fill="#18E169" stroke-width="2" opacity="1"/><path aria-label="Year: 2013; Value: 0.78689; region: Italy; Percentage: 0.78689" role="graphics-symbol" aria-roledescription="point" transform="translate(377.77777777777777,42.073333333333316)" d="M2.739,0A2.739,2.739,0,1,1,-2.739,0A2.739,2.739,0,1,1,2.739,0" fill="#18E169" stroke-width="2" opacity="1"/><path aria-label="Year: 2014; Value: 0.68513; region: Italy; Percentage: 0.68513" role="graphics-symbol" aria-roledescription="point" transform="translate(422.22222222222223,109.91333333333331)" d="M2.739,0A2.739,2.739,0,1,1,-2.739,0A2.739,2.739,0,1,1,2.739,0" fill="#18E169" stroke-width="2" opacity="1"/><path aria-label="Year: 2015; Value: 0.64579; region: Italy; Percentage: 0.64579" role="graphics-symbol" aria-roledescription="point" transform="translate(466.6666666666667,136.14000000000001)" d="M2.739,0A2.739,2.739,0,1,1,-2.739,0A2.739,2.739,0,1,1,2.739,0" fill="#18E169" stroke-width="2" opacity="1"/><path aria-label="Year: 2016; Value: 0.64029; region: Italy; Percentage: 0.64029" role="graphics-symbol" aria-roledescription="point" transform="translate(511.1111111111111,139.80666666666664)" d="M2.739,0A2.739,2.739,0,1,1,-2.739,0A2.739,2.739,0,1,1,2.739,0" fill="#18E169" stroke-width="2" opacity="1"/><path aria-label="Year: 2017; Value: 0.6576; region: Italy; Percentage: 0.6576" role="graphics-symbol" aria-roledescription="point" transform="translate(555.5555555555554,128.26666666666662)" d="M2.739,0A2.739,2.739,0,1,1,-2.739,0A2.739,2.739,0,1,1,2.739,0" fill="#18E169" stroke-width="2" opacity="1"/><path aria-label="Year: 2018; Value: 0.72487; region: Italy; Percentage: 0.72487" role="graphics-symbol" aria-roledescription="point" transform="translate(600,83.41999999999996)" d="M2.739,0A2.739,2.739,0,1,1,-2.739,0A2.739,2.739,0,1,1,2.739,0" fill="#18E169" stroke-width="2" opacity="1"/><path aria-label="Year: 2019; Value: 0.68516; region: Italy; Percentage: 0.68516" role="graphics-symbol" aria-roledescription="point" transform="translate(644.4444444444443,109.89333333333326)" d="M2.739,0A2.739,2.739,0,1,1,-2.739,0A2.739,2.739,0,1,1,2.739,0" fill="#18E169" stroke-width="2" opacity="1"/><path aria-label="Year: 2020; Value: 0.61935; region: Italy; Percentage: 0.61935" role="graphics-symbol" aria-roledescription="point" transform="translate(688.8888888888889,153.7666666666665)" d="M2.739,0A2.739,2.739,0,1,1,-2.739,0A2.739,2.739,0,1,1,2.739,0" fill="#18E169" stroke-width="2" opacity="1"/><path aria-label="Year: 2021; Value: 0.72342; region: Italy; Percentage: 0.72342" role="graphics-symbol" aria-roledescription="point" transform="translate(733.3333333333333,84.3866666666667)" d="M2.739,0A2.739,2.739,0,1,1,-2.739,0A2.739,2.739,0,1,1,2.739,0" fill="#18E169" stroke-width="2" opacity="1"/><path aria-label="Year: 2022; Value: 0.83324; region: Italy; Percentage: 0.83324" role="graphics-symbol" aria-roledescription="point" transform="translate(777.7777777777778,11.173333333333346)" d="M2.739,0A2.739,2.739,0,1,1,-2.739,0A2.739,2.739,0,1,1,2.739,0" fill="#18E169" stroke-width="2" opacity="1"/><path aria-label="Year: 2005; Value: 0.30575; region: EU; Percentage: 0.30575" role="graphics-symbol" aria-roledescription="point" transform="translate(22.22222222222223,362.8333333333333)" d="M2.739,0A2.739,2.739,0,1,1,-2.739,0A2.739,2.739,0,1,1,2.739,0" fill="#188FE1" stroke-width="2" opacity="1"/><path aria-label="Year: 2006; Value: 0.32037; region: EU; Percentage: 0.32037" role="graphics-symbol" aria-roledescription="point" transform="translate(66.66666666666667,353.0866666666667)" d="M2.739,0A2.739,2.739,0,1,1,-2.739,0A2.739,2.739,0,1,1,2.739,0" fill="#188FE1" stroke-width="2" opacity="1"/><path aria-label="Year: 2007; Value: 0.36763; region: EU; Percentage: 0.36763" role="graphics-symbol" aria-roledescription="point" transform="translate(111.11111111111111,321.58)" d="M2.739,0A2.739,2.739,0,1,1,-2.739,0A2.739,2.739,0,1,1,2.739,0" fill="#188FE1" stroke-width="2" opacity="1"/><path aria-label="Year: 2008; Value: 0.33305; region: EU; Percentage: 0.33305" role="graphics-symbol" aria-roledescription="point" transform="translate(155.55555555555554,344.6333333333333)" d="M2.739,0A2.739,2.739,0,1,1,-2.739,0A2.739,2.739,0,1,1,2.739,0" fill="#188FE1" stroke-width="2" opacity="1"/><path aria-label="Year: 2009; Value: 0.26463; region: EU; Percentage: 0.26463" role="graphics-symbol" aria-roledescription="point" transform="translate(200,390.24666666666667)" d="M2.739,0A2.739,2.739,0,1,1,-2.739,0A2.739,2.739,0,1,1,2.739,0" fill="#188FE1" stroke-width="2" opacity="1"/><path aria-label="Year: 2010; Value: 0.37277; region: EU; Percentage: 0.37277" role="graphics-symbol" aria-roledescription="point" transform="translate(244.44444444444446,318.1533333333333)" d="M2.739,0A2.739,2.739,0,1,1,-2.739,0A2.739,2.739,0,1,1,2.739,0" fill="#188FE1" stroke-width="2" opacity="1"/><path aria-label="Year: 2011; Value: 0.42307; region: EU; Percentage: 0.42307" role="graphics-symbol" aria-roledescription="point" transform="translate(288.88888888888886,284.6199999999999)" d="M2.739,0A2.739,2.739,0,1,1,-2.739,0A2.739,2.739,0,1,1,2.739,0" fill="#188FE1" stroke-width="2" opacity="1"/><path aria-label="Year: 2012; Value: 0.40776; region: EU; Percentage: 0.40776" role="graphics-symbol" aria-roledescription="point" transform="translate(333.3333333333333,294.8266666666666)" d="M2.739,0A2.739,2.739,0,1,1,-2.739,0A2.739,2.739,0,1,1,2.739,0" fill="#188FE1" stroke-width="2" opacity="1"/><path aria-label="Year: 2013; Value: 0.42543; region: EU; Percentage: 0.42543" role="graphics-symbol" aria-roledescription="point" transform="translate(377.77777777777777,283.0466666666667)" d="M2.739,0A2.739,2.739,0,1,1,-2.739,0A2.739,2.739,0,1,1,2.739,0" fill="#188FE1" stroke-width="2" opacity="1"/><path aria-label="Year: 2014; Value: 0.429; region: EU; Percentage: 0.429" role="graphics-symbol" aria-roledescription="point" transform="translate(422.22222222222223,280.6666666666667)" d="M2.739,0A2.739,2.739,0,1,1,-2.739,0A2.739,2.739,0,1,1,2.739,0" fill="#188FE1" stroke-width="2" opacity="1"/><path aria-label="Year: 2015; Value: 0.40961; region: EU; Percentage: 0.40961" role="graphics-symbol" aria-roledescription="point" transform="translate(466.6666666666667,293.59333333333336)" d="M2.739,0A2.739,2.739,0,1,1,-2.739,0A2.739,2.739,0,1,1,2.739,0" fill="#188FE1" stroke-width="2" opacity="1"/><path aria-label="Year: 2016; Value: 0.39638; region: EU; Percentage: 0.39638" role="graphics-symbol" aria-roledescription="point" transform="translate(511.1111111111111,302.41333333333336)" d="M2.739,0A2.739,2.739,0,1,1,-2.739,0A2.739,2.739,0,1,1,2.739,0" fill="#188FE1" stroke-width="2" opacity="1"/><path aria-label="Year: 2017; Value: 0.48454; region: EU; Percentage: 0.48454" role="graphics-symbol" aria-roledescription="point" transform="translate(555.5555555555554,243.64)" d="M2.739,0A2.739,2.739,0,1,1,-2.739,0A2.739,2.739,0,1,1,2.739,0" fill="#188FE1" stroke-width="2" opacity="1"/><path aria-label="Year: 2018; Value: 0.46023; region: EU; Percentage: 0.46023" role="graphics-symbol" aria-roledescription="point" transform="translate(600,259.8466666666667)" d="M2.739,0A2.739,2.739,0,1,1,-2.739,0A2.739,2.739,0,1,1,2.739,0" fill="#188FE1" stroke-width="2" opacity="1"/><path aria-label="Year: 2019; Value: 0.47659; region: EU; Percentage: 0.47659" role="graphics-symbol" aria-roledescription="point" transform="translate(644.4444444444443,248.94)" d="M2.739,0A2.739,2.739,0,1,1,-2.739,0A2.739,2.739,0,1,1,2.739,0" fill="#188FE1" stroke-width="2" opacity="1"/><path aria-label="Year: 2020; Value: 0.4727; region: EU; Percentage: 0.4727" role="graphics-symbol" aria-roledescription="point" transform="translate(688.8888888888889,251.53333333333325)" d="M2.739,0A2.739,2.739,0,1,1,-2.739,0A2.739,2.739,0,1,1,2.739,0" fill="#188FE1" stroke-width="2" opacity="1"/><path aria-label="Year: 2021; Value: 0.54707; region: EU; Percentage: 0.54707" role="graphics-symbol" aria-roledescription="point" transform="translate(733.3333333333333,201.9533333333333)" d="M2.739,0A2.739,2.739,0,1,1,-2.739,0A2.739,2.739,0,1,1,2.739,0" fill="#188FE1" stroke-width="2" opacity="1"/><path aria-label="Year: 2022; Value: 0.6501; region: EU; Percentage: 0.6501" role="graphics-symbol" aria-roledescription="point" transform="translate(777.7777777777778,133.26666666666665)" d="M2.739,0A2.739,2.739,0,1,1,-2.739,0A2.739,2.739,0,1,1,2.739,0" fill="#188FE1" stroke-width="2" opacity="1"/></g><g class="mark-group role-legend" role="graphics-symbol" aria-roledescription="legend" aria-label="Symbol legend titled 'region' for fill color and stroke color with 2 values: Italy, EU"><g transform="translate(818,0)"><path class="background" aria-hidden="true" d="M0,0h35v45h-35Z" pointer-events="none"/><g><g class="mark-group role-legend-entry"><g transform="translate(0,16)"><path class="background" aria-hidden="true" d="M0,0h0v0h0Z" pointer-events="none"/><g><g class="mark-group role-scope" role="graphics-object" aria-roledescription="group mark container"><g transform="translate(0,0)"><path class="background" aria-hidden="true" d="M0,0h34.33984375v12.5h-34.33984375Z" pointer-events="none" opacity="1"/><g><g class="mark-symbol role-legend-symbol" pointer-events="none"><path transform="translate(6,6)" d="M5,0A5,5,0,1,1,-5,0A5,5,0,1,1,5,0" fill="#18E169" stroke="#18E169" stroke-width="1.5" opacity="1"/></g><g class="mark-text role-legend-label" pointer-events="none"><text text-anchor="start" transform="translate(16,9)" font-family="sans-serif" font-size="10px" fill="#000" opacity="1">Italy</text></g></g><path class="foreground" aria-hidden="true" d="" pointer-events="none" display="none"/></g><g transform="translate(0,16)"><path class="background" aria-hidden="true" d="M0,0h34.33984375v12.5h-34.33984375Z" pointer-events="none" opacity="1"/><g><g class="mark-symbol role-legend-symbol" pointer-events="none"><path transform="translate(6,6)" d="M5,0A5,5,0,1,1,-5,0A5,5,0,1,1,5,0" fill="#188FE1" stroke="#188FE1" stroke-width="1.5" opacity="1"/></g><g class="mark-text role-legend-label" pointer-events="none"><text text-anchor="start" transform="translate(16,9)" font-family="sans-serif" font-size="10px" fill="#000" opacity="1">EU</text></g></g><path class="foreground" aria-hidden="true" d="" pointer-events="none" display="none"/></g></g></g><path class="foreground" aria-hidden="true" d="" pointer-events="none" display="none"/></g></g><g class="mark-text role-legend-title" pointer-events="none"><text text-anchor="start" transform="translate(0,9)" font-family="sans-serif" font-size="11px" font-weight="bold" fill="#000" opacity="1">region</text></g></g><path class="foreground" aria-hidden="true" d="" pointer-events="none" display="none"/></g></g><g class="mark-group role-title"><g transform="translate(-48.42396545410156,-30)"><path class="background" aria-hidden="true" d="M0,0h0v0h0Z" pointer-events="none"/><g><g class="mark-text role-title-text" role="graphics-symbol" aria-roledescription="title" aria-label="Title text 'Italia ed Europa a confronto: unità familiari in agricoltura'" pointer-events="none"><text text-anchor="start" transform="translate(0,16)" font-family="Lato" font-size="20px" font-weight="bold" fill="black" opacity="1">Italia ed Eurpa a confronto: unità familiari in agricoltura</text></g></g><path class="foreground" aria-hidden="true" d="" pointer-events="none" display="none"/></g></g></g><path class="foreground" aria-hidden="true" d="" display="none"/></g></g></g></svg>