<svg xmlns="http://www.w3.org/2000/svg" xmlns:xlink="http://www.w3.org/1999/xlink" version="1.1" class="marks" width="1116" height="670" viewBox="0 0 1116 670"><g fill="none" stroke-miterlimit="10" transform="translate(141,29)"><g class="mark-group role-frame root" role="graphics-object" aria-roledescription="group mark container"><g transform="translate(0,0)"><path class="background" aria-hidden="true" d="M0.5,0.5h969v600h-969Z" stroke="#ddd"/><g><g class="mark-group role-axis" aria-hidden="true"><g transform="translate(0.5,600.5)"><path class="background" aria-hidden="true" d="M0,0h0v0h0Z" pointer-events="none"/><g><g class="mark-rule role-axis-grid" pointer-events="none"><line transform="translate(0,0)" x2="0" y2="-600" stroke="#ddd" stroke-width="1" opacity="1"/><line transform="translate(54,0)" x2="0" y2="-600" stroke="#ddd" stroke-width="1" opacity="1"/><line transform="translate(108,0)" x2="0" y2="-600" stroke="#ddd" stroke-width="1" opacity="1"/><line transform="translate(162,0)" x2="0" y2="-600" stroke="#ddd" stroke-width="1" opacity="1"/><line transform="translate(215,0)" x2="0" y2="-600" stroke="#ddd" stroke-width="1" opacity="1"/><line transform="translate(269,0)" x2="0" y2="-600" stroke="#ddd" stroke-width="1" opacity="1"/><line transform="translate(323,0)" x2="0" y2="-600" stroke="#ddd" stroke-width="1" opacity="1"/><line transform="translate(377,0)" x2="0" y2="-600" stroke="#ddd" stroke-width="1" opacity="1"/><line transform="translate(431,0)" x2="0" y2="-600" stroke="#ddd" stroke-width="1" opacity="1"/><line transform="translate(485,0)" x2="0" y2="-600" stroke="#ddd" stroke-width="1" opacity="1"/><line transform="translate(538,0)" x2="0" y2="-600" stroke="#ddd" stroke-width="1" opacity="1"/><line transform="translate(592,0)" x2="0" y2="-600" stroke="#ddd" stroke-width="1" opacity="1"/><line transform="translate(646,0)" x2="0" y2="-600" stroke="#ddd" stroke-width="1" opacity="1"/><line transform="translate(700,0)" x2="0" y2="-600" stroke="#ddd" stroke-width="1" opacity="1"/><line transform="translate(754,0)" x2="0" y2="-600" stroke="#ddd" stroke-width="1" opacity="1"/><line transform="translate(808,0)" x2="0" y2="-600" stroke="#ddd" stroke-width="1" opacity="1"/><line transform="translate(861,0)" x2="0" y2="-600" stroke="#ddd" stroke-width="1" opacity="1"/><line transform="translate(915,0)" x2="0" y2="-600" stroke="#ddd" stroke-width="1" opacity="1"/><line transform="translate(969,0)" x2="0" y2="-600" stroke="#ddd" stroke-width="1" opacity="1"/></g></g><path class="foreground" aria-hidden="true" d="" pointer-events="none" display="none"/></g></g><g class="mark-group role-axis" role="graphics-symbol" aria-roledescription="axis" aria-label="X-axis titled 'Percentage' for a linear scale with values from 0 to 90"><g transform="translate(0.5,600.5)"><path class="background" aria-hidden="true" d="M0,0h0v0h0Z" pointer-events="none"/><g><g class="mark-rule role-axis-tick" pointer-events="none"><line transform="translate(0,0)" x2="0" y2="5" stroke="#888" stroke-width="1" opacity="1"/><line transform="translate(54,0)" x2="0" y2="5" stroke="#888" stroke-width="1" opacity="1"/><line transform="translate(108,0)" x2="0" y2="5" stroke="#888" stroke-width="1" opacity="1"/><line transform="translate(162,0)" x2="0" y2="5" stroke="#888" stroke-width="1" opacity="1"/><line transform="translate(215,0)" x2="0" y2="5" stroke="#888" stroke-width="1" opacity="1"/><line transform="translate(269,0)" x2="0" y2="5" stroke="#888" stroke-width="1" opacity="1"/><line transform="translate(323,0)" x2="0" y2="5" stroke="#888" stroke-width="1" opacity="1"/><line transform="translate(377,0)" x2="0" y2="5" stroke="#888" stroke-width="1" opacity="1"/><line transform="translate(431,0)" x2="0" y2="5" stroke="#888" stroke-width="1" opacity="1"/><line transform="translate(485,0)" x2="0" y2="5" stroke="#888" stroke-width="1" opacity="1"/><line transform="translate(538,0)" x2="0" y2="5" stroke="#888" stroke-width="1" opacity="1"/><line transform="translate(592,0)" x2="0" y2="5" stroke="#888" stroke-width="1" opacity="1"/><line transform="translate(646,0)" x2="0" y2="5" stroke="#888" stroke-width="1" opacity="1"/><line transform="translate(700,0)" x2="0" y2="5" stroke="#888" stroke-width="1" opacity="1"/><line transform="translate(754,0)" x2="0" y2="5" stroke="#888" stroke-width="1" opacity="1"/><line transform="translate(808,0)" x2="0" y2="5" stroke="#888" stroke-width="1" opacity="1"/><line transform="translate(861,0)" x2="0" y2="5" stroke="#888" stroke-width="1" opacity="1"/><line transform="translate(915,0)" x2="0" y2="5" stroke="#888" stroke-width="1" opacity="1"/><line transform="translate(969,0)" x2="0" y2="5" stroke="#888" stroke-width="1" opacity="1"/></g><g class="mark-text role-axis-label" pointer-events="none"><text text-anchor="start" transform="translate(0,16)" font-family="Lato" font-size="12px" fill="#000" opacity="1">0</text><text text-anchor="middle" transform="translate(53.83333333333333,16)" font-family="Lato" font-size="12px" fill="#000" opacity="1">5</text><text text-anchor="middle" transform="translate(107.66666666666666,16)" font-family="Lato" font-size="12px" fill="#000" opacity="1">10</text><text text-anchor="middle" transform="translate(161.5,16)" font-family="Lato" font-size="12px" fill="#000" opacity="1">15</text><text text-anchor="middle" transform="translate(215.33333333333331,16)" font-family="Lato" font-size="12px" fill="#000" opacity="1">20</text><text text-anchor="middle" transform="translate(269.1666666666667,16)" font-family="Lato" font-size="12px" fill="#000" opacity="1">25</text><text text-anchor="middle" transform="translate(323,16)" font-family="Lato" font-size="12px" fill="#000" opacity="1">30</text><text text-anchor="middle" transform="translate(376.8333333333333,16)" font-family="Lato" font-size="12px" fill="#000" opacity="1">35</text><text text-anchor="middle" transform="translate(430.66666666666663,16)" font-family="Lato" font-size="12px" fill="#000" opacity="1">40</text><text text-anchor="middle" transform="translate(484.5,16)" font-family="Lato" font-size="12px" fill="#000" opacity="1">45</text><text text-anchor="middle" transform="translate(538.3333333333334,16)" font-family="Lato" font-size="12px" fill="#000" opacity="1">50</text><text text-anchor="middle" transform="translate(592.1666666666667,16)" font-family="Lato" font-size="12px" fill="#000" opacity="1">55</text><text text-anchor="middle" transform="translate(646,16)" font-family="Lato" font-size="12px" fill="#000" opacity="1">60</text><text text-anchor="middle" transform="translate(699.8333333333334,16)" font-family="Lato" font-size="12px" fill="#000" opacity="1">65</text><text text-anchor="middle" transform="translate(753.6666666666666,16)" font-family="Lato" font-size="12px" fill="#000" opacity="1">70</text><text text-anchor="middle" transform="translate(807.5,16)" font-family="Lato" font-size="12px" fill="#000" opacity="1">75</text><text text-anchor="middle" transform="translate(861.3333333333333,16)" font-family="Lato" font-size="12px" fill="#000" opacity="1">80</text><text text-anchor="middle" transform="translate(915.1666666666666,16)" font-family="Lato" font-size="12px" fill="#000" opacity="1">85</text><text text-anchor="end" transform="translate(969,16)" font-family="Lato" font-size="12px" fill="#000" opacity="1">90</text></g><g class="mark-rule role-axis-domain" pointer-events="none"><line transform="translate(0,0)" x2="969" y2="0" stroke="#888" stroke-width="1" opacity="1"/></g><g class="mark-text role-axis-title" pointer-events="none"><text text-anchor="middle" transform="translate(484.5,33)" font-family="Lato" font-size="14px" font-weight="bold" fill="#000" opacity="1">Percentage</text></g></g><path class="foreground" aria-hidden="true" d="" pointer-events="none" display="none"/></g></g><g class="mark-group role-axis" role="graphics-symbol" aria-roledescription="axis" aria-label="Y-axis titled 'Category' for a discrete scale with 3 values: Family Groups, Multinationals, Foreign Multinationals"><g transform="translate(0.5,0.5)"><path class="background" aria-hidden="true" d="M0,0h0v0h0Z" pointer-events="none"/><g><g class="mark-rule role-axis-tick" pointer-events="none"><line transform="translate(0,100)" x2="-5" y2="0" stroke="#888" stroke-width="1" opacity="1"/><line transform="translate(0,300)" x2="-5" y2="0" stroke="#888" stroke-width="1" opacity="1"/><line transform="translate(0,500)" x2="-5" y2="0" stroke="#888" stroke-width="1" opacity="1"/></g><g class="mark-text role-axis-label" pointer-events="none"><text text-anchor="end" transform="translate(-7,103.5)" font-family="Lato" font-size="12px" fill="#000" opacity="1">Family Groups</text><text text-anchor="end" transform="translate(-7,303.5)" font-family="Lato" font-size="12px" fill="#000" opacity="1">Multinationals</text><text text-anchor="end" transform="translate(-7,503.5)" font-family="Lato" font-size="12px" fill="#000" opacity="1">Foreign Multinationals</text></g><g class="mark-rule role-axis-domain" pointer-events="none"><line transform="translate(0,0)" x2="0" y2="600" stroke="#888" stroke-width="1" opacity="1"/></g><g class="mark-text role-axis-title" pointer-events="none"><text text-anchor="middle" transform="translate(-121.326171875,300) rotate(-90) translate(0,-3)" font-family="Lato" font-size="14px" font-weight="bold" fill="#000" opacity="1">Category</text></g></g><path class="foreground" aria-hidden="true" d="" pointer-events="none" display="none"/></g></g><g class="mark-rect role-mark marks" role="graphics-object" aria-roledescription="rect mark container"><path aria-label="Percentage: 83; Category: Family Groups" role="graphics-symbol" aria-roledescription="bar" d="M0,10h893.6333333333334v180h-893.6333333333334Z" fill="#18E169"/><path aria-label="Percentage: 12.5; Category: Multinationals" role="graphics-symbol" aria-roledescription="bar" d="M0,210h134.58333333333334v180h-134.58333333333334Z" fill="#70F0A4"/><path aria-label="Percentage: 4.5; Category: Foreign Multinationals" role="graphics-symbol" aria-roledescription="bar" d="M0,410h48.45v180h-48.45Z" fill="#AEF6CB"/></g><g class="mark-group role-title"><g transform="translate(-135.326171875,-24)"><path class="background" aria-hidden="true" d="M0,0h0v0h0Z" pointer-events="none"/><g><g class="mark-text role-title-text" role="graphics-symbol" aria-roledescription="title" aria-label="Title text 'Composizione della forza-lavoro nel settore agricolo'" pointer-events="none"><text text-anchor="start" transform="translate(0,16)" font-family="Lato" font-size="20px" font-weight="bold" fill="black" opacity="1">Composizione della forza-lavoro nel settore agricolo</text></g></g><path class="foreground" aria-hidden="true" d="" pointer-events="none" display="none"/></g></g></g><path class="foreground" aria-hidden="true" d="" display="none"/></g></g></g></svg>