<svg xmlns="http://www.w3.org/2000/svg" xmlns:xlink="http://www.w3.org/1999/xlink" version="1.1" class="marks" width="1116" height="493" viewBox="0 0 1116 493"><g fill="none" stroke-miterlimit="10" transform="translate(51,35)"><g class="mark-group role-frame root" role="graphics-object" aria-roledescription="group mark container"><g transform="translate(0,0)"><path class="background" aria-hidden="true" d="M0.5,0.5h1060v400h-1060Z" stroke="#ddd"/><g><g class="mark-group role-axis" aria-hidden="true"><g transform="translate(0.5,0.5)"><path class="background" aria-hidden="true" d="M0,0h0v0h0Z" pointer-events="none"/><g><g class="mark-rule role-axis-grid" pointer-events="none"><line transform="translate(0,400)" x2="1060" y2="0" stroke="#ddd" stroke-width="1" opacity="1"/><line transform="translate(0,350)" x2="1060" y2="0" stroke="#ddd" stroke-width="1" opacity="1"/><line transform="translate(0,300)" x2="1060" y2="0" stroke="#ddd" stroke-width="1" opacity="1"/><line transform="translate(0,250)" x2="1060" y2="0" stroke="#ddd" stroke-width="1" opacity="1"/><line transform="translate(0,200)" x2="1060" y2="0" stroke="#ddd" stroke-width="1" opacity="1"/><line transform="translate(0,150)" x2="1060" y2="0" stroke="#ddd" stroke-width="1" opacity="1"/><line transform="translate(0,100)" x2="1060" y2="0" stroke="#ddd" stroke-width="1" opacity="1"/><line transform="translate(0,50)" x2="1060" y2="0" stroke="#ddd" stroke-width="1" opacity="1"/><line transform="translate(0,0)" x2="1060" y2="0" stroke="#ddd" stroke-width="1" opacity="1"/></g></g><path class="foreground" aria-hidden="true" d="" pointer-events="none" display="none"/></g></g><g class="mark-group role-axis" role="graphics-symbol" aria-roledescription="axis" aria-label="X-axis titled 'Year' for a discrete scale with 20 values: 2011, 2012, 2013, 2014, 2015, ending with 2030"><g transform="translate(0.5,400.5)"><path class="background" aria-hidden="true" d="M0,0h0v0h0Z" pointer-events="none"/><g><g class="mark-rule role-axis-tick" pointer-events="none"><line transform="translate(27,0)" x2="0" y2="5" stroke="#888" stroke-width="1" opacity="1"/><line transform="translate(80,0)" x2="0" y2="5" stroke="#888" stroke-width="1" opacity="1"/><line transform="translate(133,0)" x2="0" y2="5" stroke="#888" stroke-width="1" opacity="1"/><line transform="translate(186,0)" x2="0" y2="5" stroke="#888" stroke-width="1" opacity="1"/><line transform="translate(239,0)" x2="0" y2="5" stroke="#888" stroke-width="1" opacity="1"/><line transform="translate(292,0)" x2="0" y2="5" stroke="#888" stroke-width="1" opacity="1"/><line transform="translate(345,0)" x2="0" y2="5" stroke="#888" stroke-width="1" opacity="1"/><line transform="translate(398,0)" x2="0" y2="5" stroke="#888" stroke-width="1" opacity="1"/><line transform="translate(451,0)" x2="0" y2="5" stroke="#888" stroke-width="1" opacity="1"/><line transform="translate(504,0)" x2="0" y2="5" stroke="#888" stroke-width="1" opacity="1"/><line transform="translate(557,0)" x2="0" y2="5" stroke="#888" stroke-width="1" opacity="1"/><line transform="translate(610,0)" x2="0" y2="5" stroke="#888" stroke-width="1" opacity="1"/><line transform="translate(663,0)" x2="0" y2="5" stroke="#888" stroke-width="1" opacity="1"/><line transform="translate(716,0)" x2="0" y2="5" stroke="#888" stroke-width="1" opacity="1"/><line transform="translate(769,0)" x2="0" y2="5" stroke="#888" stroke-width="1" opacity="1"/><line transform="translate(822,0)" x2="0" y2="5" stroke="#888" stroke-width="1" opacity="1"/><line transform="translate(875,0)" x2="0" y2="5" stroke="#888" stroke-width="1" opacity="1"/><line transform="translate(928,0)" x2="0" y2="5" stroke="#888" stroke-width="1" opacity="1"/><line transform="translate(981,0)" x2="0" y2="5" stroke="#888" stroke-width="1" opacity="1"/><line transform="translate(1034,0)" x2="0" y2="5" stroke="#888" stroke-width="1" opacity="1"/></g><g class="mark-text role-axis-label" pointer-events="none"><text text-anchor="end" transform="translate(26.5,7) rotate(270) translate(0,4)" font-family="Lato" font-size="12px" fill="#000" opacity="1">2011</text><text text-anchor="end" transform="translate(79.5,7) rotate(270) translate(0,4)" font-family="Lato" font-size="12px" fill="#000" opacity="1">2012</text><text text-anchor="end" transform="translate(132.5,7) rotate(270) translate(0,4)" font-family="Lato" font-size="12px" fill="#000" opacity="1">2013</text><text text-anchor="end" transform="translate(185.5,7) rotate(270) translate(0,4)" font-family="Lato" font-size="12px" fill="#000" opacity="1">2014</text><text text-anchor="end" transform="translate(238.5,7) rotate(270) translate(0,4)" font-family="Lato" font-size="12px" fill="#000" opacity="1">2015</text><text text-anchor="end" transform="translate(291.5,7) rotate(270) translate(0,4)" font-family="Lato" font-size="12px" fill="#000" opacity="1">2016</text><text text-anchor="end" transform="translate(344.5,7) rotate(270) translate(0,4)" font-family="Lato" font-size="12px" fill="#000" opacity="1">2017</text><text text-anchor="end" transform="translate(397.5,7) rotate(270) translate(0,4)" font-family="Lato" font-size="12px" fill="#000" opacity="1">2018</text><text text-anchor="end" transform="translate(450.5,7) rotate(270) translate(0,4)" font-family="Lato" font-size="12px" fill="#000" opacity="1">2019</text><text text-anchor="end" transform="translate(503.5,7) rotate(270) translate(0,4)" font-family="Lato" font-size="12px" fill="#000" opacity="1">2020</text><text text-anchor="end" transform="translate(556.5,7) rotate(270) translate(0,4)" font-family="Lato" font-size="12px" fill="#000" opacity="1">2021</text><text text-anchor="end" transform="translate(609.5,7) rotate(270) translate(0,4)" font-family="Lato" font-size="12px" fill="#000" opacity="1">2022</text><text text-anchor="end" transform="translate(662.5,7) rotate(270) translate(0,4)" font-family="Lato" font-size="12px" fill="#000" opacity="1">2023</text><text text-anchor="end" transform="translate(715.5,7) rotate(270) translate(0,4)" font-family="Lato" font-size="12px" fill="#000" opacity="1">2024</text><text text-anchor="end" transform="translate(768.5,7) rotate(270) translate(0,4)" font-family="Lato" font-size="12px" fill="#000" opacity="1">2025</text><text text-anchor="end" transform="translate(821.5,7) rotate(270) translate(0,4)" font-family="Lato" font-size="12px" fill="#000" opacity="1">2026</text><text text-anchor="end" transform="translate(874.5,7) rotate(270) translate(0,4)" font-family="Lato" font-size="12px" fill="#000" opacity="1">2027</text><text text-anchor="end" transform="translate(927.5,7) rotate(270) translate(0,4)" font-family="Lato" font-size="12px" fill="#000" opacity="1">2028</text><text text-anchor="end" transform="translate(980.5,7) rotate(270) translate(0,4)" font-family="Lato" font-size="12px" fill="#000" opacity="1">2029</text><text text-anchor="end" transform="translate(1033.5,7) rotate(270) translate(0,4)" font-family="Lato" font-size="12px" fill="#000" opacity="1">2030</text></g><g class="mark-rule role-axis-domain" pointer-events="none"><line transform="translate(0,0)" x2="1060" y2="0" stroke="#888" stroke-width="1" opacity="1"/></g><g class="mark-text role-axis-title" pointer-events="none"><text text-anchor="middle" transform="translate(530,49.8399658203125)" font-family="Lato" font-size="14px" font-weight="bold" fill="#000" opacity="1">Year</text></g></g><path class="foreground" aria-hidden="true" d="" pointer-events="none" display="none"/></g></g><g class="mark-group role-axis" role="graphics-symbol" aria-roledescription="axis" aria-label="Y-axis titled 'Value' for a linear scale with values from 40 to 120"><g transform="translate(0.5,0.5)"><path class="background" aria-hidden="true" d="M0,0h0v0h0Z" pointer-events="none"/><g><g class="mark-rule role-axis-tick" pointer-events="none"><line transform="translate(0,400)" x2="-5" y2="0" stroke="#888" stroke-width="1" opacity="1"/><line transform="translate(0,350)" x2="-5" y2="0" stroke="#888" stroke-width="1" opacity="1"/><line transform="translate(0,300)" x2="-5" y2="0" stroke="#888" stroke-width="1" opacity="1"/><line transform="translate(0,250)" x2="-5" y2="0" stroke="#888" stroke-width="1" opacity="1"/><line transform="translate(0,200)" x2="-5" y2="0" stroke="#888" stroke-width="1" opacity="1"/><line transform="translate(0,150)" x2="-5" y2="0" stroke="#888" stroke-width="1" opacity="1"/><line transform="translate(0,100)" x2="-5" y2="0" stroke="#888" stroke-width="1" opacity="1"/><line transform="translate(0,50)" x2="-5" y2="0" stroke="#888" stroke-width="1" opacity="1"/><line transform="translate(0,0)" x2="-5" y2="0" stroke="#888" stroke-width="1" opacity="1"/></g><g class="mark-text role-axis-label" pointer-events="none"><text text-anchor="end" transform="translate(-7,404)" font-family="Lato" font-size="12px" fill="#000" opacity="1">40</text><text text-anchor="end" transform="translate(-7,354)" font-family="Lato" font-size="12px" fill="#000" opacity="1">50</text><text text-anchor="end" transform="translate(-7,304)" font-family="Lato" font-size="12px" fill="#000" opacity="1">60</text><text text-anchor="end" transform="translate(-7,254)" font-family="Lato" font-size="12px" fill="#000" opacity="1">70</text><text text-anchor="end" transform="translate(-7,204)" font-family="Lato" font-size="12px" fill="#000" opacity="1">80</text><text text-anchor="end" transform="translate(-7,154)" font-family="Lato" font-size="12px" fill="#000" opacity="1">90</text><text text-anchor="end" transform="translate(-7,104)" font-family="Lato" font-size="12px" fill="#000" opacity="1">100</text><text text-anchor="end" transform="translate(-7,54)" font-family="Lato" font-size="12px" fill="#000" opacity="1">110</text><text text-anchor="end" transform="translate(-7,4)" font-family="Lato" font-size="12px" fill="#000" opacity="1">120</text></g><g class="mark-rule role-axis-domain" pointer-events="none"><line transform="translate(0,400)" x2="0" y2="-400" stroke="#888" stroke-width="1" opacity="1"/></g><g class="mark-text role-axis-title" pointer-events="none"><text text-anchor="middle" transform="translate(-31.879974365234375,200) rotate(-90) translate(0,-3)" font-family="Lato" font-size="14px" font-weight="bold" fill="#000" opacity="1">Value</text></g></g><path class="foreground" aria-hidden="true" d="" pointer-events="none" display="none"/></g></g><g class="mark-line role-mark layer_0_layer_0_marks" role="graphics-object" aria-roledescription="line mark container"><path aria-label="Year: 2011; Value: 120" role="graphics-symbol" aria-roledescription="line mark" d="M26.5,0L79.5,40L132.5,95L185.5,65L238.5,65L291.5,90L344.5,105L397.5,145L450.5,140L503.5,205L556.5,205L609.5,220L662.5,230L715.5,240L768.5,250L821.5,260L874.5,270L927.5,280L980.5,305L1033.5,350" stroke="#188FE1" stroke-width="2"/></g><g class="mark-symbol role-mark layer_0_layer_1_marks" role="graphics-object" aria-roledescription="symbol mark container"><path aria-label="Year: 2011; Value: 120" role="graphics-symbol" aria-roledescription="point" transform="translate(26.5,0)" d="M2.739,0A2.739,2.739,0,1,1,-2.739,0A2.739,2.739,0,1,1,2.739,0" fill="#188FE1" stroke-width="2" opacity="1"/><path aria-label="Year: 2012; Value: 112" role="graphics-symbol" aria-roledescription="point" transform="translate(79.5,39.99999999999999)" d="M2.739,0A2.739,2.739,0,1,1,-2.739,0A2.739,2.739,0,1,1,2.739,0" fill="#188FE1" stroke-width="2" opacity="1"/><path aria-label="Year: 2013; Value: 101" role="graphics-symbol" aria-roledescription="point" transform="translate(132.5,95.00000000000001)" d="M2.739,0A2.739,2.739,0,1,1,-2.739,0A2.739,2.739,0,1,1,2.739,0" fill="#188FE1" stroke-width="2" opacity="1"/><path aria-label="Year: 2014; Value: 107" role="graphics-symbol" aria-roledescription="point" transform="translate(185.5,64.99999999999999)" d="M2.739,0A2.739,2.739,0,1,1,-2.739,0A2.739,2.739,0,1,1,2.739,0" fill="#188FE1" stroke-width="2" opacity="1"/><path aria-label="Year: 2015; Value: 107" role="graphics-symbol" aria-roledescription="point" transform="translate(238.5,64.99999999999999)" d="M2.739,0A2.739,2.739,0,1,1,-2.739,0A2.739,2.739,0,1,1,2.739,0" fill="#188FE1" stroke-width="2" opacity="1"/><path aria-label="Year: 2016; Value: 102" role="graphics-symbol" aria-roledescription="point" transform="translate(291.5,89.99999999999999)" d="M2.739,0A2.739,2.739,0,1,1,-2.739,0A2.739,2.739,0,1,1,2.739,0" fill="#188FE1" stroke-width="2" opacity="1"/><path aria-label="Year: 2017; Value: 99" role="graphics-symbol" aria-roledescription="point" transform="translate(344.5,104.99999999999999)" d="M2.739,0A2.739,2.739,0,1,1,-2.739,0A2.739,2.739,0,1,1,2.739,0" fill="#188FE1" stroke-width="2" opacity="1"/><path aria-label="Year: 2018; Value: 91" role="graphics-symbol" aria-roledescription="point" transform="translate(397.5,145.00000000000003)" d="M2.739,0A2.739,2.739,0,1,1,-2.739,0A2.739,2.739,0,1,1,2.739,0" fill="#188FE1" stroke-width="2" opacity="1"/><path aria-label="Year: 2019; Value: 92" role="graphics-symbol" aria-roledescription="point" transform="translate(450.5,140)" d="M2.739,0A2.739,2.739,0,1,1,-2.739,0A2.739,2.739,0,1,1,2.739,0" fill="#188FE1" stroke-width="2" opacity="1"/><path aria-label="Year: 2020; Value: 79" role="graphics-symbol" aria-roledescription="point" transform="translate(503.5,204.99999999999997)" d="M2.739,0A2.739,2.739,0,1,1,-2.739,0A2.739,2.739,0,1,1,2.739,0" fill="#188FE1" stroke-width="2" opacity="1"/><path aria-label="Year: 2021; Value: 79" role="graphics-symbol" aria-roledescription="point" transform="translate(556.5,204.99999999999997)" d="M2.739,0A2.739,2.739,0,1,1,-2.739,0A2.739,2.739,0,1,1,2.739,0" fill="#18E169" stroke-width="2" opacity="1"/><path aria-label="Year: 2022; Value: 76" role="graphics-symbol" aria-roledescription="point" transform="translate(609.5,220.00000000000003)" d="M2.739,0A2.739,2.739,0,1,1,-2.739,0A2.739,2.739,0,1,1,2.739,0" fill="#18E169" stroke-width="2" opacity="1"/><path aria-label="Year: 2023; Value: 74" role="graphics-symbol" aria-roledescription="point" transform="translate(662.5,229.99999999999997)" d="M2.739,0A2.739,2.739,0,1,1,-2.739,0A2.739,2.739,0,1,1,2.739,0" fill="#18E169" stroke-width="2" opacity="1"/><path aria-label="Year: 2024; Value: 72" role="graphics-symbol" aria-roledescription="point" transform="translate(715.5,240)" d="M2.739,0A2.739,2.739,0,1,1,-2.739,0A2.739,2.739,0,1,1,2.739,0" fill="#18E169" stroke-width="2" opacity="1"/><path aria-label="Year: 2025; Value: 70" role="graphics-symbol" aria-roledescription="point" transform="translate(768.5,250)" d="M2.739,0A2.739,2.739,0,1,1,-2.739,0A2.739,2.739,0,1,1,2.739,0" fill="#18E169" stroke-width="2" opacity="1"/><path aria-label="Year: 2026; Value: 68" role="graphics-symbol" aria-roledescription="point" transform="translate(821.5,260)" d="M2.739,0A2.739,2.739,0,1,1,-2.739,0A2.739,2.739,0,1,1,2.739,0" fill="#18E169" stroke-width="2" opacity="1"/><path aria-label="Year: 2027; Value: 66" role="graphics-symbol" aria-roledescription="point" transform="translate(874.5,270)" d="M2.739,0A2.739,2.739,0,1,1,-2.739,0A2.739,2.739,0,1,1,2.739,0" fill="#18E169" stroke-width="2" opacity="1"/><path aria-label="Year: 2028; Value: 64" role="graphics-symbol" aria-roledescription="point" transform="translate(927.5,280)" d="M2.739,0A2.739,2.739,0,1,1,-2.739,0A2.739,2.739,0,1,1,2.739,0" fill="#18E169" stroke-width="2" opacity="1"/><path aria-label="Year: 2029; Value: 59" role="graphics-symbol" aria-roledescription="point" transform="translate(980.5,305)" d="M2.739,0A2.739,2.739,0,1,1,-2.739,0A2.739,2.739,0,1,1,2.739,0" fill="#18E169" stroke-width="2" opacity="1"/><path aria-label="Year: 2030; Value: 50" role="graphics-symbol" aria-roledescription="point" transform="translate(1033.5,350)" d="M2.739,0A2.739,2.739,0,1,1,-2.739,0A2.739,2.739,0,1,1,2.739,0" fill="#18E169" stroke-width="2" opacity="1"/></g><g class="mark-symbol role-mark layer_1_marks" role="graphics-object" aria-roledescription="symbol mark container"><path aria-label="Year: 2030; Value: 50" role="graphics-symbol" aria-roledescription="point" transform="translate(1033.5,350)" d="M11.18,0A11.18,11.18,0,1,1,-11.18,0A11.18,11.18,0,1,1,11.18,0" stroke="#18E169" stroke-width="2" opacity="0.7"/></g><g class="mark-group role-title"><g transform="translate(-45.879974365234375,-30)"><path class="background" aria-hidden="true" d="M0,0h0v0h0Z" pointer-events="none"/><g><g class="mark-text role-title-text" role="graphics-symbol" aria-roledescription="title" aria-label="Title text 'Obiettivo Farm to Fork di riduzione pesticidi per il 2030'" pointer-events="none"><text text-anchor="start" transform="translate(0,16)" font-family="Lato" font-size="20px" font-weight="bold" fill="black" opacity="1">Obiettivo Farm to Fork di riduzione pesticidi per il 2030</text></g></g><path class="foreground" aria-hidden="true" d="" pointer-events="none" display="none"/></g></g></g><path class="foreground" aria-hidden="true" d="" display="none"/></g></g></g></svg>