<svg xmlns="http://www.w3.org/2000/svg" xmlns:xlink="http://www.w3.org/1999/xlink" version="1.1" class="marks" width="1116" height="670" viewBox="0 0 1116 670"><g fill="none" stroke-miterlimit="10" transform="translate(202,29)"><g class="mark-group role-frame root" role="graphics-object" aria-roledescription="group mark container"><g transform="translate(0,0)"><path class="background" aria-hidden="true" d="M0.5,0.5h908v600h-908Z" stroke="#ddd"/><g><g class="mark-group role-axis" aria-hidden="true"><g transform="translate(0.5,600.5)"><path class="background" aria-hidden="true" d="M0,0h0v0h0Z" pointer-events="none"/><g><g class="mark-rule role-axis-grid" pointer-events="none"><line transform="translate(0,0)" x2="0" y2="-600" stroke="#ddd" stroke-width="1" opacity="1"/><line transform="translate(30,0)" x2="0" y2="-600" stroke="#ddd" stroke-width="1" opacity="1"/><line transform="translate(61,0)" x2="0" y2="-600" stroke="#ddd" stroke-width="1" opacity="1"/><line transform="translate(91,0)" x2="0" y2="-600" stroke="#ddd" stroke-width="1" opacity="1"/><line transform="translate(121,0)" x2="0" y2="-600" stroke="#ddd" stroke-width="1" opacity="1"/><line transform="translate(151,0)" x2="0" y2="-600" stroke="#ddd" stroke-width="1" opacity="1"/><line transform="translate(182,0)" x2="0" y2="-600" stroke="#ddd" stroke-width="1" opacity="1"/><line transform="translate(212,0)" x2="0" y2="-600" stroke="#ddd" stroke-width="1" opacity="1"/><line transform="translate(242,0)" x2="0" y2="-600" stroke="#ddd" stroke-width="1" opacity="1"/><line transform="translate(272,0)" x2="0" y2="-600" stroke="#ddd" stroke-width="1" opacity="1"/><line transform="translate(303,0)" x2="0" y2="-600" stroke="#ddd" stroke-width="1" opacity="1"/><line transform="translate(333,0)" x2="0" y2="-600" stroke="#ddd" stroke-width="1" opacity="1"/><line transform="translate(363,0)" x2="0" y2="-600" stroke="#ddd" stroke-width="1" opacity="1"/><line transform="translate(393,0)" x2="0" y2="-600" stroke="#ddd" stroke-width="1" opacity="1"/><line transform="translate(424,0)" x2="0" y2="-600" stroke="#ddd" stroke-width="1" opacity="1"/><line transform="translate(454,0)" x2="0" y2="-600" stroke="#ddd" stroke-width="1" opacity="1"/><line transform="translate(484,0)" x2="0" y2="-600" stroke="#ddd" stroke-width="1" opacity="1"/><line transform="translate(515,0)" x2="0" y2="-600" stroke="#ddd" stroke-width="1" opacity="1"/><line transform="translate(545,0)" x2="0" y2="-600" stroke="#ddd" stroke-width="1" opacity="1"/><line transform="translate(575,0)" x2="0" y2="-600" stroke="#ddd" stroke-width="1" opacity="1"/><line transform="translate(605,0)" x2="0" y2="-600" stroke="#ddd" stroke-width="1" opacity="1"/><line transform="translate(636,0)" x2="0" y2="-600" stroke="#ddd" stroke-width="1" opacity="1"/><line transform="translate(666,0)" x2="0" y2="-600" stroke="#ddd" stroke-width="1" opacity="1"/><line transform="translate(696,0)" x2="0" y2="-600" stroke="#ddd" stroke-width="1" opacity="1"/><line transform="translate(726,0)" x2="0" y2="-600" stroke="#ddd" stroke-width="1" opacity="1"/><line transform="translate(757,0)" x2="0" y2="-600" stroke="#ddd" stroke-width="1" opacity="1"/><line transform="translate(787,0)" x2="0" y2="-600" stroke="#ddd" stroke-width="1" opacity="1"/><line transform="translate(817,0)" x2="0" y2="-600" stroke="#ddd" stroke-width="1" opacity="1"/><line transform="translate(847,0)" x2="0" y2="-600" stroke="#ddd" stroke-width="1" opacity="1"/><line transform="translate(878,0)" x2="0" y2="-600" stroke="#ddd" stroke-width="1" opacity="1"/><line transform="translate(908,0)" x2="0" y2="-600" stroke="#ddd" stroke-width="1" opacity="1"/></g></g><path class="foreground" aria-hidden="true" d="" pointer-events="none" display="none"/></g></g><g class="mark-group role-axis" role="graphics-symbol" aria-roledescription="axis" aria-label="X-axis titled 'Proportion' for a linear scale with values from 0.0 to 0.6"><g transform="translate(0.5,600.5)"><path class="background" aria-hidden="true" d="M0,0h0v0h0Z" pointer-events="none"/><g><g class="mark-rule role-axis-tick" pointer-events="none"><line transform="translate(0,0)" x2="0" y2="5" stroke="#888" stroke-width="1" opacity="1"/><line transform="translate(30,0)" x2="0" y2="5" stroke="#888" stroke-width="1" opacity="1"/><line transform="translate(61,0)" x2="0" y2="5" stroke="#888" stroke-width="1" opacity="1"/><line transform="translate(91,0)" x2="0" y2="5" stroke="#888" stroke-width="1" opacity="1"/><line transform="translate(121,0)" x2="0" y2="5" stroke="#888" stroke-width="1" opacity="1"/><line transform="translate(151,0)" x2="0" y2="5" stroke="#888" stroke-width="1" opacity="1"/><line transform="translate(182,0)" x2="0" y2="5" stroke="#888" stroke-width="1" opacity="1"/><line transform="translate(212,0)" x2="0" y2="5" stroke="#888" stroke-width="1" opacity="1"/><line transform="translate(242,0)" x2="0" y2="5" stroke="#888" stroke-width="1" opacity="1"/><line transform="translate(272,0)" x2="0" y2="5" stroke="#888" stroke-width="1" opacity="1"/><line transform="translate(303,0)" x2="0" y2="5" stroke="#888" stroke-width="1" opacity="1"/><line transform="translate(333,0)" x2="0" y2="5" stroke="#888" stroke-width="1" opacity="1"/><line transform="translate(363,0)" x2="0" y2="5" stroke="#888" stroke-width="1" opacity="1"/><line transform="translate(393,0)" x2="0" y2="5" stroke="#888" stroke-width="1" opacity="1"/><line transform="translate(424,0)" x2="0" y2="5" stroke="#888" stroke-width="1" opacity="1"/><line transform="translate(454,0)" x2="0" y2="5" stroke="#888" stroke-width="1" opacity="1"/><line transform="translate(484,0)" x2="0" y2="5" stroke="#888" stroke-width="1" opacity="1"/><line transform="translate(515,0)" x2="0" y2="5" stroke="#888" stroke-width="1" opacity="1"/><line transform="translate(545,0)" x2="0" y2="5" stroke="#888" stroke-width="1" opacity="1"/><line transform="translate(575,0)" x2="0" y2="5" stroke="#888" stroke-width="1" opacity="1"/><line transform="translate(605,0)" x2="0" y2="5" stroke="#888" stroke-width="1" opacity="1"/><line transform="translate(636,0)" x2="0" y2="5" stroke="#888" stroke-width="1" opacity="1"/><line transform="translate(666,0)" x2="0" y2="5" stroke="#888" stroke-width="1" opacity="1"/><line transform="translate(696,0)" x2="0" y2="5" stroke="#888" stroke-width="1" opacity="1"/><line transform="translate(726,0)" x2="0" y2="5" stroke="#888" stroke-width="1" opacity="1"/><line transform="translate(757,0)" x2="0" y2="5" stroke="#888" stroke-width="1" opacity="1"/><line transform="translate(787,0)" x2="0" y2="5" stroke="#888" stroke-width="1" opacity="1"/><line transform="translate(817,0)" x2="0" y2="5" stroke="#888" stroke-width="1" opacity="1"/><line transform="translate(847,0)" x2="0" y2="5" stroke="#888" stroke-width="1" opacity="1"/><line transform="translate(878,0)" x2="0" y2="5" stroke="#888" stroke-width="1" opacity="1"/><line transform="translate(908,0)" x2="0" y2="5" stroke="#888" stroke-width="1" opacity="1"/></g><g class="mark-text role-axis-label" pointer-events="none"><text text-anchor="start" transform="translate(0,16)" font-family="Lato" font-size="12px" fill="#000" opacity="1">0.00</text><text text-anchor="middle" transform="translate(30.266666666666666,16)" font-family="Lato" font-size="12px" fill="#000" opacity="0">0.02</text><text text-anchor="middle" transform="translate(60.53333333333333,16)" font-family="Lato" font-size="12px" fill="#000" opacity="1">0.04</text><text text-anchor="middle" transform="translate(90.80000000000001,16)" font-family="Lato" font-size="12px" fill="#000" opacity="0">0.06</text><text text-anchor="middle" transform="translate(121.06666666666666,16)" font-family="Lato" font-size="12px" fill="#000" opacity="1">0.08</text><text text-anchor="middle" transform="translate(151.33333333333334,16)" font-family="Lato" font-size="12px" fill="#000" opacity="0">0.10</text><text text-anchor="middle" transform="translate(181.60000000000002,16)" font-family="Lato" font-size="12px" fill="#000" opacity="1">0.12</text><text text-anchor="middle" transform="translate(211.8666666666667,16)" font-family="Lato" font-size="12px" fill="#000" opacity="0">0.14</text><text text-anchor="middle" transform="translate(242.13333333333333,16)" font-family="Lato" font-size="12px" fill="#000" opacity="1">0.16</text><text text-anchor="middle" transform="translate(272.4,16)" font-family="Lato" font-size="12px" fill="#000" opacity="0">0.18</text><text text-anchor="middle" transform="translate(302.6666666666667,16)" font-family="Lato" font-size="12px" fill="#000" opacity="1">0.20</text><text text-anchor="middle" transform="translate(332.93333333333334,16)" font-family="Lato" font-size="12px" fill="#000" opacity="0">0.22</text><text text-anchor="middle" transform="translate(363.20000000000005,16)" font-family="Lato" font-size="12px" fill="#000" opacity="1">0.24</text><text text-anchor="middle" transform="translate(393.4666666666667,16)" font-family="Lato" font-size="12px" fill="#000" opacity="0">0.26</text><text text-anchor="middle" transform="translate(423.7333333333334,16)" font-family="Lato" font-size="12px" fill="#000" opacity="1">0.28</text><text text-anchor="middle" transform="translate(454,16)" font-family="Lato" font-size="12px" fill="#000" opacity="0">0.30</text><text text-anchor="middle" transform="translate(484.26666666666665,16)" font-family="Lato" font-size="12px" fill="#000" opacity="1">0.32</text><text text-anchor="middle" transform="translate(514.5333333333334,16)" font-family="Lato" font-size="12px" fill="#000" opacity="0">0.34</text><text text-anchor="middle" transform="translate(544.8,16)" font-family="Lato" font-size="12px" fill="#000" opacity="1">0.36</text><text text-anchor="middle" transform="translate(575.0666666666667,16)" font-family="Lato" font-size="12px" fill="#000" opacity="0">0.38</text><text text-anchor="middle" transform="translate(605.3333333333334,16)" font-family="Lato" font-size="12px" fill="#000" opacity="1">0.40</text><text text-anchor="middle" transform="translate(635.5999999999999,16)" font-family="Lato" font-size="12px" fill="#000" opacity="0">0.42</text><text text-anchor="middle" transform="translate(665.8666666666667,16)" font-family="Lato" font-size="12px" fill="#000" opacity="1">0.44</text><text text-anchor="middle" transform="translate(696.1333333333333,16)" font-family="Lato" font-size="12px" fill="#000" opacity="0">0.46</text><text text-anchor="middle" transform="translate(726.4000000000001,16)" font-family="Lato" font-size="12px" fill="#000" opacity="1">0.48</text><text text-anchor="middle" transform="translate(756.6666666666667,16)" font-family="Lato" font-size="12px" fill="#000" opacity="0">0.50</text><text text-anchor="middle" transform="translate(786.9333333333334,16)" font-family="Lato" font-size="12px" fill="#000" opacity="1">0.52</text><text text-anchor="middle" transform="translate(817.2000000000002,16)" font-family="Lato" font-size="12px" fill="#000" opacity="0">0.54</text><text text-anchor="middle" transform="translate(847.4666666666668,16)" font-family="Lato" font-size="12px" fill="#000" opacity="1">0.56</text><text text-anchor="middle" transform="translate(877.7333333333333,16)" font-family="Lato" font-size="12px" fill="#000" opacity="0">0.58</text><text text-anchor="end" transform="translate(908,16)" font-family="Lato" font-size="12px" fill="#000" opacity="1">0.60</text></g><g class="mark-rule role-axis-domain" pointer-events="none"><line transform="translate(0,0)" x2="908" y2="0" stroke="#888" stroke-width="1" opacity="1"/></g><g class="mark-text role-axis-title" pointer-events="none"><text text-anchor="middle" transform="translate(454,33)" font-family="Lato" font-size="14px" font-weight="bold" fill="#000" opacity="1">Proportion</text></g></g><path class="foreground" aria-hidden="true" d="" pointer-events="none" display="none"/></g></g><g class="mark-group role-axis" role="graphics-symbol" aria-roledescription="axis" aria-label="Y-axis titled 'Category' for a discrete scale with 6 values: Basic Income Support,for Sustainability, Eco-schemes, Coupled Income Support, Complementary redistributive,income support for sustainability, Complementary Income,for Young Farmers, Cotton"><g transform="translate(0.5,0.5)"><path class="background" aria-hidden="true" d="M0,0h0v0h0Z" pointer-events="none"/><g><g class="mark-rule role-axis-tick" pointer-events="none"><line transform="translate(0,50)" x2="-5" y2="0" stroke="#888" stroke-width="1" opacity="1"/><line transform="translate(0,150)" x2="-5" y2="0" stroke="#888" stroke-width="1" opacity="1"/><line transform="translate(0,250)" x2="-5" y2="0" stroke="#888" stroke-width="1" opacity="1"/><line transform="translate(0,350)" x2="-5" y2="0" stroke="#888" stroke-width="1" opacity="1"/><line transform="translate(0,450)" x2="-5" y2="0" stroke="#888" stroke-width="1" opacity="1"/><line transform="translate(0,550)" x2="-5" y2="0" stroke="#888" stroke-width="1" opacity="1"/></g><g class="mark-text role-axis-label" pointer-events="none"><text text-anchor="end" transform="translate(-7,53.5)" font-family="Lato" font-size="12px" fill="#000" opacity="1"><tspan>Basic Income Support</tspan><tspan x="0" dy="14">for Sustainability</tspan></text><text text-anchor="end" transform="translate(-7,153.5)" font-family="Lato" font-size="12px" fill="#000" opacity="1">Eco-schemes</text><text text-anchor="end" transform="translate(-7,253.5)" font-family="Lato" font-size="12px" fill="#000" opacity="1">Coupled Income Support</text><text text-anchor="end" transform="translate(-7,353.5)" font-family="Lato" font-size="12px" fill="#000" opacity="1"><tspan>Complementary redistributive</tspan><tspan x="0" dy="14">income support for sustainability</tspan></text><text text-anchor="end" transform="translate(-7,453.5)" font-family="Lato" font-size="12px" fill="#000" opacity="1"><tspan>Complementary Income</tspan><tspan x="0" dy="14">for Young Farmers</tspan></text><text text-anchor="end" transform="translate(-7,553.5)" font-family="Lato" font-size="12px" fill="#000" opacity="1">Cotton</text></g><g class="mark-rule role-axis-domain" pointer-events="none"><line transform="translate(0,0)" x2="0" y2="600" stroke="#888" stroke-width="1" opacity="1"/></g><g class="mark-text role-axis-title" pointer-events="none"><text text-anchor="middle" transform="translate(-182.7918243408203,300) rotate(-90) translate(0,-3)" font-family="Lato" font-size="14px" font-weight="bold" fill="#000" opacity="1">Category</text></g></g><path class="foreground" aria-hidden="true" d="" pointer-events="none" display="none"/></g></g><g class="mark-rect role-mark marks" role="graphics-object" aria-roledescription="rect mark container"><path aria-label="Proportion: 0.237624; Category: Eco-schemes" role="graphics-symbol" aria-roledescription="bar" d="M0,105h359.60432000000003v90h-359.60432000000003Z" fill="#18E169"/><path aria-label="Proportion: 0.50495; Category: Basic Income Support,for Sustainability" role="graphics-symbol" aria-roledescription="bar" d="M0,5h764.1576666666667v90h-764.1576666666667Z" fill="#18E169"/><path aria-label="Proportion: 0.009901; Category: Cotton" role="graphics-symbol" aria-roledescription="bar" d="M0,505h14.983513333333335v90h-14.983513333333335Z" fill="#18E169"/><path aria-label="Proportion: 0.108911; Category: Complementary redistributive,income support for sustainability" role="graphics-symbol" aria-roledescription="bar" d="M0,305h164.81864666666667v90h-164.81864666666667Z" fill="#18E169"/><path aria-label="Proportion: 0.019802; Category: Complementary Income,for Young Farmers" role="graphics-symbol" aria-roledescription="bar" d="M0,405h29.96702666666667v90h-29.96702666666667Z" fill="#18E169"/><path aria-label="Proportion: 0.118812; Category: Coupled Income Support" role="graphics-symbol" aria-roledescription="bar" d="M0,205h179.80216000000001v90h-179.80216000000001Z" fill="#18E169"/></g><g class="mark-group role-title"><g transform="translate(-196.7918243408203,-24)"><path class="background" aria-hidden="true" d="M0,0h0v0h0Z" pointer-events="none"/><g><g class="mark-text role-title-text" role="graphics-symbol" aria-roledescription="title" aria-label="Title text 'Finanziamento per categorie'" pointer-events="none"><text text-anchor="start" transform="translate(0,16)" font-family="Lato" font-size="20px" font-weight="bold" fill="black" opacity="1">Finanziamento per categorie</text></g></g><path class="foreground" aria-hidden="true" d="" pointer-events="none" display="none"/></g></g></g><path class="foreground" aria-hidden="true" d="" display="none"/></g></g></g></svg>